<?xml version="1.0" encoding="UTF-8"?>
<svg id="Layer_1" data-name="Layer 1" xmlns="http://www.w3.org/2000/svg" xmlns:xlink="http://www.w3.org/1999/xlink" viewBox="0 0 1000 1000">
  <defs>
    <style>
      .cls-1 {
        stroke: #000;
        stroke-miterlimit: 10;
      }

      .cls-1, .cls-2 {
        fill: none;
      }

      .cls-3 {
        fill: #cf7962;
      }

      .cls-4 {
        fill: #f88006;
      }

      .cls-5 {
        fill: #552a21;
      }

      .cls-6 {
        fill: #5080c2;
      }

      .cls-7 {
        fill: #fda93d;
      }

      .cls-8 {
        fill: #6ea5e7;
      }

      .cls-9 {
        fill: #fff;
      }

      .cls-10 {
        fill: #1d30b0;
      }

      .cls-11 {
        fill: #d0f2ff;
      }

      .cls-12 {
        fill: #febfa0;
      }

      .cls-13 {
        fill: #67140f;
      }

      .cls-14 {
        fill: #ec855c;
      }

      .cls-15 {
        fill: #381612;
      }

      .cls-16 {
        fill: #8abdfd;
      }

      .cls-17 {
        fill: #fcad90;
      }

      .cls-18 {
        fill: #455d92;
      }

      .cls-19 {
        fill: #d8cccd;
      }

      .cls-20 {
        fill: #ee8b72;
      }

      .cls-21 {
        fill: #fbcba2;
      }

      .cls-22 {
        fill: #5e92d8;
      }

      .cls-23 {
        fill: #f41f1a;
      }

      .cls-24 {
        fill: #ffefdb;
      }

      .cls-25 {
        fill: #faa172;
      }

      .cls-26 {
        fill: #fdd668;
      }

      .cls-27 {
        fill: #d9080c;
      }

      .cls-28 {
        clip-path: url(#clippath);
      }

      .cls-29 {
        fill: #466fae;
      }

      .cls-30 {
        fill: #c4b18d;
      }
    </style>
    <clipPath id="clippath">
      <ellipse class="cls-2" cx="509.7" cy="669.38" rx="327.32" ry="305.01"/>
    </clipPath>
  </defs>
  <g class="cls-28">
    <g>
      <g>
        <path class="cls-24" d="M188.63,326.49l-130.29,91.87c-8.42-7.42-15.76-16.19-24.22-23.39-2.67-2.27-10.53-3.7-10.86-4.18-1.1-1.59,3.25-5.52,3.34-5.85,9.36-1.37,19.74-11.69,27.56-18.37,12.52-10.7,82.8-79.98,88.53-81.85,18.31-5.98,43.19,24.98,45.94,41.76Z"/>
        <path class="cls-21" d="M188.63,326.49c.77,4.72,3.19,10.95,1.67,15.87-2.21,7.15-106.95,78.21-121.94,86.03-9.04-1.92-5.67-6.18-10.02-10.02l130.29-91.87Z"/>
        <g>
          <path class="cls-24" d="M11.57,458.46l-160.36,135.31c-2.64-16.54-29.09-44.06-46.77-41.76-1.8.23-2.49,2.49-5.01,1.67,10.99-13.17,45.85-28.51,58.47-43.43-9.98,22.22,53.44,41.82,51.78,11.69.9-.07,7.63-4.21,6.68-6.68,29.95-5.8,21.29-21.66,27.56-25.06,2.86-1.55,8.68,2.49,12.53-2.51,3.72-4.82-.1-22.09,1.67-26.73,2.13-5.55,23.01-9.43,3.34-29.23,4.04.01,18.15-6.63,20.88-6.68,14.62-.25,25.25,21.69,29.23,33.41Z"/>
          <path class="cls-21" d="M14.91,478.51c-9.8,3.06-15.72,12.3-23.39,18.37-.5.4-2.84,1.27-3.34,1.67-14.59,11.62-118.58,97.41-120.27,105.24l-18.37,10.02c1.95-4.69,2.46-15.12,1.67-20.05L11.57,458.46c3.41,10.04,4.25,9.32,3.34,20.05Z"/>
          <g>
            <path class="cls-23" d="M106.78,440.08c-7.8,14.61-28.85,32.07-33.41,40.93-1.05,2.05,1.02,10.73,0,13.36-1.75,4.51-43.01,25.59-48.44,25.89-14.96.83-.44-43.38,2.51-43.43l11.69,28.4,3.34-33.41c10.31-.14,8.61,21.4,9.19,22.55,2.15,4.31,5.59-2.88,7.52-2.51.41.08,3.16,6.67,5.01,6.68,10.47.05,7.26-30.51-.84-35.91,7.64-6.23,11.32,11.78,15.03,1.67-3.93-6.5-15.04-13.77-9.19-20.88l12.53-.84c-24.18-12.23,17.4-10.95,25.06-6.68.18.1-6.68,4.74,0,4.18Z"/>
            <g>
              <path class="cls-27" d="M26.6,384.96c-.09.32-4.44,4.26-3.34,5.85.33.48,8.19,1.91,10.86,4.18,8.47,7.19,15.81,15.96,24.22,23.39,4.35,3.84.98,8.1,10.02,10.02,6.86,1.46,42-3.18,43.43,7.52.14,1.02-4.86,3.89-5.01,4.18-6.68.56.18-4.07,0-4.18-7.66-4.27-49.23-5.55-25.06,6.68l-12.53.84c-5.85,7.11,5.26,14.38,9.19,20.88-3.72,10.11-7.4-7.9-15.03-1.67,8.1,5.41,11.3,35.96.84,35.91-1.85,0-4.6-6.6-5.01-6.68-1.93-.37-5.37,6.81-7.52,2.51-.57-1.15,1.12-22.7-9.19-22.55l-3.34,33.41-11.69-28.4c-2.95.05-17.47,44.26-2.51,43.43l-10.86,8.35c-13.64.92.07-41.17.84-50.11.91-10.73.07-10-3.34-20.05-3.99-11.72-14.61-33.66-29.23-33.41-2.73.05-16.84,6.69-20.88,6.68-2.72,0-11.17-3.28-13.36-5.01-9.97-7.87-1.96-22.47,5.01-31.74l-6.68,22.55,22.55.84-5.85-7.52,11.69-3.34c-25.84-14.24-8.58-13.19,8.35-8.35-11.33-7.78-14.21-20.05-26.73-7.52,4.2-16.71,14.83-7.64,26.73-7.52-4.89-14.71-.84-20.41,8.35-29.23l5.85,16.7,2.51-17.54c8.8-1.15,4.94,19.78,7.52,25.89,8.97-3.23,0-16.72,4.18-24.22,4.45-6.21,2.36,27.38,5.85,29.23,3.59.02,12.81-46.73,4.18-50.11,3.58-1.57,4.59-6.01,8.35-.84,2.81,18.38,1.7,33.1-3.34,50.95Z"/>
              <path class="cls-23" d="M-8.48,354.89c4.95-4.75,23.91-17.35,30.07-20.05,8.63,3.38-.58,50.13-4.18,50.11-3.48-1.85-1.4-35.44-5.85-29.23-4.18,7.5,4.8,20.99-4.18,24.22-2.58-6.11,1.29-27.04-7.52-25.89l-2.51,17.54-5.85-16.7Z"/>
              <path class="cls-23" d="M17.41,394.98c9.48-.43,43.83,38.31,33.41,43.43-7.5,3.03-2.09-12.15-11.69-15.03-2.81,2.39-20.32,18.63-21.72,18.37-1.92-.35-19.63-27.16-25.89-29.23,0-1.56,24.33-17.47,25.89-17.54Z"/>
            </g>
          </g>
        </g>
      </g>
      <g>
        <g>
          <path class="cls-18" d="M788.32,543.65c-6.51,5.92-16.03,7.58-23.39,11.69-2.69,1.51-5.97,4.63-6.68,5.01-30.92,16.7-64.39,29.74-95.22,46.77-5.82,1.78-6.03-7.25-6.68-10.86-2.52-14.01-10.15-79.61-15.03-86.86-9.22-13.69-92.96-34.37-111.08-35.91-38.65-3.3-147.54,4.77-174.56,35.08-1.7,1.91-3.95,3.17-5.01,5.85-5.07,12.74-12.91,72.29-15.03,89.37-.46,3.67-1.64,4.75-1.67,5.01l-128.62-66.82c85.18-42.61,169.15-94.18,254.74-135.31,8.75-4.2,32.62-17.62,40.09-16.7,95.93,51.22,194.59,98.86,288.15,153.68Z"/>
          <path class="cls-8" d="M788.32,543.65c-93.57-54.82-192.22-102.46-288.15-153.68-7.47-.91-31.34,12.5-40.09,16.7-85.6,41.13-169.56,92.7-254.74,135.31-9.72-2.5-8.22-13.94-.84-18.37,99.31-48.99,195.11-106.28,295.67-152.01,97.83,53.16,199.11,102.06,294.83,157.86,1.58,10.14-1.42,9.41-6.68,14.2Z"/>
          <path class="cls-5" d="M370.71,620.49c.21,4.01-1.03,7.79-1.67,11.69-1.91,11.74-3.63,72.95-6.68,75.17-2.34-11.15-15.78-18.64-20.05-26.73-7.74-14.66-8.04-32.71-8.35-45.1,10.92-8.34,24.23-10.67,36.75-15.03Z"/>
          <path class="cls-5" d="M661.37,637.2c-1.22,14.05-6.2,32.84-13.36,45.1-3.53,6.04-15.68,17.95-21.72,22.55,2.42-26.33.62-53.71-5.01-79.35-.34-1.54.2-3.41,0-5.01,13.79,4.64,27.2,9.98,40.09,16.7Z"/>
          <g>
            <path class="cls-27" d="M766.61,655.57c6.45,2.38,13.49,25.86,15.03,32.57,1.88,8.21,10.97,76.25,10.02,80.18-1.73,7.16-46.48,25.3-55.12,15.03.46-18.24,6.87-121.62,20.05-127.79.48-.22,9.3-.27,10.02,0Z"/>
            <path class="cls-4" d="M768.28,640.54c.45,2.79,6.62,7.66-1.67,15.03-.72-.27-9.54-.22-10.02,0-3.99-5.62-2.46-8.98-1.67-15.03,3.15,4.38,9.85,4.68,13.36,0Z"/>
          </g>
          <g>
            <path class="cls-22" d="M663.04,607.13c-5.98,6.04-.74,19.3-1.67,30.07-12.89-6.72-26.3-12.07-40.09-16.7-80.78-27.16-169.94-28.1-250.57,0-12.52,4.36-25.83,6.69-36.75,15.03-.22-8.79-.97-17.94,0-26.73.03-.26,1.21-1.34,1.67-5.01l20.05-95.22c27.02-30.31,135.91-38.38,174.56-35.08,18.13,1.55,101.87,22.22,111.08,35.91,4.88,7.25,12.51,72.85,15.03,86.86.65,3.61.86,12.63,6.68,10.86Z"/>
            <path class="cls-8" d="M335.63,603.79c2.13-17.08,9.96-76.63,15.03-89.37,1.06-2.67,3.31-3.94,5.01-5.85l-20.05,95.22Z"/>
          </g>
        </g>
        <path class="cls-10" d="M497.67,991.33c12.57,11.6,16,15.32,26.73,28.4l-16.7,20.88c7.42,29.28,11.86,59.35,15.03,89.37.82,7.78,2.48,15.45,1.67,23.39-10.43,13.71-21.58,26.83-32.57,40.09-5.42.79-20.96-23.76-24.22-28.4,3.05-5.14,1.25-11.16,1.67-16.7,1.24-16.51,16.3-102.44,15.03-107.74-.45-1.87-14.97-13.6-15.03-19.21,7.85-10.52,13.34-25.96,28.4-30.07Z"/>
        <g>
          <path class="cls-11" d="M611.26,937.88c-14.02,23.22-19.61,50.97-33.41,74.33-4.36,7.38-26.76,40.5-35.08,35.08-3.41-11.11-11.3-18.94-18.37-27.56-10.73-13.08-14.16-16.8-26.73-28.4-.19-.18-.11-3.6-1.67-5.01,30.52-18.26,59.21-43.97,60.14-81.85,6.78-12.3,30.64,10.5,39.26,16.7,4.67,3.36,12.81,15.2,15.87,16.7Z"/>
          <path class="cls-11" d="M432.52,901.13c1.47,48.97,29.5,55.07,58.47,81.85.63,3.05,4.34,2.2,1.67,5.85-10.81,14.77-37.15,28.5-42.6,50.95l-45.94-48.44c-5.6-9.48-28.37-44.63-26.73-53.45.63-3.37,46.25-44.71,55.12-36.75Z"/>
          <path class="cls-9" d="M496,986.32c1.56,1.42,1.48,4.83,1.67,5.01-15.06,4.11-20.55,19.55-28.4,30.07-4.19,5.62-15.6,27.06-20.88,26.73-22.59-14.4-31.59-35.33-44.27-56.8l45.94,48.44c5.45-22.45,31.78-36.18,42.6-50.95,2.67-3.65-1.05-2.8-1.67-5.85.22.2,2.37.95,5.01,3.34Z"/>
        </g>
        <g>
          <path class="cls-6" d="M265.47,959.59c8.61,37.98,25.57,76.46,43.43,111.08,10.35,20.07,64.4,113.94,76.84,125.28,4.34,3.96,2.72.78,6.68-.84,9.31,14.72,19.71,31.19,30.07,45.1l1.67,462.71c-11.07-.02-22.31.04-33.41,0l-2.51-412.6-10.86,414.27c-15.56-.06-31.5-1.58-46.77-1.67l9.19-392.56-25.89,394.23c-8.89-.07-18.19-1.58-26.73-1.67l23.39-466.89c-8.66,7.98-1.71,15.56-3.34,23.39-.09.41-6.35,2.87-6.68,5.01-.12.79,1.77,15.08,1.67,15.87-18.06,140.24-26.37,282.93-31.74,424.29-6.42-.15-40.03,1.8-41.76-2.51l23.39-476.08c-1.62-.99-2.28-2.81-3.34-4.18,7.52-71.66,2.29-142.67-5.01-213.82-1.22-11.88-2.03-23.92-1.67-35.91l-3.34,5.85c-.33-3.55.23-7.27,0-10.86-3.04-.4-5.63-1.64-8.35-2.51,11.68-.85,23.65-2.66,35.08-5.01Z"/>
          <path class="cls-29" d="M-158.82,825.96l61.81,162.87c28.37,46.63,45.99,73.15,97.72,94.38,35.76,14.67,159.24,53.09,192.1,41.76,39.75-13.7,49.25-111.5,45.94-147l3.34-5.85c-.36,12,.45,24.04,1.67,35.91-1.64,63.37,24.63,155.07-45.1,190.43-55.69-22.85-262.02-91.61-292.33-131.13-26.37-34.39-65.49-191.99-78.51-241.38,4.45.83,8.92.67,13.36,0Z"/>
          <path class="cls-29" d="M1117.4,797.56c11.44,3.85,24.77,5.12,36.75,6.68-20.84,51.67-70.25,190.04-100.23,228.02-12.34,15.62-60.55,45.28-79.35,57.63-29.67,19.5-144.36,93.15-171.22,100.23-12.53,3.3-20.25-1.83-30.9-8.35-45.82-28.06-36.26-103.4-37.59-149.51-.09-3.05,1.67-8.25-3.34-7.52.4-5.45.51-19.43,5.01-22.55,5.73,26.89,8.51,57.84,18.37,83.52,17.88,46.57,32.79,44.48,77.68,32.57,198.62-52.7,219.19-132.89,278.13-311.54.87-2.65,2.84-9.61,6.68-9.19Z"/>
          <path class="cls-16" d="M377.39,937.88c-1.64,8.83,21.13,43.98,26.73,53.45,12.68,21.46,21.68,42.4,44.27,56.8,5.28.34,16.69-21.11,20.88-26.73.06,5.61,14.59,17.34,15.03,19.21,1.27,5.3-13.79,91.23-15.03,107.74-10.96-12.59-20.36-29.61-28.4-44.27-16.81-30.64-37.51-86.13-56.8-111.08l-20.05-48.44c-.08-.34-3.27-3.67-1.67-6.68,5.33-.5,10.35-2.96,15.03,0Z"/>
          <path class="cls-16" d="M611.26,937.88c.38.19,4.04.77,6.68,1.67-.02,1.11.05,2.24,0,3.34-2.74.16-1.42,3.12-1.67,5.01-.84,6.3-3.14,12.35-5.01,18.37-2.71-4.23-6.46,3.61-6.68,4.18-4.41,10.93-5.31,25.55-10.02,36.75-17.66,41.91-44.66,86.33-71.83,122.78-3.18-30.02-7.61-60.09-15.03-89.37l16.7-20.88c7.08,8.63,14.97,16.45,18.37,27.56,8.32,5.42,30.72-27.7,35.08-35.08,13.8-23.36,19.39-51.11,33.41-74.33Z"/>
          <path class="cls-29" d="M278.84,956.25c28.22,81.86,67.23,165.52,113.59,238.87-3.96,1.62-2.34,4.79-6.68.84-12.44-11.34-66.49-105.21-76.84-125.28-17.86-34.63-34.82-73.1-43.43-111.08,4.35-.9,8.96-2.39,13.36-3.34Z"/>
          <path class="cls-29" d="M709.81,959.59c-11.81,31.77-23.93,63.73-38.42,94.38-19.64,41.55-79.71,127.44-88.53,162.87-12.04,6.53-17.67,27.83-26.73,38.42-1.78,2.08-2.88,5.13-5.85,5.01l-.84-11.69c64-85.31,111.9-191.55,150.34-290.66,3.16.56,6.91,1.21,10.02,1.67Z"/>
          <g>
            <path class="cls-6" d="M1157.49,795.89c-.7,1.77-1.59,3.13-1.67,3.34-60.4-3.73-100.87-47.34-119.44-101.9,4.09,44.48,39.09,86.13,81.02,100.23-3.84-.42-5.81,6.54-6.68,9.19-58.94,178.65-79.51,258.84-278.13,311.54-44.89,11.91-59.79,14-77.68-32.57-9.86-25.68-12.65-56.63-18.37-83.52-4.51,3.12-4.61,17.1-5.01,22.55-5.49,74.97,6.72,128.7,13.36,198.78,14.91,157.31,27.02,315.83,41.76,473.57l-2.51,7.52c-9.8,1.97-21.71-1.94-30.9-1.67-15.2-82.44-25.99-165.7-41.76-248.06-10.2-53.24-22.23-128.46-36.75-178.74-.38-1.31-2.33-7.97-5.01-5.01,4.36,13.82,5.89,28.39,8.35,42.6-4.3,1.36-3.79,5.94-3.34,9.19,1.45,10.45,7.35,24.92,8.35,31.74.59,3.99-.63,15.8,0,20.05.2,1.34,3.15.33,3.34,1.67,1.84,12.65,3.58,29.77,5.01,40.09,12.5,89.91,20.55,180.6,37.59,269.78l5.85-21.72c1.98,12.8,4.72,25.61,6.68,38.42-15.69.3-31.16-.11-46.77,0l-55.96-387.54,40.93,387.54c-18.29.1-36.82-.06-55.12,0-2.6-9.89-.81-21.42-1.67-30.9-10.83-119.44-29.02-252.74-38.42-378.36-1.73-23.16-7.08-55.12-1.67-76.84,8.83-35.43,68.9-121.32,88.53-162.87,14.49-30.65,26.61-62.61,38.42-94.38,6.65.98,21.96,3.75,27.56,3.34,13.29-.96,174.1-66.24,185.42-75.17,1.32-1.04,9.62-11.44,10.86-13.36,8.68,31.73,24.14,69.67,53.45,86.03-22.39-20.22-38.85-46.52-45.94-76.01,18.73,17.04,49.42,52.18,76.01,45.94-30.08-6-70.35-32.72-78.51-63.48l2.51-2.51c15.38,20.5,58.97,32.53,81.85,25.06-27.36-2.45-65.48-7.27-82.69-30.07,31.14-64.23,59.13-167.32,96.89-223.84-8.51,77.35,38.81,153.42,120.27,160.36Z"/>
            <path class="cls-18" d="M933.65,874.4c1.74-2.7,4.78-11.12,6.68-15.03,17.2,22.8,55.33,27.62,82.69,30.07-22.88,7.48-66.47-4.56-81.85-25.06l-2.51,2.51c8.16,30.76,48.43,57.48,78.51,63.48-26.58,6.24-57.28-28.9-76.01-45.94,7.09,29.49,23.54,55.79,45.94,76.01-29.32-16.35-44.77-54.3-53.45-86.03Z"/>
            <path class="cls-18" d="M944.51,917.83l11.69,73.5c-11.52,5.57-15.24-66.7-11.69-73.5Z"/>
          </g>
          <g>
            <path class="cls-6" d="M26.6,897.79c-16.49,11.41-43.65,8.24-59.3,13.36-.51.17-3.31,2.5-1.67,3.34,4.42-.23,8.96.33,13.36,0,12.56-.95,28.05-8.81,40.93-7.52l-63.48,56.8c24.18-1.28,68.6-40.98,70.16-64.31,2.97,4.05,4.49,10.08,5.01,15.03-10.13,31.39-26.2,56.8-51.78,77.68,20.7-4.34,53.07-55.52,53.45-74.33,31.48,10.66,63.67,20.74,96.05,28.4,29.61,7,75.28,10.15,101.06,18.37,2.72.87,5.31,2.11,8.35,2.51.23,3.58-.33,7.31,0,10.86,3.31,35.5-6.19,133.29-45.94,147-32.87,11.33-156.34-27.09-192.1-41.76-51.73-21.23-69.35-47.75-97.72-94.38l-61.81-162.87c61.88-9.38,128.06-73.85,125.28-138.65l60.14,210.48Z"/>
            <path class="cls-18" d="M26.6,897.79c-.03.56.04,1.12,0,1.67-1.56,23.33-45.98,63.04-70.16,64.31l63.48-56.8c-12.87-1.29-28.36,6.57-40.93,7.52-4.41.33-8.94-.23-13.36,0-1.64-.84,1.16-3.17,1.67-3.34,15.65-5.13,42.81-1.95,59.3-13.36Z"/>
            <path class="cls-18" d="M33.28,917.83c-.38,18.81-32.75,69.99-53.45,74.33,25.58-20.87,41.65-46.29,51.78-77.68.18,1.69,1.7,1.84,1.67,3.34Z"/>
            <path class="cls-18" d="M25.77,944.56c.38,22.77,5.7,51.85-10.02,70.16l10.02-70.16Z"/>
          </g>
          <path class="cls-22" d="M384.08,993c19.29,24.96,39.98,80.45,56.8,111.08,8.04,14.65,17.43,31.68,28.4,44.27-.42,5.55,1.38,11.56-1.67,16.7-2.82-4.01-5.57-7.5-8.35-11.69-33.78-50.82-64.52-108.62-81.02-167.04,1.82-.62,4.71,5.21,5.85,6.68Z"/>
          <path class="cls-22" d="M611.26,966.28c-20.34,65.52-45.25,132.41-86.86,187.09.81-7.94-.85-15.6-1.67-23.39,27.17-36.45,54.17-80.86,71.83-122.78,4.72-11.2,5.61-25.82,10.02-36.75.23-.56,3.98-8.41,6.68-4.18Z"/>
          <g>
            <path class="cls-7" d="M632.97,941.22c17.56,4.61,35.62,8.29,53.45,11.69-45.89,122.97-107.91,241.69-194.61,340.77-92.1-93.04-151.52-218.93-196.28-340.77,17.15-3.85,34.56-9.98,51.78-13.36,21.49,100.44,66.25,205.18,144.49,273.95,76.85-71.65,115.24-172.6,141.15-272.28Z"/>
            <path class="cls-26" d="M295.54,952.91c44.76,121.85,104.18,247.73,196.28,340.77,86.7-99.08,148.71-217.8,194.61-340.77,3.65.7,12.28,4.82,13.36,5.01-38.44,99.1-86.34,205.35-150.34,290.66-1.63,2.17-3.37,4.56-5.01,6.68-15.7,20.25-32.78,40.33-52.62,56.8-7.01-.09-55.75-52.99-62.64-61.81-1.74-2.23-4.17-6.65-6.68-10.02-10.36-13.92-20.76-30.38-30.07-45.1-46.36-73.36-85.37-157.02-113.59-238.87,5.51-1.2,11.29-2.13,16.7-3.34Z"/>
            <path class="cls-26" d="M362.36,937.88c-1.6,3.02,1.59,6.35,1.67,6.68,17.86,75.25,47.69,147.33,95.22,208.81,2.78,4.19,5.53,7.69,8.35,11.69,3.26,4.63,18.8,29.19,24.22,28.4,10.99-13.26,22.14-26.39,32.57-40.09,41.62-54.68,66.52-121.57,86.86-187.09,1.87-6.02,4.17-12.07,5.01-18.37,2.61-.14,1.59-3.08,1.67-5.01.05-1.1-.02-2.23,0-3.34,2.38.81,10.74.54,15.03,1.67-25.91,99.68-64.3,200.63-141.15,272.28-78.24-68.77-123-173.51-144.49-273.95,5.21-1.02,9.89-1.19,15.03-1.67Z"/>
            <path class="cls-6" d="M384.08,993c-1.14-1.47-4.03-7.3-5.85-6.68,16.5,58.42,47.23,116.23,81.02,167.04-47.53-61.47-77.36-133.55-95.22-208.81l20.05,48.44Z"/>
            <path class="cls-30" d="M616.27,947.9c.25-1.89-1.07-4.85,1.67-5.01-.08,1.93.94,4.87-1.67,5.01Z"/>
          </g>
        </g>
        <g>
          <path class="cls-17" d="M554.46,876.07c0,9.62,1.88,19.77,1.67,28.4-.92,37.89-29.61,63.59-60.14,81.85-2.65-2.39-4.79-3.14-5.01-3.34-28.96-26.78-57-32.88-58.47-81.85-.1-3.22,1.37-13.59,1.67-18.37,8.83-3.89,15.07,11.57,22.55,16.7,19.72,13.54,41.23,17.17,63.48,6.68,14.02-6.61,21.43-22.3,34.24-30.07Z"/>
          <path class="cls-14" d="M554.46,864.38v11.69c-12.81,7.77-20.23,23.46-34.24,30.07-22.25,10.49-43.76,6.86-63.48-6.68-7.48-5.13-13.72-20.6-22.55-16.7.42-6.69.92-13.44,1.67-20.05,39.21,24.24,78.4,25.22,118.6,1.67Z"/>
          <path class="cls-17" d="M362.36,707.36c-.77.56-4.33-1.24-3.34,3.34-2.85-4.98-14.9-11.87-20.88-8.35-13.91,8.19,8.41,62.57,29.23,50.11.8,3.27.73,8.01,1.67,11.69-44.63,12.59-74.41-75.62-26.73-83.52,4.27,8.09,17.7,15.58,20.05,26.73Z"/>
          <path class="cls-25" d="M621.28,620.49c.2,1.6-.34,3.47,0,5.01-2.94.04-2.37,4.13-5.01,4.18-12.83.22-48.87-12.18-65.98-14.2-59.02-6.95-125.04-2.91-181.24,16.7.64-3.91,1.88-7.68,1.67-11.69,80.63-28.1,169.79-27.16,250.57,0Z"/>
          <path class="cls-14" d="M359.02,710.7c3.65,6.38,5.93,31.89,8.35,41.76-20.82,12.46-43.15-41.92-29.23-50.11,5.98-3.52,18.03,3.37,20.88,8.35Z"/>
          <g>
            <path class="cls-12" d="M621.28,625.5c5.63,25.64,7.43,53.02,5.01,79.35,6.03-4.6,18.19-16.51,21.72-22.55,42.26-1.03,23.74,71.05-2.51,80.18-6.25,2.17-22.2.81-24.22,2.51-.92.77-3.49,19.55-5.01,23.39-10.62,26.84-36.72,61.31-61.81,76.01-40.2,23.55-79.39,22.57-118.6-1.67-37.06-22.91-56.41-57.76-66.82-98.56-.94-3.68-.87-8.42-1.67-11.69-2.43-9.87-4.71-35.38-8.35-41.76-.99-4.58,2.58-2.78,3.34-3.34,3.05-2.22,4.77-63.43,6.68-75.17,56.2-19.61,122.22-23.65,181.24-16.7,17.11,2.01,53.15,14.42,65.98,14.2,2.64-.05,2.07-4.14,5.01-4.18Z"/>
            <g>
              <path class="cls-9" d="M542.77,792.55c-1.56,1.86-10.97,12.84-11.69,13.36-1.75,1.27-3.05,2.31-5.01,3.34-16.77,8.82-51.2,6.67-66.82-5.01-2.01-1.5-7.67-8.97-10.02-11.69h93.55Z"/>
              <path class="cls-14" d="M642.16,702.35c32.29-6.78,5.58,59.9-16.7,51.78-3.02-1.33.99-48.48,16.7-51.78Z"/>
              <path class="cls-5" d="M435.03,627.18c14.64-.31,27.65-.48,21.72,18.37l-81.02,5.85c15.66-13.42,38.45-23.78,59.3-24.22Z"/>
              <path class="cls-5" d="M545.27,627.18c20.5-2.87,57,9.33,70.99,25.89l-81.02-7.52c-2.42-11.74-2.55-16.62,10.02-18.37Z"/>
              <path class="cls-17" d="M599.56,690.65c-14.59-26.14-52.67-25.31-63.48,3.34-2.79-1.28-3.77,1.18-1.67-5.85,8.47-28.28,60.13-45.64,65.15,2.51Z"/>
              <path class="cls-20" d="M541.1,805.91c-23.8,33.93-64.28,38.22-90.2,2.51,19.32,15.45,43.19,23.71,67.65,14.2,3.71-1.44,18.37-10.42,7.52-13.36,1.96-1.03,3.26-2.07,5.01-3.34h10.02Z"/>
              <path class="cls-12" d="M514.37,747.45c3.88,17.14-37.61,15.1-36.75,0,12.3-10.98,14.85-1.92,15.87-1.67,7.28,1.8,7.43-11.74,20.88,1.67Z"/>
              <path class="cls-14" d="M514.37,747.45c27.71,27.61-65.47,25.64-36.75,0-.86,15.1,40.63,17.14,36.75,0Z"/>
              <path class="cls-3" d="M544.44,787.54c.69,3.06-.19,3.25-1.67,5.01h-93.55c-1.31-1.52-2.84-2.98-3.34-5.01,32.25-1.62,63.13,2.66,98.56,0Z"/>
              <path class="cls-13" d="M541.1,805.91h-10.02c.72-.52,10.14-11.51,11.69-13.36,1.48-1.76,2.36-1.95,1.67-5.01,2.53-.19,9.11-2.64,10.02-.84-3.22,7.31-8.9,12.84-13.36,19.21Z"/>
              <path class="cls-13" d="M445.88,787.54c.5,2.03,2.03,3.49,3.34,5.01,2.35,2.73,8.02,10.19,10.02,11.69-9.95,7.54-23.41-16-19.21-18.37,1.5,2.24,3.57,1.78,5.85,1.67Z"/>
              <g>
                <path class="cls-15" d="M599.56,690.65c.51,4.85,4.08,14.26-1.67,13.36-.81-14.67-12.58-24.95-26.73-24.22,45.62,42.98-50.07,58.83-19.21,2.51-2.33-1.06-13.35,11.11-14.2,13.36-1.93.29-1.56-1.62-1.67-1.67,10.81-28.65,48.89-29.48,63.48-3.34Z"/>
                <path class="cls-9" d="M597.89,704.02c1.27,23.07-73.08,25.78-60.14-8.35.85-2.25,11.87-14.42,14.2-13.36-30.86,56.33,64.83,40.47,19.21-2.51,14.15-.73,25.92,9.56,26.73,24.22Z"/>
                <path class="cls-9" d="M572,687.31c6.2-.72,7.66,10.5,1.67,11.69-7.89,1.57-7.84-10.98-1.67-11.69Z"/>
              </g>
              <g>
                <path class="cls-15" d="M452.56,693.99c-1.31-2.3-14.51-16.94-16.7-12.53,38.44,52.31-59.52,44.55-17.54-2.51-12.3,2.42-22.64,10.75-25.89,23.39-7.09-34.06,55.76-42.82,60.14-8.35Z"/>
                <path class="cls-9" d="M452.56,693.99c2.82,4.95,4.19,10.26,5.01,15.87-2.92,11.58-59.31,20.53-65.15-7.52,3.25-12.63,13.59-20.97,25.89-23.39-41.98,47.06,55.98,54.82,17.54,2.51,2.19-4.41,15.39,10.23,16.7,12.53Z"/>
                <path class="cls-19" d="M419.99,688.98c6.8-1.13,4.24,6.17,1.67,6.68-.85.17-6.46-5.88-1.67-6.68Z"/>
              </g>
            </g>
          </g>
        </g>
      </g>
    </g>
  </g>
  <path class="cls-1" d="M430.14,255.7c-.46.16-.92.33-1.37.5-.07-.1-.13-.21-.18-.31.52-.05,1.04-.11,1.55-.19Z"/>
</svg>