<?xml version="1.0" encoding="UTF-8"?>
<svg id="Layer_1" data-name="Layer 1" xmlns="http://www.w3.org/2000/svg" viewBox="0 0 1090.02 1089.11">
  <defs>
    <style>
      .cls-1 {
        fill: #3752ac;
      }

      .cls-2 {
        stroke-width: 26px;
      }

      .cls-2, .cls-3 {
        fill: none;
      }

      .cls-2, .cls-3, .cls-4 {
        stroke: #fd9a00;
      }

      .cls-2, .cls-4 {
        stroke-miterlimit: 10;
      }

      .cls-5 {
        fill: #372aac;
      }

      .cls-3 {
        stroke-linecap: square;
        stroke-linejoin: bevel;
        stroke-width: 34px;
      }

      .cls-6, .cls-4 {
        fill: #fd9a00;
      }
    </style>
  </defs>
  <path class="cls-5" d="M125.32,671.11h58.39c14.23,0,25.77,11.55,25.77,25.77v351.32h-109.94v-351.32c0-14.23,11.55-25.77,25.77-25.77Z"/>
  <path class="cls-1" d="M312.93,474.86h58.39c14.23,0,25.77,11.55,25.77,25.77v547.58h-109.94V500.63c0-14.23,11.55-25.77,25.77-25.77Z"/>
  <path class="cls-5" d="M501.32,570.35h58.39c14.23,0,25.77,11.55,25.77,25.77v452.08h-109.94v-452.08c0-14.23,11.55-25.77,25.77-25.77Z"/>
  <path class="cls-1" d="M688.93,295.24h58.39c14.23,0,25.77,11.55,25.77,25.77v727.19h-109.94V321.02c0-14.23,11.55-25.77,25.77-25.77Z"/>
  <path class="cls-5" d="M876.53,95.5h58.39c14.23,0,25.77,11.55,25.77,25.77v926.93h-109.94V121.28c0-14.23,11.55-25.77,25.77-25.77Z"/>
  <polyline class="cls-2" points="40.91 81.54 40.91 1048.21 1007.57 1048.21"/>
  <polygon class="cls-4" points="0 87.73 81.82 87.73 40.81 0 0 87.73"/>
  <polygon class="cls-4" points="1001.38 1007.3 1001.38 1089.11 1089.11 1048.11 1001.38 1007.3"/>
  <g>
    <path class="cls-3" d="M154.52,671.11c62.54-63.15,125.07-126.29,187.61-189.44,62.8,35.46,125.59,70.92,188.39,106.37,62.54-91.72,125.07-183.43,187.61-275.15l145.67-166.09"/>
    <path class="cls-6" d="M905.73,98.98c-11.39,29.83-21.63,70.24-21.71,100.78l-25.73-46.68-49.63-19.41c30.27-4.07,69-19.5,97.08-34.69Z"/>
  </g>
</svg>