<?xml version="1.0" encoding="UTF-8"?>
<svg id="Layer_1" data-name="Layer 1" xmlns="http://www.w3.org/2000/svg" viewBox="0 0 228.13 196.08">
  <defs>
    <style>
      .cls-1 {
        fill: #ffcb42;
      }

      .cls-2 {
        fill: #ee9719;
      }

      .cls-3 {
        fill: #969494;
      }

      .cls-4 {
        fill: #fff;
      }

      .cls-5 {
        fill: #e3f0fb;
      }

      .cls-6 {
        fill: #0d1629;
      }

      .cls-7 {
        fill: #d8855d;
      }

      .cls-8 {
        fill: #fdbf93;
      }

      .cls-9 {
        fill: #ffe2cb;
      }

      .cls-10 {
        fill: #efa276;
      }

      .cls-11 {
        fill: #feb726;
      }

      .cls-12 {
        fill: #d5d9dc;
      }

      .cls-13 {
        fill: #c3d5e3;
      }

      .cls-14 {
        fill: #f68087;
      }

      .cls-15 {
        fill: #f35d63;
      }
    </style>
  </defs>
  <g>
    <g>
      <path class="cls-15" d="M223.01,18.08c-1.97,3.69-12.42,7.37-15.84,10.35-.53-1.88-.62-2.84-1.41-4.71-.99-2.35-3.34-6.25-5.02-8.16,2.63-1.39,12.85-8.51,15.22-7.84,1.79.51,5.01,7.73,5.8,9.57.31.71.22,1.23,1.26.78Z"/>
      <path class="cls-14" d="M223.01,18.08c-1.04.45-.95-.08-1.26-.78-.79-1.84-4.01-9.06-5.8-9.57-2.37-.67-12.58,6.45-15.22,7.84-1.45-1.65-3.52-2.8-5.02-4.39,10.9-5.38,19.98-16.12,27.3.16,1.16,2.57,1.36,4.2,0,6.75Z"/>
      <path class="cls-3" d="M187.87,39.41c.65-2.42.08-4.02-.63-6.28-.89-2.85-2.5-5.55-4.71-7.53-1.57-1.4-2.99-2.61-5.33-2.82-.29-.98,2.11-2.46,2.67-2.51,4.31-.42,13.75,13.48,12.08,17.73-.45,1.13-3.63,1.22-4.08,1.41Z"/>
      <path class="cls-3" d="M187.24,16.2c2.04.16,5.14,4.42,6.59,5.8l5.96,11.14c-.52.3-4.34,2.99-4.55,2.82-1.22-6.67-5.61-13.65-11.3-17.57l.16-.63c3.48-.12,10,12.31,10.82,12.24.08,0,1.07-1.03,1.1-1.1.93-2.44-7.15-11.58-10.04-12.39.37-.11.95-.34,1.26-.31Z"/>
      <path class="cls-12" d="M189.12,14.94c5.32,4.3,11.04,10.53,11.61,17.57-.28.17-.45.34-.94.63l-5.96-11.14c-1.44-1.38-4.55-5.64-6.59-5.8.26-.99,1.37-.95,1.88-1.26Z"/>
      <path class="cls-12" d="M184.1,17.77c.11-.18,1.66-1.19,1.88-1.26,2.89.81,10.97,9.95,10.04,12.39-.03.07-1.02,1.09-1.1,1.1-.82.07-7.35-12.36-10.82-12.24Z"/>
      <path class="cls-12" d="M193.2,12.75c5.65,4.16,10.1,10.62,11.3,17.57-.83.88-1.11.52-1.26.63-.4-4.22-7.4-16.84-11.61-17.26-.12-1.31,1.22-.75,1.57-.94Z"/>
      <path class="cls-12" d="M200.73,15.57c1.68,1.91,4.03,5.8,5.02,8.16l-2.82-.94c-1.94-3.92-5.27-8.65-9.41-10.35.65-.34,1.43-.88,2.2-1.26,1.5,1.59,3.57,2.74,5.02,4.39Z"/>
      <path class="cls-12" d="M202.3,31.57s0,.1-.31.31c-2.39-6.76-5.99-13.38-12.24-17.26.07-.03.59-.84,1.26-.94,5.39,4.27,10.55,10.92,11.3,17.88Z"/>
      <path class="cls-3" d="M202.93,22.79c1.15,2.32,2.25,4.43,2.51,7.06-.03.14-.76.28-.94.47-1.19-6.95-5.64-13.41-11.3-17.57.02-.01-.09-.11.31-.31,4.14,1.7,7.47,6.44,9.41,10.35Z"/>
      <path class="cls-3" d="M181.75,19.02c4.62.55,12.46,12.89,12.39,16.79-.02.98-.53,1.11-1.1,1.73-.14-1.22.5-1.36.16-2.98-.45-2.16-4.41-8.54-5.96-10.35-1.66-1.94-3.81-3.3-5.49-5.18Z"/>
      <path class="cls-3" d="M191.63,13.69c4.21.42,11.21,13.04,11.61,17.26-.43.33-.65.42-.94.63-.75-6.96-5.91-13.61-11.3-17.88.19-.03.43-.02.63,0Z"/>
      <path class="cls-3" d="M201.98,31.88c-.43.29-1.01.48-1.26.63-.57-7.04-6.28-13.27-11.61-17.57.19-.11.42-.22.63-.31,6.25,3.88,9.84,10.49,12.24,17.26Z"/>
      <g>
        <path class="cls-1" d="M177.2,22.79c2.34.21,3.77,1.42,5.33,2.82L58.6,94.95c-8.01-.61-7.85,2.05-12.24,6.59-2.55,2.64-14.18,7.46-15.06,9.41-2.36-.42-4.5-.9-4.71-3.77,3.37-2.83,7.43-4.38,10.98-6.9,1.95-.47,5.57-3.04,7.53-4.08,2.43-1.29,8.32-4.21,10.04-5.96,12.09-6.28,23.86-13.16,35.77-19.77.73-.41,1.47-.85,2.2-1.26,11.17-6.2,22.39-12.33,33.57-18.51,16.83-9.31,33.52-18.91,50.51-27.92Z"/>
        <path class="cls-2" d="M187.87,39.41c-15.27,6.39-34.27,18.97-49.26,27.3-9.61,5.34-19.25,10.67-28.87,16-10.76,5.97-21.52,11.98-32.32,17.88-2.03-.77-4.22-1.5-6.28-2.2l116.09-65.26c.7,2.25,1.27,3.85.63,6.28Z"/>
        <path class="cls-9" d="M31.3,110.95c-1.29,2.84,1.45,6.58,4.39,6.9-.16.17-.54.98-.63,1.26l-22.59,8.16c-.46-1.08-1.4-2.55-2.2-3.45,4.88-5.07,11.1-12.26,16.32-16.63.2,2.87,2.35,3.34,4.71,3.77Z"/>
        <path class="cls-2" d="M46.68,108.75c1.25,2.69,3.06,3.74,5.33,5.33-.33,1.41-2.56,2.12-3.77,2.82-.72.42-1.47.84-2.2,1.26-3.18,1.84-6.97,4.35-10.35,5.65-1.2-1.29-1.18-3.06-.63-4.71.09-.27.47-1.08.63-1.26.91-1.02,8.88-4.62,9.1-5.18.3-.76.26-5.6.94-8-.32,1.84.26,2.62.94,4.08Z"/>
        <path class="cls-8" d="M35.07,119.11c-.55,1.64-.57,3.41.63,4.71-6.31,2.43-15.82,4.36-22.59,5.96-.13-.62-.41-2.01-.63-2.51l22.59-8.16Z"/>
        <path class="cls-6" d="M12.48,127.26c.22.5.5,1.89.63,2.51-1.37.32-10.31,2.61-10.67,2.04,2.72-2.56,5.26-5.31,7.84-8,.79.9,1.73,2.38,2.2,3.45Z"/>
        <path class="cls-11" d="M187.24,33.14l-116.09,65.26c-3.44-1.16-9.06-3.18-12.55-3.45L182.53,25.61c2.21,1.98,3.82,4.68,4.71,7.53Z"/>
        <path class="cls-11" d="M45.74,104.67c-.68,2.4-.64,7.24-.94,8-.22.55-8.19,4.16-9.1,5.18-2.95-.33-5.68-4.06-4.39-6.9.88-1.95,12.51-6.78,15.06-9.41.15,1.12-.34,2.11-.63,3.14Z"/>
      </g>
    </g>
    <g>
      <path class="cls-10" d="M67.39,137.62c-1.98-.86-7.84-12.32-7.84-15.06,1.41.32,3.11,0,4.86.63,5.43,1.96,8.36,10.88,2.98,14.43Z"/>
      <g>
        <path class="cls-10" d="M169.04,169.62c-1.99,2.58-4.72,4.53-6.9,6.9-6.02-5.54-13.54-14.25-20.86-17.88-5.33-2.64-12.95-3.55-18.83-5.65-14.11-5.03-24.58-13.34-37.18-20.71-3.73-2.18-8.21-5.03-12.24-5.96-.22-.49-.32-1.46-1.26-.94-.95-1.45-16.72-9.17-19.77-11.3-2.28-1.59-4.08-2.64-5.33-5.33,2.62,2.23,4.66,3.69,7.69,5.33,14.55,7.89,35.95,17.14,51.46,23.53,17.89,7.37,35.24,7.85,50.51,20.08,4.52,3.62,8.42,8.05,12.71,11.92Z"/>
        <path class="cls-10" d="M80.88,140.44c-2.11-1.03-5.95-9.24-6.9-11.61,6.91-.67,13.11,6.16,6.9,11.61Z"/>
        <path class="cls-7" d="M85.27,132.28c2.03,3.05-.36,10.13-4.39,8.16,6.2-5.45.01-12.28-6.9-11.61-.33-.83-.57-1.7-.94-2.51,4.03.93,8.51,3.78,12.24,5.96Z"/>
        <g>
          <path class="cls-8" d="M201.98,136.68c-11.09,10.74-21.64,22.1-32.63,32.94h-.31c-4.29-3.87-8.19-8.3-12.71-11.92-15.28-12.23-32.63-12.71-50.51-20.08-15.51-6.39-36.91-15.65-51.46-23.53-3.03-1.64-5.07-3.11-7.69-5.33-.68-1.46-1.26-2.23-.94-4.08.29-1.03.78-2.01.63-3.14,4.39-4.54,4.23-7.2,12.24-6.59,3.49.27,9.11,2.29,12.55,3.45,2.06.69,4.25,1.43,6.28,2.2s5.57,3.35,7.22,3.14c5.24,3.9,12.56,7.02,19.14,7.84-.79.63,1.32.93,1.41.94,5.82.56,13.3.12,17.41-4.55,6.64-7.54-.34-20.82-3.14-28.87l19.77-11.45c21.92,22.15,38.51,49.17,62.75,69.03Z"/>
          <path class="cls-9" d="M51.23,97.77c3.03-.67,13.32,1.95,14.59,4.86.91,2.1-1.66,10.58-3.61,11.45-3.77,1.68-14.31-2.76-15.22-7.06-.58-2.72,1.14-8.57,4.24-9.26Z"/>
        </g>
      </g>
      <g>
        <path class="cls-8" d="M126.68,50.71c-11.18,6.18-22.4,12.31-33.57,18.51-5.88-.39-16.6-2.19-22.12-.63-4.05,1.15-16.31,15.17-20.39,18.83-5.41,4.84-14.63,14.05-22.12,9.41-.23-.99.39-1.47.63-2.2,5.28,1.81,13.69-9,8.47-13.18,4.59-6.8,23.71-34.16,29.96-36.71,5.88-2.4,47.53.83,54.59,3.14,1.49.49,3.43,1.69,4.55,2.82Z"/>
        <path class="cls-10" d="M139.23,67.65l-19.77,11.45c2.8,8.05,9.78,21.32,3.14,28.87-4.11,4.67-11.6,5.11-17.41,4.55-.09,0-2.21-.31-1.41-.94,1.93.24,5.32.95,6.9-.31,3.79,1.19,10.6-3.8,11.61-7.69,1.87-7.24-9.37-14.9-12.55-20.86,9.62-5.33,19.25-10.66,28.87-16,.15.28.42.73.63.94Z"/>
        <path class="cls-10" d="M93.11,69.22c-.73.4-1.46.85-2.2,1.26-12.98-1.67-19.33-1.55-27.92,8.47l-17.88,17.26c-1.96,1.04-5.58,3.61-7.53,4.08-2.57.61-8.47-.72-9.1-3.45,7.49,4.64,16.71-4.57,22.12-9.41,4.08-3.65,16.35-17.68,20.39-18.83,5.52-1.56,16.24.24,22.12.63Z"/>
        <path class="cls-7" d="M71.78,125.38c.85,1.3,1.92,7.7,1.57,9.26-.53,2.37-3.72,3.95-5.96,2.98,5.38-3.55,2.45-12.47-2.98-14.43-1.75-.63-3.45-.31-4.86-.63-.59-.13,0-1.32-.94-.78.66,2.98,1.27,7.78-.63,10.35-1.43,1.93-5.14,3.07-6.9,1.73,8.16-3.51,4.4-14.65-2.82-16.94,1.21-.71,3.43-1.41,3.77-2.82,3.05,2.13,18.82,9.85,19.77,11.3Z"/>
        <path class="cls-10" d="M51.07,133.85c-2.25-1.72-3.48-12.84-5.02-15.69.73-.42,1.47-.83,2.2-1.26,7.23,2.3,10.98,13.43,2.82,16.94Z"/>
        <path class="cls-9" d="M29.11,94.63c1.36-4.06,5.99-9.5,8.47-13.18,5.22,4.18-3.19,14.99-8.47,13.18Z"/>
        <path class="cls-7" d="M110.68,111.26c-1.82-.57-7.5-5.57-9.88-6.9-3.17-1.76-6.69-3.89-10.35-3.14-1.7.35-4.22,2.3-5.8,2.51s-5.27-2.4-7.22-3.14c10.8-5.9,21.55-11.92,32.32-17.88,3.18,5.96,14.42,13.62,12.55,20.86-1,3.89-7.82,8.87-11.61,7.69Z"/>
        <path class="cls-4" d="M110.68,111.26c-1.58,1.27-4.97.56-6.9.31-6.58-.83-13.9-3.94-19.14-7.84,1.59-.21,4.1-2.16,5.8-2.51,3.66-.75,7.19,1.38,10.35,3.14,2.39,1.33,8.06,6.33,9.88,6.9Z"/>
        <path class="cls-7" d="M90.92,70.48c-11.91,6.6-23.68,13.48-35.77,19.77,2.41-2.46,5.23-8.24,7.84-11.3,8.59-10.02,14.94-10.14,27.92-8.47Z"/>
        <path class="cls-4" d="M62.99,78.95c-2.62,3.05-5.43,8.83-7.84,11.3-1.72,1.75-7.61,4.67-10.04,5.96l17.88-17.26Z"/>
      </g>
    </g>
  </g>
  <g>
    <path class="cls-5" d="M216.42,142.95c-12.69,11.38-24.54,25.28-37.02,37.02h-.31l-9.73-10.35c10.99-10.84,21.54-22.21,32.63-32.94.61-.59,3.65-4.02,3.92-4.08,1.97-.43,8.21,9.08,10.51,10.35Z"/>
    <path class="cls-13" d="M179.08,179.97c-3.83,3.78-7.86,7.44-11.61,11.3-1.53-1.63-9.71-8.66-9.41-10.2.06-.3,3.51-3.93,4.08-4.55,2.18-2.37,4.92-4.32,6.9-6.9h.31l9.73,10.35Z"/>
  </g>
</svg>