<?xml version="1.0" encoding="UTF-8"?>
<svg id="Layer_1" data-name="Layer 1" xmlns="http://www.w3.org/2000/svg" viewBox="0 0 523.9 1080">
  <defs>
    <style>
      .cls-1, .cls-2 {
        fill: #fff;
      }

      .cls-3 {
        font-family: NotoSans-Bold, 'Noto Sans';
        font-size: 77.52px;
        font-weight: 700;
      }

      .cls-4 {
        fill: none;
      }

      .cls-4, .cls-2 {
        stroke: #000;
        stroke-miterlimit: 10;
        stroke-width: 6px;
      }

      .cls-5 {
        letter-spacing: -.02em;
      }
    </style>
  </defs>
  <g>
    <rect class="cls-1" x=".5" y=".5" width="522.9" height="359"/>
    <path d="M522.9,1v358H1V1h521.9M523.9,0H0v360h523.9V0h0Z"/>
  </g>
  <g>
    <rect class="cls-1" x=".5" y="360.5" width="522.9" height="359"/>
    <path d="M522.9,361v358H1v-358h521.9M523.9,360H0v360h523.9v-360h0Z"/>
  </g>
  <g>
    <rect class="cls-1" x=".5" y="720.5" width="522.9" height="359"/>
    <path d="M522.9,721v358H1v-358h521.9M523.9,720H0v360h523.9v-360h0Z"/>
  </g>
  <text class="cls-3" transform="translate(15.86 59.5)"><tspan x="0" y="0">P</tspan><tspan class="cls-5" x="48.68" y="0">r</tspan><tspan x="82.33" y="0">egunta 1: </tspan></text>
  <g>
    <path d="M45.55,134.99l-2.93-9.58h-14.65l-2.93,9.58h-9.18l14.2-40.39h10.42l14.25,40.39h-9.18ZM37.67,108.9c-.19-.64-.43-1.45-.73-2.42-.3-.98-.6-1.97-.9-2.99-.3-1.01-.54-1.9-.73-2.65-.19.75-.44,1.68-.76,2.79-.32,1.11-.62,2.16-.9,3.16-.28,1-.5,1.7-.65,2.11l-2.87,9.35h10.48l-2.93-9.35Z"/>
    <path d="M57.95,131.04c0-1.73.47-2.94,1.41-3.63.94-.69,2.08-1.04,3.44-1.04s2.44.35,3.38,1.04c.94.7,1.41,1.91,1.41,3.63s-.47,2.85-1.41,3.58c-.94.73-2.07,1.1-3.38,1.1s-2.5-.37-3.44-1.1c-.94-.73-1.41-1.92-1.41-3.58Z"/>
    <path d="M33.44,162.37c5.37,0,9.43.75,12.17,2.25,2.74,1.5,4.11,4.15,4.11,7.94,0,1.5-.24,2.87-.73,4.11-.49,1.24-1.19,2.25-2.11,3.04-.92.79-2.04,1.3-3.35,1.52v.28c1.35.26,2.57.73,3.66,1.41,1.09.68,1.95,1.65,2.59,2.93.64,1.28.96,2.97.96,5.07,0,2.44-.59,4.54-1.77,6.28-1.18,1.75-2.88,3.08-5.1,4-2.22.92-4.84,1.38-7.89,1.38h-15.04v-40.23h12.51ZM34.4,178.31c2.48,0,4.2-.39,5.15-1.18.96-.79,1.44-1.93,1.44-3.44s-.56-2.65-1.69-3.32c-1.13-.68-2.91-1.01-5.35-1.01h-4.51v8.96h4.96ZM29.44,185.07v10.48h5.58c2.55,0,4.34-.5,5.35-1.49,1.01-.99,1.52-2.32,1.52-3.97,0-1.01-.22-1.9-.65-2.65-.43-.75-1.17-1.33-2.23-1.75-1.05-.41-2.48-.62-4.28-.62h-5.3Z"/>
    <path d="M56.37,198.65c0-1.73.47-2.94,1.41-3.63.94-.69,2.08-1.04,3.44-1.04s2.44.35,3.38,1.04c.94.7,1.41,1.91,1.41,3.63s-.47,2.85-1.41,3.58c-.94.73-2.07,1.1-3.38,1.1s-2.5-.37-3.44-1.1c-.94-.73-1.41-1.92-1.41-3.58Z"/>
    <path d="M38.01,236.51c-1.62,0-3.05.32-4.31.96-1.26.64-2.32,1.55-3.18,2.73-.86,1.18-1.51,2.62-1.94,4.31-.43,1.69-.65,3.59-.65,5.69,0,2.85.35,5.29,1.04,7.3.69,2.01,1.79,3.54,3.3,4.59,1.5,1.05,3.42,1.58,5.75,1.58,1.65,0,3.3-.19,4.93-.56,1.63-.38,3.41-.9,5.32-1.58v7.15c-1.77.71-3.51,1.24-5.24,1.58-1.73.34-3.66.51-5.8.51-4.13,0-7.54-.85-10.23-2.56-2.69-1.71-4.67-4.11-5.94-7.21-1.28-3.1-1.92-6.71-1.92-10.84,0-3.04.41-5.83,1.24-8.37.83-2.54,2.04-4.72,3.63-6.56,1.6-1.84,3.57-3.27,5.92-4.28,2.35-1.01,5.04-1.52,8.08-1.52,1.99,0,3.99.25,6,.76,2.01.51,3.93,1.19,5.77,2.06l-2.76,6.93c-1.5-.71-3.01-1.33-4.54-1.86-1.52-.53-3.01-.79-4.48-.79Z"/>
    <path d="M54.96,266.25c0-1.73.47-2.94,1.41-3.63.94-.69,2.08-1.04,3.44-1.04s2.44.35,3.38,1.04c.94.7,1.41,1.91,1.41,3.63s-.47,2.85-1.41,3.58c-.94.73-2.07,1.1-3.38,1.1s-2.5-.37-3.44-1.1c-.94-.73-1.41-1.92-1.41-3.58Z"/>
    <path d="M54.29,317.3c0,4.51-.86,8.28-2.59,11.32-1.73,3.04-4.23,5.33-7.52,6.87-3.29,1.54-7.24,2.31-11.86,2.31h-11.38v-40.23h12.62c4.21,0,7.86.75,10.96,2.25,3.1,1.5,5.5,3.71,7.21,6.62,1.71,2.91,2.56,6.53,2.56,10.85ZM45.44,317.52c0-2.97-.43-5.41-1.3-7.32-.86-1.92-2.15-3.33-3.86-4.25-1.71-.92-3.8-1.38-6.28-1.38h-4.56v26.2h3.66c4.17,0,7.27-1.11,9.3-3.32,2.03-2.22,3.04-5.52,3.04-9.92Z"/>
    <path d="M58.51,333.86c0-1.73.47-2.94,1.41-3.63.94-.69,2.08-1.04,3.44-1.04s2.44.35,3.38,1.04c.94.7,1.41,1.91,1.41,3.63s-.47,2.85-1.41,3.58c-.94.73-2.07,1.1-3.38,1.1s-2.5-.37-3.44-1.1c-.94-.73-1.41-1.92-1.41-3.58Z"/>
  </g>
  <circle class="cls-4" cx="113.46" cy="110.68" r="27.61"/>
  <circle class="cls-4" cx="113.46" cy="180" r="27.61"/>
  <circle class="cls-2" cx="113.46" cy="249.15" r="27.61"/>
  <circle class="cls-4" cx="113.46" cy="318.38" r="27.61"/>
  <text class="cls-3" transform="translate(15.86 424.18)"><tspan x="0" y="0">P</tspan><tspan class="cls-5" x="48.68" y="0">r</tspan><tspan x="82.33" y="0">egunta 2: </tspan></text>
  <g>
    <path d="M45.55,499.67l-2.93-9.58h-14.65l-2.93,9.58h-9.18l14.2-40.39h10.42l14.25,40.39h-9.18ZM37.67,473.59c-.19-.64-.43-1.45-.73-2.42-.3-.98-.6-1.97-.9-2.99-.3-1.01-.54-1.9-.73-2.65-.19.75-.44,1.68-.76,2.79-.32,1.11-.62,2.16-.9,3.16-.28,1-.5,1.7-.65,2.11l-2.87,9.35h10.48l-2.93-9.35Z"/>
    <path d="M57.95,495.73c0-1.73.47-2.94,1.41-3.63.94-.69,2.08-1.04,3.44-1.04s2.44.35,3.38,1.04c.94.7,1.41,1.91,1.41,3.63s-.47,2.85-1.41,3.58c-.94.73-2.07,1.1-3.38,1.1s-2.5-.37-3.44-1.1c-.94-.73-1.41-1.92-1.41-3.58Z"/>
    <path d="M33.44,527.05c5.37,0,9.43.75,12.17,2.25,2.74,1.5,4.11,4.15,4.11,7.94,0,1.5-.24,2.87-.73,4.11-.49,1.24-1.19,2.25-2.11,3.04-.92.79-2.04,1.3-3.35,1.52v.28c1.35.26,2.57.73,3.66,1.41,1.09.68,1.95,1.65,2.59,2.93.64,1.28.96,2.97.96,5.07,0,2.44-.59,4.54-1.77,6.28s-2.88,3.08-5.1,4c-2.22.92-4.84,1.38-7.89,1.38h-15.04v-40.23h12.51ZM34.4,543c2.48,0,4.2-.39,5.15-1.18.96-.79,1.44-1.93,1.44-3.44s-.56-2.65-1.69-3.32c-1.13-.68-2.91-1.01-5.35-1.01h-4.51v8.96h4.96ZM29.44,549.76v10.48h5.58c2.55,0,4.34-.5,5.35-1.49,1.01-.99,1.52-2.32,1.52-3.97,0-1.01-.22-1.9-.65-2.65-.43-.75-1.17-1.33-2.23-1.75-1.05-.41-2.48-.62-4.28-.62h-5.3Z"/>
    <path d="M56.37,563.34c0-1.73.47-2.94,1.41-3.63.94-.69,2.08-1.04,3.44-1.04s2.44.35,3.38,1.04c.94.7,1.41,1.91,1.41,3.63s-.47,2.84-1.41,3.58c-.94.73-2.07,1.1-3.38,1.1s-2.5-.37-3.44-1.1c-.94-.73-1.41-1.92-1.41-3.58Z"/>
    <path d="M38.01,601.19c-1.62,0-3.05.32-4.31.96-1.26.64-2.32,1.55-3.18,2.73-.86,1.18-1.51,2.62-1.94,4.31-.43,1.69-.65,3.59-.65,5.69,0,2.85.35,5.29,1.04,7.3.69,2.01,1.79,3.54,3.3,4.59,1.5,1.05,3.42,1.58,5.75,1.58,1.65,0,3.3-.19,4.93-.56,1.63-.38,3.41-.9,5.32-1.58v7.15c-1.77.71-3.51,1.24-5.24,1.58-1.73.34-3.66.51-5.8.51-4.13,0-7.54-.85-10.23-2.56-2.69-1.71-4.67-4.11-5.94-7.21-1.28-3.1-1.92-6.71-1.92-10.84,0-3.04.41-5.83,1.24-8.37.83-2.54,2.04-4.72,3.63-6.56,1.6-1.84,3.57-3.27,5.92-4.28,2.35-1.01,5.04-1.52,8.08-1.52,1.99,0,3.99.25,6,.76,2.01.51,3.93,1.19,5.77,2.06l-2.76,6.93c-1.5-.71-3.01-1.33-4.54-1.86-1.52-.53-3.01-.79-4.48-.79Z"/>
    <path d="M54.96,630.94c0-1.73.47-2.94,1.41-3.63.94-.69,2.08-1.04,3.44-1.04s2.44.35,3.38,1.04c.94.7,1.41,1.91,1.41,3.63s-.47,2.85-1.41,3.58c-.94.73-2.07,1.1-3.38,1.1s-2.5-.37-3.44-1.1c-.94-.73-1.41-1.92-1.41-3.58Z"/>
    <path d="M54.29,681.98c0,4.51-.86,8.28-2.59,11.32-1.73,3.04-4.23,5.33-7.52,6.87-3.29,1.54-7.24,2.31-11.86,2.31h-11.38v-40.22h12.62c4.21,0,7.86.75,10.96,2.25,3.1,1.5,5.5,3.71,7.21,6.62,1.71,2.91,2.56,6.53,2.56,10.84ZM45.44,682.21c0-2.97-.43-5.41-1.3-7.32-.86-1.92-2.15-3.33-3.86-4.25-1.71-.92-3.8-1.38-6.28-1.38h-4.56v26.2h3.66c4.17,0,7.27-1.11,9.3-3.32,2.03-2.21,3.04-5.52,3.04-9.92Z"/>
    <path d="M58.51,698.55c0-1.73.47-2.94,1.41-3.63.94-.69,2.08-1.04,3.44-1.04s2.44.35,3.38,1.04c.94.7,1.41,1.91,1.41,3.63s-.47,2.84-1.41,3.58c-.94.73-2.07,1.1-3.38,1.1s-2.5-.37-3.44-1.1c-.94-.73-1.41-1.92-1.41-3.58Z"/>
  </g>
  <circle class="cls-4" cx="113.46" cy="475.37" r="27.61"/>
  <circle class="cls-4" cx="113.46" cy="544.69" r="27.61"/>
  <circle class="cls-4" cx="113.46" cy="683.07" r="27.61"/>
  <text class="cls-3" transform="translate(15.86 785.76)"><tspan x="0" y="0">P</tspan><tspan class="cls-5" x="48.68" y="0">r</tspan><tspan x="82.33" y="0">egunta 3: </tspan></text>
  <g>
    <path d="M45.55,861.25l-2.93-9.58h-14.65l-2.93,9.58h-9.18l14.2-40.39h10.42l14.25,40.39h-9.18ZM37.67,835.17c-.19-.64-.43-1.45-.73-2.42-.3-.98-.6-1.97-.9-2.99-.3-1.01-.54-1.9-.73-2.65-.19.75-.44,1.68-.76,2.79-.32,1.11-.62,2.16-.9,3.16s-.5,1.7-.65,2.11l-2.87,9.35h10.48l-2.93-9.35Z"/>
    <path d="M57.95,857.31c0-1.73.47-2.94,1.41-3.63.94-.69,2.08-1.04,3.44-1.04s2.44.35,3.38,1.04c.94.7,1.41,1.91,1.41,3.63s-.47,2.84-1.41,3.58c-.94.73-2.07,1.1-3.38,1.1s-2.5-.37-3.44-1.1c-.94-.73-1.41-1.92-1.41-3.58Z"/>
    <path d="M33.44,888.63c5.37,0,9.43.75,12.17,2.25,2.74,1.5,4.11,4.15,4.11,7.94,0,1.5-.24,2.87-.73,4.11-.49,1.24-1.19,2.25-2.11,3.04-.92.79-2.04,1.3-3.35,1.52v.28c1.35.26,2.57.73,3.66,1.41,1.09.68,1.95,1.65,2.59,2.93.64,1.28.96,2.97.96,5.07,0,2.44-.59,4.54-1.77,6.28-1.18,1.75-2.88,3.08-5.1,4-2.22.92-4.84,1.38-7.89,1.38h-15.04v-40.23h12.51ZM34.4,904.58c2.48,0,4.2-.39,5.15-1.18s1.44-1.93,1.44-3.44-.56-2.65-1.69-3.32c-1.13-.68-2.91-1.01-5.35-1.01h-4.51v8.96h4.96ZM29.44,911.34v10.48h5.58c2.55,0,4.34-.5,5.35-1.49s1.52-2.32,1.52-3.97c0-1.01-.22-1.9-.65-2.65-.43-.75-1.17-1.33-2.23-1.75-1.05-.41-2.48-.62-4.28-.62h-5.3Z"/>
    <path d="M56.37,924.91c0-1.73.47-2.94,1.41-3.63.94-.69,2.08-1.04,3.44-1.04s2.44.35,3.38,1.04c.94.7,1.41,1.91,1.41,3.63s-.47,2.85-1.41,3.58c-.94.73-2.07,1.1-3.38,1.1s-2.5-.37-3.44-1.1c-.94-.73-1.41-1.92-1.41-3.58Z"/>
    <path d="M38.01,962.77c-1.62,0-3.05.32-4.31.96-1.26.64-2.32,1.55-3.18,2.73-.86,1.18-1.51,2.62-1.94,4.31-.43,1.69-.65,3.59-.65,5.69,0,2.86.35,5.29,1.04,7.3.69,2.01,1.79,3.54,3.3,4.59,1.5,1.05,3.42,1.58,5.75,1.58,1.65,0,3.3-.19,4.93-.56,1.63-.38,3.41-.9,5.32-1.58v7.16c-1.77.71-3.51,1.24-5.24,1.58-1.73.34-3.66.51-5.8.51-4.13,0-7.54-.85-10.23-2.56-2.69-1.71-4.67-4.11-5.94-7.21-1.28-3.1-1.92-6.71-1.92-10.84,0-3.04.41-5.83,1.24-8.37.83-2.54,2.04-4.72,3.63-6.56,1.6-1.84,3.57-3.27,5.92-4.28,2.35-1.01,5.04-1.52,8.08-1.52,1.99,0,3.99.25,6,.76,2.01.51,3.93,1.19,5.77,2.06l-2.76,6.93c-1.5-.71-3.01-1.33-4.54-1.86-1.52-.53-3.01-.79-4.48-.79Z"/>
    <path d="M54.96,992.52c0-1.73.47-2.94,1.41-3.63.94-.69,2.08-1.04,3.44-1.04s2.44.35,3.38,1.04c.94.7,1.41,1.91,1.41,3.63s-.47,2.84-1.41,3.58c-.94.73-2.07,1.1-3.38,1.1s-2.5-.37-3.44-1.1c-.94-.73-1.41-1.92-1.41-3.58Z"/>
    <path d="M54.29,1043.56c0,4.51-.86,8.28-2.59,11.32-1.73,3.04-4.23,5.33-7.52,6.87-3.29,1.54-7.24,2.31-11.86,2.31h-11.38v-40.23h12.62c4.21,0,7.86.75,10.96,2.25,3.1,1.5,5.5,3.71,7.21,6.62,1.71,2.91,2.56,6.53,2.56,10.85ZM45.44,1043.79c0-2.97-.43-5.41-1.3-7.32-.86-1.92-2.15-3.33-3.86-4.25-1.71-.92-3.8-1.38-6.28-1.38h-4.56v26.2h3.66c4.17,0,7.27-1.11,9.3-3.32,2.03-2.22,3.04-5.52,3.04-9.92Z"/>
    <path d="M58.51,1060.12c0-1.73.47-2.94,1.41-3.63.94-.69,2.08-1.04,3.44-1.04s2.44.35,3.38,1.04c.94.7,1.41,1.91,1.41,3.63s-.47,2.85-1.41,3.58c-.94.73-2.07,1.1-3.38,1.1s-2.5-.37-3.44-1.1c-.94-.73-1.41-1.92-1.41-3.58Z"/>
  </g>
  <circle class="cls-4" cx="113.46" cy="613.84" r="27.61"/>
  <circle class="cls-4" cx="113.46" cy="836.95" r="27.61"/>
  <circle class="cls-4" cx="113.46" cy="906.26" r="27.61"/>
  <circle class="cls-2" cx="113.46" cy="975.41" r="27.61"/>
  <circle class="cls-4" cx="113.46" cy="1044.65" r="27.61"/>
</svg>