<?xml version="1.0" encoding="UTF-8"?>
<svg id="Layer_1" data-name="Layer 1" xmlns="http://www.w3.org/2000/svg" xmlns:xlink="http://www.w3.org/1999/xlink" viewBox="0 0 643.23 148.65">
  <defs>
    <style>
      .cls-1 {
        fill: #bd6d58;
      }

      .cls-2 {
        fill: #372aac;
        font-family: NotoSans-Italic, 'Noto Sans';
        font-size: 52.06px;
        font-style: italic;
      }

      .cls-3 {
        fill: none;
      }

      .cls-4 {
        fill: #febfa0;
      }

      .cls-5 {
        clip-path: url(#clippath-1);
      }

      .cls-6 {
        fill: #fff;
        stroke: #372aac;
        stroke-miterlimit: 10;
        stroke-width: 5px;
      }

      .cls-7 {
        fill: #fbcba2;
      }

      .cls-8 {
        fill: #ffefdb;
      }

      .cls-9 {
        letter-spacing: -.02em;
      }
    </style>
    <clipPath id="clippath">
      <ellipse class="cls-3" cx="-549.78" cy="530.55" rx="327.32" ry="305.01"/>
    </clipPath>
    <clipPath id="clippath-1">
      <ellipse class="cls-3" cx="1260.91" cy="326.24" rx="327.32" ry="305.01"/>
    </clipPath>
  </defs>
  <g class="cls-5">
    <g>
      <g>
        <path class="cls-8" d="M762.77,115.32l-160.36,135.31c-2.64-16.54-29.09-44.06-46.77-41.76-1.8.23-2.49,2.49-5.01,1.67,10.99-13.17,45.85-28.51,58.47-43.43-9.98,22.22,53.44,41.82,51.78,11.69.9-.07,7.63-4.21,6.68-6.68,29.95-5.8,21.29-21.66,27.56-25.06,2.86-1.55,8.68,2.49,12.53-2.51,3.72-4.82-.1-22.09,1.67-26.73,2.13-5.55,23.01-9.43,3.34-29.23,4.04.01,18.15-6.63,20.88-6.68,14.62-.25,25.25,21.69,29.23,33.41Z"/>
        <path class="cls-7" d="M766.11,135.37c-9.8,3.06-15.72,12.3-23.39,18.37-.5.4-2.84,1.27-3.34,1.67-14.59,11.62-118.58,97.41-120.27,105.24l-18.37,10.02c1.95-4.69,2.46-15.12,1.67-20.05l160.36-135.31c3.41,10.04,4.25,9.32,3.34,20.05Z"/>
      </g>
      <g>
        <path class="cls-4" d="M712.66,88.6c19.67,19.8-1.21,23.68-3.34,29.23-1.78,4.64,2.05,21.9-1.67,26.73-3.85,4.99-9.67.96-12.53,2.51-6.27,3.4,2.38,19.25-27.56,25.06-4.74.92-5.1,4.02-10.86,3.34-7.04-.83-28.57-16.43-38.42-16.7,5.03,5.86,37.02,20.5,42.6,20.05,1.66,30.12-61.76,10.52-51.78-11.69,8.53-10.09,16-24.93,26.73-38.42,4.41,1.96,37.4,37.5,40.09,32.57-11.06-12.42-24.5-26.24-40.09-32.57,4.12-5.18,4.67-10.63,12.53-18.37,2.33-2.3,9.66-4.53,12.53-6.68l32.57,40.09c5.52-9.38-30.69-41.95-32.57-40.09,3.27-2.46,8.68-11.38,12.53-13.36,7.92-4.09,18.12-1.24,25.89-6.68,2.19,1.73,10.64,5,13.36,5.01Z"/>
        <path class="cls-1" d="M635.82,128.69c15.59,6.33,29.03,20.15,40.09,32.57-2.7,4.93-35.68-30.61-40.09-32.57Z"/>
      </g>
    </g>
  </g>
  <path class="cls-6" d="M637.73,83.7c0,14.76-15.25,26.72-34.04,26.72-4.51,0-8.81-.69-12.75-1.94-3.57,11.76-17.04,20.51-33.1,20.51-10.51,0-19.91-3.75-26.16-9.63-3.96,8.2-11.57,13.74-20.31,13.74-3.87,0-7.52-1.08-10.73-3.01-5.75,8.39-17.03,14.09-30,14.09-14.41,0-26.73-7.03-31.7-16.97-5.73,3.44-12.89,5.48-20.66,5.48-7.25,0-13.97-1.78-19.48-4.81-9.22,5.73-22.93,9.38-38.25,9.38-14.09,0-26.83-3.08-35.95-8.04-6.24,6.15-15.85,10.1-26.65,10.1-11.97,0-22.5-4.86-28.56-12.19-4.15,7.34-11.34,12.19-19.52,12.19s-15.47-4.92-19.58-12.34c-9.13,6.74-24.02,11.12-40.84,11.12-15.95,0-30.16-3.95-39.37-10.1-4.25,6.16-10.82,10.1-18.2,10.1-8.74,0-16.36-5.54-20.32-13.73-6.25,5.88-15.65,9.63-26.16,9.63-16.07,0-29.54-8.75-33.1-20.51-3.94,1.25-8.24,1.94-12.75,1.94-18.8,0-34.03-11.96-34.03-26.72s15.24-26.73,34.03-26.73c4.19,0,8.19.59,11.89,1.68-7.28-4.9-11.89-12.17-11.89-20.29,0-14.76,15.24-26.73,34.04-26.73,7.24,0,13.97,1.78,19.48,4.82,9.22-5.74,22.93-9.38,38.25-9.38,14.09,0,26.83,3.08,35.95,8.04,6.24-6.15,15.85-10.1,26.65-10.1,11.98,0,22.51,4.86,28.57,12.2,4.13-7.34,11.33-12.2,19.51-12.2,7.18,0,13.6,3.74,17.87,9.63,6.18-6.79,16.29-11.22,27.73-11.22s21.68,4.49,27.85,11.35c4.89-7.08,13.14-11.74,22.51-11.74,8.26,0,15.67,3.62,20.66,9.35,6.08-7.28,16.56-12.08,28.48-12.08,9.55,0,18.19,3.09,24.36,8.07,8.75-3.93,20.06-6.29,32.4-6.29,13.13,0,25.08,2.67,34.03,7.05,8.94-4.39,20.89-7.05,34.02-7.05,15.32,0,29.03,3.64,38.26,9.38,5.52-3.04,12.23-4.81,19.48-4.81,18.8,0,34.03,11.96,34.03,26.73,0,8.12-4.61,15.39-11.89,20.29,3.7-1.09,7.7-1.68,11.89-1.68,18.8,0,34.04,11.96,34.04,26.73Z"/>
  <text class="cls-2" transform="translate(68.31 59.36)"><tspan x="0" y="0">“La historia la escriben </tspan><tspan x="0" y="62.47">los vencedo</tspan><tspan class="cls-9" x="268.2" y="62.47">r</tspan><tspan x="287.88" y="62.47">es”.</tspan></text>
</svg>