<?xml version="1.0" encoding="UTF-8"?>
<svg id="Layer_1" data-name="Layer 1" xmlns="http://www.w3.org/2000/svg" viewBox="0 0 273.87 88.94">
  <path d="M1.12,17.11c0-1.38.22-2.49.67-3.33.44-.84,1.06-1.45,1.84-1.82s1.65-.55,2.6-.55,1.81.18,2.58.55,1.38.97,1.84,1.82.69,1.96.69,3.33-.23,2.45-.69,3.29-1.07,1.46-1.84,1.84c-.77.38-1.63.58-2.58.58s-1.82-.19-2.6-.58c-.78-.38-1.4-1-1.84-1.84-.45-.84-.67-1.94-.67-3.29Z"/>
  <path d="M38.39,33.9h-18.35V1.06h18.35v3.63h-14.21v10.26h13.39v3.59h-13.39v11.73h14.21v3.63Z"/>
  <path d="M50.91,21.3l-8.51-12.05h4.6l6.35,9.29,6.3-9.29h4.55l-8.51,12.05,8.97,12.6h-4.6l-6.72-9.84-6.81,9.84h-4.55l8.92-12.6Z"/>
  <path d="M81.13,8.79c3.04,0,5.48,1.06,7.34,3.17,1.85,2.12,2.78,5.31,2.78,9.57,0,2.79-.42,5.14-1.26,7.06-.84,1.92-2.02,3.36-3.54,4.32-1.52.97-3.3,1.45-5.36,1.45-1.26,0-2.38-.17-3.36-.51-.98-.34-1.82-.77-2.51-1.31-.69-.54-1.28-1.13-1.77-1.77h-.28c.06.52.12,1.18.18,1.98.06.8.09,1.49.09,2.07v10.12h-4.05V9.25h3.31l.55,3.36h.18c.49-.71,1.08-1.35,1.77-1.93.69-.58,1.52-1.04,2.48-1.38.97-.34,2.11-.51,3.43-.51ZM80.39,12.19c-1.66,0-2.99.31-4,.94-1.01.63-1.75,1.57-2.21,2.83-.46,1.26-.71,2.85-.74,4.78v.78c0,2.02.21,3.74.64,5.15.43,1.41,1.16,2.48,2.18,3.22,1.03.74,2.43,1.1,4.21,1.1,1.5,0,2.74-.41,3.7-1.24.97-.83,1.69-1.96,2.16-3.38.47-1.43.71-3.06.71-4.9,0-2.82-.54-5.08-1.63-6.76-1.09-1.69-2.77-2.53-5.04-2.53Z"/>
  <path d="M109.19,8.79c.46,0,.96.02,1.49.07.54.05,1,.11,1.4.21l-.51,3.73c-.4-.09-.84-.17-1.31-.23-.48-.06-.93-.09-1.36-.09-.95,0-1.86.2-2.71.6-.86.4-1.63.96-2.3,1.68-.67.72-1.2,1.59-1.59,2.6-.38,1.01-.58,2.15-.58,3.4v13.16h-4.05V9.25h3.31l.46,4.51h.18c.52-.92,1.15-1.75,1.89-2.51.74-.75,1.58-1.35,2.53-1.79.95-.44,1.99-.67,3.13-.67Z"/>
  <path d="M125.29,8.79c2.12,0,3.93.46,5.45,1.38s2.68,2.22,3.5,3.89c.81,1.67,1.22,3.63,1.22,5.87v2.44h-16.88c.06,2.79.77,4.91,2.14,6.37,1.36,1.46,3.27,2.18,5.73,2.18,1.56,0,2.95-.15,4.16-.44,1.21-.29,2.46-.71,3.75-1.27v3.54c-1.26.55-2.5.96-3.73,1.22-1.23.26-2.68.39-4.37.39-2.33,0-4.39-.48-6.19-1.43s-3.19-2.37-4.19-4.26c-1-1.89-1.5-4.19-1.5-6.92s.45-5.01,1.36-6.95c.9-1.93,2.18-3.42,3.82-4.46,1.64-1.04,3.55-1.56,5.73-1.56ZM125.24,12.1c-1.93,0-3.46.62-4.58,1.86-1.12,1.24-1.79,2.97-2,5.17h12.56c0-1.41-.22-2.64-.64-3.68-.43-1.04-1.08-1.86-1.96-2.46s-2-.9-3.38-.9Z"/>
  <path d="M157.76,27.09c0,1.6-.4,2.93-1.2,4-.8,1.07-1.93,1.89-3.4,2.44s-3.22.83-5.24.83c-1.72,0-3.2-.14-4.44-.41-1.24-.28-2.34-.66-3.29-1.15v-3.68c.98.49,2.17.94,3.56,1.36,1.4.41,2.81.62,4.25.62,2.05,0,3.54-.33,4.46-.99.92-.66,1.38-1.54,1.38-2.65,0-.61-.17-1.17-.51-1.66-.34-.49-.94-.98-1.82-1.47-.87-.49-2.12-1.04-3.75-1.66-1.59-.61-2.96-1.23-4.09-1.84-1.14-.61-2.01-1.35-2.62-2.21-.61-.86-.92-1.96-.92-3.31,0-2.08.85-3.7,2.55-4.83s3.93-1.7,6.69-1.7c1.5,0,2.91.15,4.21.44,1.3.29,2.52.7,3.66,1.22l-1.38,3.22c-1.04-.43-2.13-.8-3.27-1.1-1.13-.31-2.3-.46-3.5-.46-1.66,0-2.92.27-3.79.81-.87.54-1.31,1.26-1.31,2.18,0,.67.2,1.25.6,1.73.4.48,1.06.94,2,1.38.93.44,2.18.97,3.75,1.59,1.56.58,2.9,1.18,4,1.79,1.1.61,1.95,1.36,2.53,2.23.58.87.87,1.97.87,3.29Z"/>
  <path d="M165.81,0c.61,0,1.16.21,1.63.62s.71,1.07.71,1.96-.24,1.5-.71,1.93c-.48.43-1.02.64-1.63.64-.67,0-1.24-.21-1.7-.64-.46-.43-.69-1.07-.69-1.93s.23-1.54.69-1.96S165.14,0,165.81,0ZM167.79,9.25v24.66h-4.05V9.25h4.05Z"/>
  <path d="M197.05,21.53c0,2.05-.27,3.87-.81,5.45-.54,1.58-1.3,2.92-2.3,4.02-1,1.1-2.21,1.94-3.63,2.51-1.43.57-3.01.85-4.76.85-1.63,0-3.13-.28-4.51-.85-1.38-.57-2.58-1.4-3.59-2.51-1.01-1.1-1.8-2.45-2.37-4.02s-.85-3.4-.85-5.45c0-2.73.46-5.04,1.38-6.92.92-1.89,2.24-3.33,3.96-4.32,1.72-1,3.76-1.5,6.12-1.5,2.24,0,4.21.5,5.91,1.5,1.7,1,3.04,2.44,4,4.32.97,1.89,1.45,4.19,1.45,6.92ZM178.42,21.53c0,1.93.25,3.61.76,5.04.51,1.43,1.29,2.52,2.37,3.29,1.07.77,2.44,1.15,4.09,1.15s3.02-.38,4.09-1.15c1.07-.77,1.86-1.86,2.37-3.29.51-1.43.76-3.11.76-5.04s-.26-3.63-.78-5.01c-.52-1.38-1.31-2.44-2.37-3.2-1.06-.75-2.43-1.13-4.12-1.13-2.52,0-4.34.83-5.47,2.48-1.13,1.66-1.7,3.94-1.7,6.85Z"/>
  <path d="M215.31,8.79c2.94,0,5.17.71,6.67,2.14,1.5,1.43,2.25,3.73,2.25,6.92v16.05h-4v-15.78c0-1.99-.45-3.48-1.33-4.46-.89-.98-2.29-1.47-4.19-1.47-2.73,0-4.62.77-5.66,2.3-1.04,1.53-1.56,3.74-1.56,6.62v12.79h-4.05V9.25h3.27l.6,3.36h.23c.55-.86,1.23-1.57,2.05-2.14.81-.57,1.71-.99,2.69-1.26.98-.28,1.99-.41,3.04-.41Z"/>
  <path d="M241.39,8.79c2.12,0,3.93.46,5.45,1.38s2.68,2.22,3.5,3.89c.81,1.67,1.22,3.63,1.22,5.87v2.44h-16.88c.06,2.79.77,4.91,2.14,6.37,1.36,1.46,3.27,2.18,5.73,2.18,1.56,0,2.95-.15,4.16-.44,1.21-.29,2.46-.71,3.75-1.27v3.54c-1.26.55-2.5.96-3.73,1.22-1.23.26-2.68.39-4.37.39-2.33,0-4.39-.48-6.19-1.43s-3.19-2.37-4.19-4.26c-1-1.89-1.5-4.19-1.5-6.92s.45-5.01,1.36-6.95c.9-1.93,2.18-3.42,3.82-4.46,1.64-1.04,3.55-1.56,5.73-1.56ZM241.34,12.1c-1.93,0-3.46.62-4.58,1.86-1.12,1.24-1.79,2.97-2,5.17h12.56c0-1.41-.22-2.64-.64-3.68-.43-1.04-1.08-1.86-1.96-2.46s-2-.9-3.38-.9Z"/>
  <path d="M273.87,27.09c0,1.6-.4,2.93-1.2,4-.8,1.07-1.93,1.89-3.4,2.44s-3.22.83-5.24.83c-1.72,0-3.2-.14-4.44-.41-1.24-.28-2.34-.66-3.29-1.15v-3.68c.98.49,2.17.94,3.56,1.36,1.4.41,2.81.62,4.25.62,2.05,0,3.54-.33,4.46-.99.92-.66,1.38-1.54,1.38-2.65,0-.61-.17-1.17-.51-1.66-.34-.49-.94-.98-1.82-1.47-.87-.49-2.12-1.04-3.75-1.66-1.59-.61-2.96-1.23-4.09-1.84-1.14-.61-2.01-1.35-2.62-2.21-.61-.86-.92-1.96-.92-3.31,0-2.08.85-3.7,2.55-4.83s3.93-1.7,6.69-1.7c1.5,0,2.91.15,4.21.44,1.3.29,2.52.7,3.66,1.22l-1.38,3.22c-1.04-.43-2.13-.8-3.27-1.1-1.13-.31-2.3-.46-3.5-.46-1.66,0-2.92.27-3.79.81-.87.54-1.31,1.26-1.31,2.18,0,.67.2,1.25.6,1.73.4.48,1.06.94,2,1.38.93.44,2.18.97,3.75,1.59,1.56.58,2.9,1.18,4,1.79,1.1.61,1.95,1.36,2.53,2.23.58.87.87,1.97.87,3.29Z"/>
  <path d="M34.75,52.83c3,0,5.23.66,6.67,1.98s2.16,3.42,2.16,6.3v16.79h-2.94l-.78-3.5h-.18c-.71.89-1.43,1.63-2.18,2.23-.75.6-1.61,1.04-2.58,1.31-.97.28-2.14.41-3.52.41-1.47,0-2.8-.26-3.98-.78s-2.11-1.33-2.78-2.42c-.67-1.09-1.01-2.46-1.01-4.12,0-2.45.97-4.35,2.9-5.68,1.93-1.33,4.91-2.06,8.92-2.19l4.19-.14v-1.47c0-2.05-.44-3.48-1.33-4.28-.89-.8-2.15-1.2-3.77-1.2-1.29,0-2.52.19-3.68.58-1.17.38-2.25.82-3.27,1.31l-1.24-3.04c1.07-.58,2.35-1.08,3.82-1.5,1.47-.41,3-.62,4.6-.62ZM35.94,65.99c-3.07.12-5.19.61-6.37,1.47-1.18.86-1.77,2.07-1.77,3.63,0,1.38.42,2.39,1.27,3.04.84.64,1.92.97,3.24.97,2.08,0,3.82-.57,5.2-1.72,1.38-1.15,2.07-2.92,2.07-5.31v-2.21l-3.63.14Z"/>
  <path d="M55.26,77.9h-4.05v-34.96h4.05v34.96Z"/>
  <path d="M71.82,52.79c1.62,0,3.09.31,4.39.92,1.3.61,2.42,1.55,3.33,2.81h.23l.55-3.27h3.22v25.07c0,2.33-.4,4.29-1.2,5.86-.8,1.58-2.01,2.77-3.63,3.57-1.63.8-3.7,1.2-6.21,1.2-1.78,0-3.41-.13-4.9-.39s-2.81-.65-3.98-1.17v-3.73c1.17.61,2.53,1.09,4.09,1.43,1.56.34,3.24.51,5.01.51,2.12,0,3.78-.62,4.99-1.86,1.21-1.24,1.82-2.94,1.82-5.08v-.97c0-.37.01-.9.05-1.59.03-.69.06-1.17.09-1.45h-.18c-.86,1.26-1.92,2.19-3.2,2.81s-2.75.92-4.44.92c-3.19,0-5.68-1.12-7.47-3.36-1.79-2.24-2.69-5.37-2.69-9.38s.9-7.04,2.69-9.36c1.79-2.31,4.27-3.47,7.43-3.47ZM72.37,56.19c-1.38,0-2.55.37-3.52,1.1s-1.7,1.81-2.21,3.22c-.51,1.41-.76,3.13-.76,5.15,0,3.04.56,5.36,1.68,6.97,1.12,1.61,2.75,2.42,4.9,2.42,1.26,0,2.33-.16,3.22-.48.89-.32,1.62-.83,2.21-1.52.58-.69,1.01-1.57,1.29-2.64s.41-2.35.41-3.82v-.97c0-2.24-.25-4.05-.76-5.43s-1.3-2.39-2.37-3.04c-1.07-.64-2.44-.97-4.09-.97Z"/>
  <path d="M100.89,52.79c2.12,0,3.93.46,5.45,1.38,1.52.92,2.68,2.22,3.5,3.89.81,1.67,1.22,3.63,1.22,5.87v2.44h-16.88c.06,2.79.77,4.91,2.14,6.37,1.36,1.46,3.27,2.18,5.73,2.18,1.56,0,2.95-.15,4.16-.44,1.21-.29,2.46-.71,3.75-1.27v3.54c-1.26.55-2.5.96-3.73,1.22-1.23.26-2.68.39-4.37.39-2.33,0-4.39-.48-6.19-1.43s-3.19-2.37-4.19-4.26c-1-1.89-1.5-4.19-1.5-6.92s.45-5.01,1.36-6.95c.9-1.93,2.18-3.42,3.82-4.46,1.64-1.04,3.55-1.56,5.73-1.56ZM100.85,56.1c-1.93,0-3.46.62-4.58,1.86-1.12,1.24-1.79,2.97-2,5.17h12.56c0-1.41-.21-2.64-.64-3.68-.43-1.04-1.08-1.86-1.96-2.46s-2-.9-3.38-.9Z"/>
  <path d="M121.36,51.45c0,1.04-.02,2.02-.07,2.92-.05.91-.1,1.62-.16,2.14h.23c.71-1.04,1.67-1.92,2.9-2.62,1.23-.71,2.81-1.06,4.74-1.06,3.07,0,5.53,1.07,7.38,3.2,1.86,2.13,2.78,5.31,2.78,9.54,0,2.82-.42,5.18-1.26,7.08-.84,1.9-2.03,3.33-3.57,4.28-1.53.95-3.31,1.43-5.34,1.43s-3.51-.35-4.74-1.06-2.19-1.55-2.9-2.53h-.32l-.83,3.13h-2.9v-34.96h4.05v8.51ZM128.31,56.19c-1.75,0-3.13.33-4.14.99-1.01.66-1.73,1.67-2.16,3.04-.43,1.37-.64,3.11-.64,5.22v.18c0,3.04.5,5.36,1.5,6.97,1,1.61,2.84,2.42,5.54,2.42,2.21,0,3.86-.81,4.94-2.44,1.09-1.62,1.63-3.97,1.63-7.04s-.54-5.43-1.63-6.99-2.77-2.35-5.04-2.35Z"/>
  <path d="M157.1,52.79c.46,0,.96.02,1.5.07.54.05,1,.11,1.4.21l-.51,3.73c-.4-.09-.83-.17-1.31-.23-.48-.06-.93-.09-1.36-.09-.95,0-1.86.2-2.71.6s-1.63.96-2.3,1.68c-.67.72-1.2,1.59-1.59,2.6-.38,1.01-.58,2.15-.58,3.4v13.16h-4.05v-24.66h3.31l.46,4.51h.18c.52-.92,1.15-1.75,1.89-2.51.74-.75,1.58-1.35,2.53-1.79.95-.44,1.99-.67,3.13-.67Z"/>
  <path d="M173.02,52.83c3,0,5.23.66,6.67,1.98s2.16,3.42,2.16,6.3v16.79h-2.94l-.78-3.5h-.18c-.71.89-1.43,1.63-2.18,2.23-.75.6-1.61,1.04-2.58,1.31-.97.28-2.14.41-3.52.41-1.47,0-2.8-.26-3.98-.78s-2.11-1.33-2.78-2.42c-.67-1.09-1.01-2.46-1.01-4.12,0-2.45.97-4.35,2.9-5.68,1.93-1.33,4.91-2.06,8.92-2.19l4.19-.14v-1.47c0-2.05-.44-3.48-1.33-4.28-.89-.8-2.15-1.2-3.77-1.2-1.29,0-2.52.19-3.68.58-1.17.38-2.25.82-3.27,1.31l-1.24-3.04c1.07-.58,2.35-1.08,3.82-1.5,1.47-.41,3-.62,4.6-.62ZM174.22,65.99c-3.07.12-5.19.61-6.37,1.47-1.18.86-1.77,2.07-1.77,3.63,0,1.38.42,2.39,1.27,3.04.84.64,1.92.97,3.24.97,2.08,0,3.82-.57,5.2-1.72,1.38-1.15,2.07-2.92,2.07-5.31v-2.21l-3.63.14Z"/>
  <path d="M191.56,44c.61,0,1.16.21,1.63.62.47.41.71,1.07.71,1.96s-.24,1.5-.71,1.93c-.48.43-1.02.64-1.63.64-.67,0-1.24-.21-1.7-.64-.46-.43-.69-1.07-.69-1.93s.23-1.54.69-1.96,1.03-.62,1.7-.62ZM193.54,53.25v24.66h-4.05v-24.66h4.05Z"/>
  <path d="M211.25,78.36c-2.18,0-4.12-.45-5.82-1.33-1.7-.89-3.04-2.27-4-4.14-.97-1.87-1.45-4.26-1.45-7.18s.51-5.5,1.52-7.41c1.01-1.9,2.38-3.3,4.12-4.19,1.73-.89,3.7-1.33,5.91-1.33,1.26,0,2.47.13,3.63.39,1.17.26,2.12.58,2.85.94l-1.24,3.36c-.74-.28-1.59-.54-2.58-.78-.98-.25-1.9-.37-2.76-.37-1.66,0-3.02.35-4.09,1.06-1.07.71-1.87,1.75-2.39,3.13-.52,1.38-.78,3.1-.78,5.15s.26,3.63.78,5.01c.52,1.38,1.3,2.42,2.35,3.13,1.04.71,2.35,1.06,3.91,1.06,1.35,0,2.54-.14,3.56-.41s1.97-.61,2.83-1.01v3.59c-.83.43-1.74.76-2.74.99-1,.23-2.2.34-3.61.34Z"/>
  <path d="M232.77,52.83c3,0,5.23.66,6.67,1.98,1.44,1.32,2.16,3.42,2.16,6.3v16.79h-2.94l-.78-3.5h-.18c-.71.89-1.43,1.63-2.19,2.23-.75.6-1.61,1.04-2.58,1.31-.97.28-2.14.41-3.52.41-1.47,0-2.8-.26-3.98-.78-1.18-.52-2.11-1.33-2.78-2.42-.67-1.09-1.01-2.46-1.01-4.12,0-2.45.97-4.35,2.9-5.68s4.91-2.06,8.92-2.19l4.19-.14v-1.47c0-2.05-.45-3.48-1.33-4.28-.89-.8-2.15-1.2-3.77-1.2-1.29,0-2.51.19-3.68.58-1.17.38-2.25.82-3.27,1.31l-1.24-3.04c1.07-.58,2.35-1.08,3.82-1.5,1.47-.41,3.01-.62,4.6-.62ZM233.97,65.99c-3.07.12-5.19.61-6.37,1.47-1.18.86-1.77,2.07-1.77,3.63,0,1.38.42,2.39,1.26,3.04.84.64,1.92.97,3.24.97,2.08,0,3.82-.57,5.2-1.72s2.07-2.92,2.07-5.31v-2.21l-3.63.14Z"/>
  <path d="M265.29,71.09c0,1.6-.4,2.93-1.2,4-.8,1.07-1.93,1.89-3.4,2.44s-3.22.83-5.24.83c-1.72,0-3.2-.14-4.44-.41-1.24-.28-2.34-.66-3.29-1.15v-3.68c.98.49,2.17.94,3.56,1.36,1.4.41,2.81.62,4.25.62,2.05,0,3.54-.33,4.46-.99.92-.66,1.38-1.54,1.38-2.65,0-.61-.17-1.17-.51-1.66-.34-.49-.94-.98-1.82-1.47-.87-.49-2.12-1.04-3.75-1.66-1.59-.61-2.96-1.23-4.09-1.84-1.14-.61-2.01-1.35-2.62-2.21-.61-.86-.92-1.96-.92-3.31,0-2.08.85-3.7,2.55-4.83s3.93-1.7,6.69-1.7c1.5,0,2.91.15,4.21.44,1.3.29,2.52.7,3.66,1.22l-1.38,3.22c-1.04-.43-2.13-.8-3.27-1.1-1.13-.31-2.3-.46-3.5-.46-1.66,0-2.92.27-3.79.81-.87.54-1.31,1.26-1.31,2.18,0,.67.2,1.25.6,1.73.4.48,1.06.94,2,1.38.93.44,2.18.97,3.75,1.59,1.56.58,2.9,1.18,4,1.79,1.1.61,1.95,1.36,2.53,2.23.58.87.87,1.97.87,3.29Z"/>
</svg>