<?xml version="1.0" encoding="UTF-8"?>
<svg id="Layer_1" data-name="Layer 1" xmlns="http://www.w3.org/2000/svg" viewBox="0 0 283.66 74.23">
  <path d="M.73,16.1c0-1.3.19-2.34.58-3.14.38-.79.92-1.36,1.6-1.71.68-.35,1.43-.52,2.26-.52s1.57.17,2.24.52c.67.35,1.2.92,1.6,1.71.4.79.6,1.84.6,3.14s-.2,2.3-.6,3.1-.93,1.37-1.6,1.73c-.67.36-1.41.54-2.24.54s-1.58-.18-2.26-.54c-.68-.36-1.21-.94-1.6-1.73-.39-.79-.58-1.83-.58-3.1Z"/>
  <path d="M27.39,1c2.37,0,4.32.33,5.85.97s2.67,1.62,3.41,2.92,1.12,2.93,1.12,4.89c0,1.65-.28,3.02-.84,4.11-.56,1.1-1.27,1.97-2.14,2.62-.86.65-1.78,1.16-2.73,1.54l7.83,13.85h-4.19l-6.91-12.77h-5.67v12.77h-3.59V1h7.87ZM27.19,4.37h-4.07v11.47h4.27c2.32,0,4.01-.5,5.07-1.49,1.06-1,1.6-2.46,1.6-4.39,0-1.36-.25-2.44-.74-3.25-.49-.81-1.24-1.4-2.26-1.78-1.01-.37-2.3-.56-3.87-.56Z"/>
  <path d="M51.99,8.31c2.61,0,4.54.62,5.79,1.86,1.25,1.24,1.88,3.22,1.88,5.93v15.8h-2.55l-.68-3.29h-.16c-.61.84-1.24,1.54-1.9,2.1s-1.4.97-2.24,1.23c-.84.26-1.86.39-3.05.39-1.28,0-2.43-.25-3.45-.74s-1.83-1.25-2.42-2.27c-.59-1.02-.88-2.32-.88-3.88,0-2.31.84-4.09,2.51-5.35,1.68-1.26,4.26-1.94,7.75-2.06l3.63-.13v-1.39c0-1.93-.39-3.27-1.16-4.03-.77-.75-1.86-1.13-3.27-1.13-1.12,0-2.18.18-3.19.54-1.01.36-1.96.77-2.83,1.23l-1.08-2.86c.93-.55,2.04-1.02,3.31-1.41,1.28-.39,2.61-.58,3.99-.58ZM53.02,20.69c-2.66.12-4.51.58-5.53,1.39-1.03.81-1.54,1.95-1.54,3.42,0,1.3.37,2.25,1.1,2.86.73.61,1.67.91,2.81.91,1.81,0,3.31-.54,4.51-1.62,1.2-1.08,1.8-2.75,1.8-5v-2.08l-3.15.13Z"/>
  <path d="M80.09,31.9h-15.65v-2.51l11.5-17.75h-10.82v-2.94h14.69v2.86l-11.34,17.4h11.62v2.94Z"/>
  <path d="M103.64,20.26c0,1.93-.23,3.64-.7,5.13s-1.13,2.75-2,3.79c-.87,1.04-1.92,1.83-3.15,2.36-1.24.53-2.61.8-4.13.8-1.41,0-2.71-.27-3.91-.8-1.2-.53-2.24-1.32-3.11-2.36-.88-1.04-1.56-2.3-2.06-3.79-.49-1.49-.74-3.2-.74-5.13,0-2.57.4-4.74,1.2-6.52.8-1.77,1.94-3.13,3.43-4.07,1.49-.94,3.26-1.41,5.31-1.41,1.94,0,3.65.47,5.13,1.41,1.48.94,2.63,2.29,3.47,4.07.84,1.78,1.26,3.95,1.26,6.52ZM87.48,20.26c0,1.82.22,3.4.66,4.74s1.12,2.37,2.06,3.09c.93.72,2.12,1.08,3.55,1.08s2.62-.36,3.55-1.08c.93-.72,1.62-1.75,2.06-3.09.44-1.34.66-2.92.66-4.74s-.23-3.42-.68-4.72-1.14-2.3-2.06-3.01c-.92-.71-2.11-1.06-3.57-1.06-2.18,0-3.77.78-4.75,2.34s-1.48,3.71-1.48,6.45Z"/>
  <path d="M119.49,8.27c2.56,0,4.48.67,5.79,2.01,1.3,1.34,1.96,3.51,1.96,6.51v15.11h-3.47v-14.85c0-1.88-.39-3.27-1.16-4.2-.77-.92-1.98-1.38-3.63-1.38-2.37,0-4.01.72-4.91,2.16-.9,1.44-1.36,3.52-1.36,6.23v12.03h-3.51V8.7h2.83l.52,3.16h.2c.48-.81,1.07-1.48,1.78-2.01.7-.53,1.48-.93,2.33-1.19s1.73-.39,2.63-.39Z"/>
  <path d="M142.13,8.27c1.84,0,3.41.43,4.73,1.3,1.32.87,2.33,2.09,3.03,3.66.7,1.57,1.06,3.41,1.06,5.52v2.29h-14.65c.05,2.63.67,4.62,1.86,6,1.18,1.37,2.84,2.06,4.97,2.06,1.36,0,2.56-.14,3.61-.41,1.05-.27,2.14-.67,3.25-1.19v3.33c-1.09.52-2.17.9-3.23,1.15-1.06.24-2.33.37-3.79.37-2.02,0-3.81-.45-5.37-1.34-1.56-.89-2.77-2.23-3.63-4-.87-1.78-1.3-3.95-1.3-6.52s.39-4.72,1.18-6.54,1.89-3.22,3.31-4.2c1.42-.98,3.08-1.47,4.97-1.47ZM142.09,11.38c-1.68,0-3,.58-3.97,1.75-.97,1.17-1.55,2.79-1.74,4.87h10.9c0-1.33-.19-2.48-.56-3.46-.37-.98-.94-1.75-1.7-2.32-.76-.56-1.74-.84-2.93-.84Z"/>
  <path d="M170.32,25.5c0,1.5-.35,2.76-1.04,3.77-.69,1.01-1.68,1.78-2.95,2.29s-2.79.78-4.55.78c-1.49,0-2.77-.13-3.85-.39s-2.03-.62-2.85-1.08v-3.46c.85.46,1.88.89,3.09,1.28s2.44.58,3.69.58c1.78,0,3.07-.31,3.87-.93.8-.62,1.2-1.45,1.2-2.49,0-.58-.15-1.1-.44-1.56-.29-.46-.82-.92-1.58-1.38s-1.84-.98-3.25-1.56c-1.38-.58-2.57-1.15-3.55-1.73-.99-.58-1.74-1.27-2.28-2.08-.53-.81-.8-1.85-.8-3.12,0-1.96.74-3.48,2.22-4.54,1.48-1.07,3.41-1.6,5.81-1.6,1.3,0,2.52.14,3.65.41,1.13.27,2.19.66,3.17,1.15l-1.2,3.03c-.91-.4-1.85-.75-2.83-1.04-.99-.29-2-.43-3.03-.43-1.44,0-2.54.25-3.29.76s-1.14,1.19-1.14,2.06c0,.63.17,1.18.52,1.62.35.45.92.88,1.74,1.3.81.42,1.9.92,3.25,1.49,1.36.55,2.51,1.11,3.47,1.69.96.58,1.69,1.28,2.2,2.1.5.82.76,1.85.76,3.1Z"/>
  <path d="M193.03,29.22c.53,0,1.08-.05,1.64-.15.56-.1,1.01-.21,1.36-.33v2.9c-.37.2-.91.37-1.6.5s-1.36.2-2,.2c-1.12,0-2.15-.21-3.09-.63-.95-.42-1.71-1.15-2.3-2.19-.58-1.04-.88-2.5-.88-4.37v-13.51h-3.03v-1.82l3.07-1.51,1.4-4.94h2.08v5.33h6.19v2.94h-6.19v13.42c0,1.42.31,2.46.94,3.14.62.68,1.43,1.02,2.42,1.02Z"/>
  <path d="M210.28,8.27c.4,0,.83.02,1.3.06.46.04.87.11,1.22.2l-.44,3.51c-.35-.09-.73-.16-1.14-.22-.41-.06-.81-.09-1.18-.09-.83,0-1.61.19-2.36.56-.75.38-1.41.9-2,1.58-.59.68-1.04,1.49-1.38,2.45s-.5,2.02-.5,3.2v12.38h-3.51V8.7h2.87l.4,4.24h.16c.45-.87,1-1.65,1.64-2.36.64-.71,1.37-1.27,2.2-1.69.83-.42,1.73-.63,2.71-.63Z"/>
  <path d="M218.58,0c.53,0,1,.19,1.42.58.41.39.62,1,.62,1.84s-.21,1.42-.62,1.82c-.41.4-.89.61-1.42.61-.59,0-1.08-.2-1.48-.61-.4-.4-.6-1.01-.6-1.82s.2-1.45.6-1.84S218,0,218.58,0ZM220.3,8.7v23.2h-3.51V8.7h3.51Z"/>
  <path d="M234.67,8.27c1.41,0,2.68.29,3.81.87,1.13.58,2.1,1.46,2.89,2.64h.2l.48-3.07h2.79v23.59c0,2.19-.35,4.03-1.04,5.52-.69,1.49-1.74,2.6-3.15,3.36-1.41.75-3.21,1.12-5.39,1.12-1.54,0-2.96-.12-4.25-.37-1.29-.25-2.44-.61-3.45-1.1v-3.51c1.01.58,2.2,1.02,3.55,1.34,1.36.32,2.81.48,4.35.48,1.84,0,3.28-.58,4.33-1.75,1.05-1.17,1.58-2.76,1.58-4.78v-.91c0-.35.01-.84.04-1.49s.05-1.1.08-1.36h-.16c-.75,1.18-1.67,2.06-2.77,2.64s-2.39.87-3.85.87c-2.77,0-4.93-1.05-6.49-3.16s-2.34-5.05-2.34-8.83.78-6.63,2.34-8.81c1.56-2.18,3.71-3.27,6.45-3.27ZM235.15,11.47c-1.2,0-2.22.35-3.05,1.04-.84.69-1.48,1.7-1.92,3.03-.44,1.33-.66,2.94-.66,4.85,0,2.86.49,5.04,1.46,6.56.97,1.51,2.39,2.27,4.25,2.27,1.09,0,2.02-.15,2.79-.46.77-.3,1.41-.78,1.92-1.43.5-.65.88-1.48,1.12-2.49.24-1.01.36-2.21.36-3.59v-.91c0-2.11-.22-3.81-.66-5.11-.44-1.3-1.12-2.25-2.06-2.86-.93-.61-2.12-.91-3.55-.91Z"/>
  <path d="M270.24,20.26c0,1.93-.23,3.64-.7,5.13s-1.13,2.75-2,3.79c-.87,1.04-1.92,1.83-3.15,2.36-1.24.53-2.61.8-4.13.8-1.41,0-2.71-.27-3.91-.8-1.2-.53-2.24-1.32-3.11-2.36-.88-1.04-1.56-2.3-2.06-3.79-.49-1.49-.74-3.2-.74-5.13,0-2.57.4-4.74,1.2-6.52.8-1.77,1.94-3.13,3.43-4.07,1.49-.94,3.26-1.41,5.31-1.41,1.94,0,3.65.47,5.13,1.41,1.48.94,2.63,2.29,3.47,4.07.84,1.78,1.26,3.95,1.26,6.52ZM254.07,20.26c0,1.82.22,3.4.66,4.74s1.12,2.37,2.06,3.09c.93.72,2.12,1.08,3.55,1.08s2.62-.36,3.55-1.08c.93-.72,1.62-1.75,2.06-3.09.44-1.34.66-2.92.66-4.74s-.23-3.42-.68-4.72-1.14-2.3-2.06-3.01c-.92-.71-2.11-1.06-3.57-1.06-2.18,0-3.77.78-4.75,2.34s-1.48,3.71-1.48,6.45Z"/>
  <path d="M273.99,21.99v-3.38h9.66v3.38h-9.66Z"/>
  <path d="M32.11,50.6c2.56,0,4.48.67,5.79,2.01,1.3,1.34,1.96,3.51,1.96,6.51v15.11h-3.47v-14.85c0-1.88-.39-3.27-1.16-4.2-.77-.92-1.98-1.38-3.63-1.38-2.37,0-4.01.72-4.91,2.16-.9,1.44-1.36,3.52-1.36,6.23v12.03h-3.51v-23.2h2.83l.52,3.16h.2c.48-.81,1.07-1.48,1.78-2.01.7-.53,1.48-.93,2.33-1.19s1.73-.39,2.63-.39Z"/>
  <path d="M65.09,62.59c0,1.93-.23,3.64-.7,5.13s-1.13,2.75-2,3.79c-.87,1.04-1.92,1.83-3.15,2.36-1.24.53-2.61.8-4.13.8-1.41,0-2.71-.27-3.91-.8-1.2-.53-2.24-1.32-3.11-2.36-.88-1.04-1.56-2.3-2.06-3.79-.49-1.49-.74-3.2-.74-5.13,0-2.57.4-4.74,1.2-6.52.8-1.77,1.94-3.13,3.43-4.07,1.49-.94,3.26-1.41,5.31-1.41,1.94,0,3.65.47,5.13,1.41,1.48.94,2.63,2.29,3.47,4.07.84,1.78,1.26,3.95,1.26,6.52ZM48.92,62.59c0,1.82.22,3.4.66,4.74s1.12,2.37,2.06,3.09c.93.72,2.12,1.08,3.55,1.08s2.62-.36,3.55-1.08c.93-.72,1.62-1.75,2.06-3.09.44-1.34.66-2.92.66-4.74s-.23-3.42-.68-4.72-1.14-2.3-2.06-3.01c-.92-.71-2.11-1.06-3.57-1.06-2.18,0-3.77.78-4.75,2.34s-1.48,3.71-1.48,6.45Z"/>
  <path d="M94.11,50.6c2.42,0,4.23.67,5.43,2.01,1.2,1.34,1.8,3.51,1.8,6.51v15.11h-3.47v-14.93c0-1.82-.35-3.19-1.06-4.11-.71-.92-1.8-1.38-3.29-1.38-2.08,0-3.56.65-4.45,1.95-.89,1.3-1.34,3.19-1.34,5.67v12.81h-3.47v-14.93c0-1.21-.16-2.23-.48-3.05-.32-.82-.8-1.44-1.44-1.84s-1.46-.61-2.48-.61c-1.44,0-2.57.32-3.39.97-.83.65-1.42,1.6-1.78,2.84-.36,1.24-.54,2.77-.54,4.59v12.03h-3.51v-23.2h2.83l.52,3.16h.2c.45-.81,1-1.48,1.66-2.01.65-.53,1.38-.93,2.18-1.19s1.62-.39,2.48-.39c1.65,0,3.03.32,4.13.95,1.1.63,1.91,1.62,2.42,2.94h.2c.72-1.33,1.7-2.31,2.93-2.94s2.55-.95,3.93-.95Z"/>
  <path d="M116.23,50.6c1.84,0,3.41.43,4.73,1.3,1.32.87,2.33,2.09,3.03,3.66.7,1.57,1.06,3.41,1.06,5.52v2.29h-14.65c.05,2.63.67,4.62,1.86,6,1.18,1.37,2.84,2.06,4.97,2.06,1.36,0,2.56-.14,3.61-.41,1.05-.27,2.14-.67,3.25-1.19v3.33c-1.09.52-2.17.9-3.23,1.15-1.06.24-2.33.37-3.79.37-2.02,0-3.81-.45-5.37-1.34-1.56-.89-2.77-2.23-3.63-4-.87-1.78-1.3-3.95-1.3-6.52s.39-4.72,1.18-6.54,1.89-3.22,3.31-4.2c1.42-.98,3.08-1.47,4.97-1.47ZM116.19,53.71c-1.68,0-3,.58-3.97,1.75-.97,1.17-1.55,2.79-1.74,4.87h10.9c0-1.33-.19-2.48-.56-3.46-.37-.98-.94-1.75-1.7-2.32-.76-.56-1.74-.84-2.93-.84ZM121.86,41.51c-.24.4-.59.89-1.04,1.47-.45.58-.95,1.18-1.5,1.8-.55.62-1.09,1.21-1.64,1.78-.54.56-1.06,1.05-1.54,1.45h-2.32v-.52c.4-.55.83-1.2,1.3-1.95.47-.75.92-1.52,1.38-2.32.45-.79.83-1.51,1.12-2.14h4.23v.43Z"/>
  <path d="M137.63,71.55c.53,0,1.08-.05,1.64-.15.56-.1,1.01-.21,1.36-.33v2.9c-.37.2-.91.37-1.6.5s-1.36.2-2,.2c-1.12,0-2.15-.21-3.09-.63-.95-.42-1.71-1.15-2.3-2.19-.58-1.04-.88-2.5-.88-4.37v-13.51h-3.03v-1.82l3.07-1.51,1.4-4.94h2.08v5.33h6.19v2.94h-6.19v13.42c0,1.42.31,2.46.94,3.14.62.68,1.43,1.02,2.42,1.02Z"/>
  <path d="M154.87,50.6c.4,0,.83.02,1.3.06.46.04.87.11,1.22.2l-.44,3.51c-.35-.09-.73-.16-1.14-.22-.41-.06-.81-.09-1.18-.09-.83,0-1.61.19-2.36.56-.75.38-1.41.9-2,1.58-.59.68-1.04,1.49-1.38,2.45s-.5,2.02-.5,3.2v12.38h-3.51v-23.2h2.87l.4,4.24h.16c.45-.87,1-1.65,1.64-2.36.64-.71,1.37-1.27,2.2-1.69.83-.42,1.73-.63,2.71-.63Z"/>
  <path d="M163.18,42.33c.53,0,1,.19,1.42.58.41.39.62,1,.62,1.84s-.21,1.42-.62,1.82c-.41.4-.89.61-1.42.61-.59,0-1.08-.2-1.48-.61-.4-.4-.6-1.01-.6-1.82s.2-1.45.6-1.84.89-.58,1.48-.58ZM164.89,51.03v23.2h-3.51v-23.2h3.51Z"/>
  <path d="M180.26,74.67c-1.89,0-3.57-.42-5.05-1.26-1.48-.84-2.63-2.14-3.47-3.9-.84-1.76-1.26-4.01-1.26-6.75s.44-5.18,1.32-6.97c.88-1.79,2.07-3.1,3.57-3.94,1.5-.84,3.21-1.25,5.13-1.25,1.09,0,2.14.12,3.15.37,1.01.25,1.84.54,2.48.89l-1.08,3.16c-.64-.26-1.38-.5-2.24-.74-.85-.23-1.65-.35-2.4-.35-1.44,0-2.62.33-3.55,1s-1.62,1.64-2.08,2.94c-.45,1.3-.68,2.92-.68,4.85s.23,3.42.68,4.72c.45,1.3,1.13,2.28,2.04,2.94.9.66,2.04,1,3.39,1,1.17,0,2.2-.13,3.09-.39.89-.26,1.71-.58,2.46-.95v3.38c-.72.4-1.51.71-2.38.93-.86.22-1.91.33-3.13.33Z"/>
  <path d="M198.95,50.64c2.61,0,4.54.62,5.79,1.86,1.25,1.24,1.88,3.22,1.88,5.93v15.8h-2.55l-.68-3.29h-.16c-.61.84-1.24,1.54-1.9,2.1s-1.4.97-2.24,1.23c-.84.26-1.86.39-3.05.39-1.28,0-2.43-.25-3.45-.74s-1.83-1.25-2.42-2.27c-.59-1.02-.88-2.32-.88-3.88,0-2.31.84-4.09,2.51-5.35,1.68-1.26,4.26-1.94,7.75-2.06l3.63-.13v-1.39c0-1.93-.39-3.27-1.16-4.03-.77-.75-1.86-1.13-3.27-1.13-1.12,0-2.18.18-3.19.54-1.01.36-1.96.77-2.83,1.23l-1.08-2.86c.93-.55,2.04-1.02,3.31-1.41,1.28-.39,2.61-.58,3.99-.58ZM199.98,63.02c-2.66.12-4.51.58-5.53,1.39-1.03.81-1.54,1.95-1.54,3.42,0,1.3.37,2.25,1.1,2.86.73.61,1.67.91,2.81.91,1.81,0,3.31-.54,4.51-1.62,1.2-1.08,1.8-2.75,1.8-5v-2.08l-3.15.13Z"/>
  <path d="M227.17,67.83c0,1.5-.35,2.76-1.04,3.77-.69,1.01-1.68,1.78-2.95,2.29s-2.79.78-4.55.78c-1.49,0-2.77-.13-3.85-.39s-2.03-.62-2.85-1.08v-3.46c.85.46,1.88.89,3.09,1.28s2.44.58,3.69.58c1.78,0,3.07-.31,3.87-.93.8-.62,1.2-1.45,1.2-2.49,0-.58-.15-1.1-.44-1.56-.29-.46-.82-.92-1.58-1.38s-1.84-.98-3.25-1.56c-1.38-.58-2.57-1.15-3.55-1.73-.99-.58-1.74-1.27-2.28-2.08-.53-.81-.8-1.85-.8-3.12,0-1.96.74-3.48,2.22-4.54,1.48-1.07,3.41-1.6,5.81-1.6,1.3,0,2.52.14,3.65.41,1.13.27,2.19.66,3.17,1.15l-1.2,3.03c-.91-.4-1.85-.75-2.83-1.04-.99-.29-2-.43-3.03-.43-1.44,0-2.54.25-3.29.76s-1.14,1.19-1.14,2.06c0,.63.17,1.18.52,1.62.35.45.92.88,1.74,1.3.81.42,1.9.92,3.25,1.49,1.36.55,2.51,1.11,3.47,1.69.96.58,1.69,1.28,2.2,2.1.5.82.76,1.85.76,3.1Z"/>
</svg>