<?xml version="1.0" encoding="UTF-8"?>
<svg id="Layer_1" data-name="Layer 1" xmlns="http://www.w3.org/2000/svg" xmlns:xlink="http://www.w3.org/1999/xlink" viewBox="0 0 601.82 120.51">
  <defs>
    <style>
      .cls-1 {
        letter-spacing: 0em;
      }

      .cls-1, .cls-2, .cls-3, .cls-4 {
        fill: #372aac;
        font-size: 50px;
      }

      .cls-1, .cls-5, .cls-6, .cls-3, .cls-4 {
        font-family: NotoSans-Regular, 'Noto Sans';
      }

      .cls-7 {
        fill: #5080c2;
      }

      .cls-8, .cls-9 {
        fill: #fff;
      }

      .cls-6 {
        letter-spacing: -.02em;
      }

      .cls-10 {
        font-family: NotoSans-Italic, 'Noto Sans';
        font-style: italic;
      }

      .cls-11 {
        fill: none;
      }

      .cls-12 {
        fill: #d0f2ff;
      }

      .cls-13 {
        fill: #febfa0;
      }

      .cls-14 {
        clip-path: url(#clippath-1);
      }

      .cls-15 {
        fill: #ec855c;
      }

      .cls-16 {
        fill: #95d7fe;
      }

      .cls-17 {
        fill: #8abdfd;
      }

      .cls-18 {
        fill: #fcad90;
      }

      .cls-19 {
        fill: #dea877;
      }

      .cls-9 {
        stroke: #372aac;
        stroke-miterlimit: 10;
        stroke-width: 5px;
      }

      .cls-4 {
        letter-spacing: 0em;
      }

      .cls-20 {
        fill: #fbcba2;
      }

      .cls-21 {
        font-family: SourceSansPro-Regular, 'Source Sans Pro';
      }

      .cls-22 {
        fill: #ffefdb;
      }

      .cls-23 {
        fill: #d5be8a;
      }

      .cls-24 {
        clip-path: url(#clippath);
      }
    </style>
    <clipPath id="clippath">
      <ellipse class="cls-11" cx="-591.2" cy="325.39" rx="327.32" ry="305.01"/>
    </clipPath>
    <clipPath id="clippath-1">
      <ellipse class="cls-11" cx="1219.5" cy="121.08" rx="327.32" ry="305.01"/>
    </clipPath>
  </defs>
  <g class="cls-24">
    <g>
      <path class="cls-18" d="M-25.26,81.06c-5.35,8.93-19.8,42-8.35,48.44.5,4.75-2.3,14.14,3.34,13.36-.38,2.69-3.86.61-3.34,4.18.42,2.87,33.38,36.39,32.57,47.61,5.57-5.19-8.94-28.7-6.68-30.07,17.77,6.17,46.7,23.56,63.48,13.36,4.36-2.65,17.63-16.99,13.36-23.39-3.98,7.72-36.04,32.35-37.59,14.2-.52-6.14,30.25-40.2,35.08-47.61.44.54,8.2,1.17,11.69,7.52,12.29,22.36-5.64,30.21-11.69,45.1-3.81,9.36-5.86,21.79-10.02,31.74-11.46,27.42-30.97,49.37-26.73,82.69-19.68,1.17-43.95.02-60.97-11.69-15.5-10.67-11.07-14.16-12.53-30.07-.64-6.98,2.68-13.07,1.67-19.21-.75-4.51-15.55-23.84-18.37-31.74-6.31-17.61-10.23-56.75-6.68-75.17.44-2.31,13.97-36.84,15.87-37.59,2.7-1.06,21-1.25,25.89-1.67Z"/>
      <path class="cls-15" d="M14.83,79.39c-3.58,14.26-42.41,62.05-22.55,71.83,18.07,8.9,35.2-47.98,50.95-53.45-5.31,11.41-39.74,53.23-36.75,64.31.3,1.12,6.46,5.63,7.52,5.85,18.33,3.8,36.58-39.2,50.95-48.44.19.22.78.57,1.67,1.67-4.83,7.41-35.6,41.46-35.08,47.61,1.54,18.15,33.6-6.48,37.59-14.2,4.27,6.4-9,20.74-13.36,23.39-16.78,10.19-45.71-7.2-63.48-13.36-2.26,1.37,12.25,24.88,6.68,30.07.8-11.22-32.16-44.73-32.57-47.61-.52-3.57,2.96-1.49,3.34-4.18,3.36-23.87,2.47,2.34,16.7-15.87,1.89-2.42,23.96-52.32,28.4-47.61Z"/>
      <path class="cls-13" d="M43.23,97.77c-15.75,5.47-32.88,62.35-50.95,53.45-19.86-9.78,18.98-57.56,22.55-71.83,1.19.58,8.83.46,10.86,1.67,9,5.38,12.27,12.38,17.54,16.7Z"/>
      <path class="cls-13" d="M64.95,119.49c-14.36,9.25-32.62,52.24-50.95,48.44-1.06-.22-7.22-4.73-7.52-5.85-2.99-11.08,31.44-52.9,36.75-64.31,13.98,11.47,10.94,9.57,21.72,21.72Z"/>
      <path class="cls-13" d="M14.83,79.39c-4.44-4.71-26.5,45.18-28.4,47.61-14.23,18.21-13.34-8-16.7,15.87-5.64.78-2.84-8.62-3.34-13.36-2.85-27.05,9.33-34.15,16.7-58.47,17.33-9.8,21.32,3.3,31.74,8.35Z"/>
    </g>
  </g>
  <g class="cls-14">
    <g>
      <g>
        <path class="cls-22" d="M721.36-89.84l-160.36,135.31c-2.64-16.54-29.09-44.06-46.77-41.76-1.8.23-2.49,2.49-5.01,1.67,10.99-13.17,45.85-28.51,58.47-43.43-9.98,22.22,53.44,41.82,51.78,11.69.9-.07,7.63-4.21,6.68-6.68,29.95-5.8,21.29-21.66,27.56-25.06,2.86-1.55,8.68,2.49,12.53-2.51,3.72-4.82-.1-22.09,1.67-26.73,2.13-5.55,23.01-9.43,3.34-29.23,4.04.01,18.15-6.63,20.88-6.68,14.62-.25,25.25,21.69,29.23,33.41Z"/>
        <path class="cls-20" d="M724.7-69.79c-9.8,3.06-15.72,12.3-23.39,18.37-.5.4-2.84,1.27-3.34,1.67-14.59,11.62-118.58,97.41-120.27,105.24l-18.37,10.02c1.95-4.69,2.46-15.12,1.67-20.05l160.36-135.31c3.41,10.04,4.25,9.32,3.34,20.05Z"/>
        <path class="cls-19" d="M560.99,45.47c.79,4.92.28,15.36-1.67,20.05-1.09,2.61-2.16,2.29-3.34,3.34l-.84-5.01c-21.07,2.5-42.17-15.44-41.76-36.75,1.89,4.22,3.14,7.82,5.85,11.69,9.35,13.4,5.15,10.96,20.05,5.85.33-1.49-11.39-21.02-13.36-24.22-.08-.13,3.03-.42,1.67-2.51-3.25-5-11.84-7.37-13.36-14.2,17.68-2.3,44.13,25.22,46.77,41.76Z"/>
        <path class="cls-20" d="M525.92,20.41c-11.6,3.58-8.52,8.27-6.68,18.37-2.7-3.87-3.96-7.48-5.85-11.69-.41,21.31,20.69,39.25,41.76,36.75l.84,5.01c-23.99,21.33-69.42-36.32-46.77-63.48,2.52.82,3.21-1.44,5.01-1.67,1.52,6.83,10.11,9.2,13.36,14.2,1.36,2.09-1.75,2.38-1.67,2.51Z"/>
        <path class="cls-20" d="M519.23,38.79c-1.84-10.1-4.92-14.79,6.68-18.37,1.97,3.2,13.69,22.74,13.36,24.22-14.89,5.11-10.7,7.55-20.05-5.85Z"/>
      </g>
      <g>
        <g>
          <path class="cls-7" d="M667.9,108.95c-.54,34.59-15.44,78.22-38.42,104.4-24.47,27.89-59.77,41.71-95.22,49.28-5.28-20.5-12.32-40.64-15.03-61.81,13.58,9.69,32.08,7.24,46.77,5.01,5.18-.79,3.57-.8,6.68-1.67,7.03-1.96,7.85-1.77,15.03-5.01,14.64-6.6,21.44-11.14,33.41-21.72,23.73-20.95,37.97-44.81,46.77-75.17.16,2.17.03,4.49,0,6.68Z"/>
          <path class="cls-12" d="M667.9,102.26c-8.8,30.36-23.04,54.22-46.77,75.17l-35.08,1.67c1.1-21.28-1.13-43.69,1.67-65.15.56-.01,1.11.02,1.67,0,22.76-.97,43.87-4.38,63.48-16.7,5.23-3.29,5.9-7.86,10.86-10.02,1.71.56,3.99,12.52,4.18,15.03Z"/>
          <path class="cls-23" d="M671.24,115.63c-1.58,78.46-55.79,144.42-135.31,152.01-.2-.76-1.12-2.86-1.67-5.01,35.45-7.57,70.74-21.39,95.22-49.28,22.98-26.19,37.88-69.81,38.42-104.4,1.49.51,2.93,5.14,3.34,6.68Z"/>
          <path class="cls-16" d="M572.69,112.29c4.68.33,8.92,1.83,15.03,1.67-2.8,21.46-.57,43.86-1.67,65.15-.07,1.38-1.57,1.83-1.67,5.01-4-4.5-8.38-17.04-16.7-11.69-3.18-20.36-5.51-39.49-6.68-60.14,3.06,1.51,9.95-.12,11.69,0Z"/>
          <path class="cls-7" d="M676.26,139.01c-15.91,70.68-64.92,124.12-138.65,133.64-.21-.8-1.12-2.87-1.67-5.01,79.52-7.59,133.72-73.55,135.31-152.01,1.98,7.43,4.68,15.65,5.01,23.39Z"/>
          <path class="cls-17" d="M574.36,90.57c-.84,6.02-.67,15.28-1.67,21.72-1.74-.12-8.63,1.51-11.69,0-.83-14.68-8.97-16.69,13.36-21.72Z"/>
        </g>
        <g>
          <path class="cls-13" d="M652.87,97.25c-19.61,12.33-40.72,15.73-63.48,16.7-1.73-8.87,2.08-16.72,1.67-25.89-.03-.56-4.91-8.42-5.01-10.02-.86-13.25,29.32-35.96,38.42-46.77,23.87-28.37,43.54-57.73,73.5-81.02.5-.4,2.84-1.27,3.34-1.67,1.08,32.69-10.44,83.47-28.4,111.08-8.67,13.33-28.29,20.51-20.05,37.59Z"/>
          <path class="cls-15" d="M697.97-49.75c-29.96,23.29-49.63,52.65-73.5,81.02-9.1,10.81-39.28,33.53-38.42,46.77.1,1.6,4.99,9.46,5.01,10.02.41,9.17-3.4,17.02-1.67,25.89-.56.02-1.11-.01-1.67,0-6.12.16-10.35-1.34-15.03-1.67,1-6.44.83-15.7,1.67-21.72.05-.33,3.27-5.15,3.34-5.85.87-8.6-1.63-21.72,0-29.23s105.68-93.62,120.27-105.24Z"/>
        </g>
      </g>
    </g>
  </g>
  <g>
    <path class="cls-9" d="M594.52,38.07c0-8.26-10.32-14.98-23.13-15.12-2.98-8.86-19.47-15.64-39.36-15.64-13.68,0-25.76,3.21-32.93,8.1-5.61-2.64-12.66-4.21-20.34-4.21-6.32,0-12.22,1.06-17.25,2.91-4.1-4.21-9.7-6.8-15.86-6.8-8.48,0-15.87,4.9-19.8,12.18-3.38-1.12-7.18-1.75-11.21-1.75-3.49,0-6.82.47-9.85,1.32-5.06-6.99-15.21-11.76-26.89-11.76-9.32,0-17.66,3.04-23.22,7.81-4.59-2.46-10.28-3.92-16.45-3.92-8.74,0-16.52,2.92-21.58,7.49-4.18-1.35-9.14-2.13-14.44-2.13s-10.5.82-14.74,2.23c-4.61-1.39-10.36-2.23-16.58-2.23-12.81,0-23.59,3.52-26.71,8.3-3.78-1.21-8.23-1.92-12.98-1.92-4.08,0-7.93.52-11.34,1.44-2.59-7.57-12.08-13.18-23.39-13.18-8.37,0-15.75,3.08-20.07,7.76-6.81-4.68-18.44-7.76-31.64-7.76-11.45,0-21.72,2.32-28.69,5.98-5.11-5.93-14.23-9.87-24.62-9.87-16.02,0-28.99,9.36-28.99,20.9,0,1.4.19,2.76.56,4.09-.65.11-1.31.21-1.94.33-3.65-8.64-14.18-14.89-26.6-14.89-15.46,0-28,9.67-28,21.61s12.54,21.61,28,21.61c.85,0,1.69-.03,2.52-.09.51-.04,1.02-.08,1.51-.13-.45.11-.9.23-1.34.35-11.24,3.21-19.15,10.86-19.15,19.8,0,11.82,13.85,21.4,30.92,21.4,11.13,0,20.89-4.07,26.34-10.17,4.36,7.78,17.94,13.44,34.02,13.44,13.89,0,25.91-4.23,31.73-10.39,4.83,6.66,14.5,11.22,25.66,11.22,7.64,0,14.59-2.14,19.77-5.64,3.99,4.88,10.84,8.09,18.63,8.09,8.38,0,15.69-3.73,19.5-9.25,7.21,4.1,19.57,6.8,33.63,6.8,9.32,0,17.9-1.18,24.72-3.18,4.01,6.9,12.32,11.64,21.93,11.64,7.79,0,14.73-3.11,19.2-7.95,5.85,1.24,12.68,1.95,19.99,1.95,11.34,0,21.56-1.72,28.71-4.47,4.59,5.85,13.31,9.8,23.31,9.8,7.95,0,15.1-2.5,19.99-6.47,3.91,1.08,8.3,1.68,12.95,1.68,7.5,0,14.34-1.58,19.54-4.18,4.33,5.82,11.62,9.64,19.89,9.64s14.95-3.51,19.33-8.93c4.5,1.85,9.86,2.92,15.64,2.92,7.18,0,13.75-1.66,18.76-4.42,5.27,2.75,12.16,4.42,19.69,4.42,16.57,0,30-8.06,30-18,0-.85-.1-1.68-.28-2.49,9.31-.78,16.69-11.43,16.69-24.47,0-5.1-1.13-9.84-3.07-13.77,5.66-2.75,9.31-7.12,9.31-12.04Z"/>
    <text class="cls-3" transform="translate(45.47 75.16)"><tspan x="0" y="0">CH</tspan></text>
    <text class="cls-3" transform="translate(114.12 91.81) scale(.58)"><tspan x="0" y="0">4</tspan></text>
    <text class="cls-4" transform="translate(130.79 75.16)"><tspan x="0" y="0" xml:space="preserve"> + 2O</tspan></text>
    <text class="cls-1" transform="translate(253.04 91.81) scale(.58)"><tspan x="0" y="0">2</tspan></text>
    <text class="cls-2" transform="translate(269.71 75.16)"><tspan class="cls-10" x="0" y="0"> </tspan><tspan class="cls-21" x="13" y="0">→ </tspan><tspan class="cls-6" x="53.95" y="0">C</tspan><tspan class="cls-5" x="84.55" y="0">O</tspan></text>
    <text class="cls-3" transform="translate(393.31 91.81) scale(.58)"><tspan x="0" y="0">2</tspan></text>
    <text class="cls-3" transform="translate(409.98 75.16)"><tspan x="0" y="0" xml:space="preserve"> + 2H</tspan></text>
    <text class="cls-3" transform="translate(530.23 91.81) scale(.58)"><tspan x="0" y="0">2</tspan></text>
    <text class="cls-3" transform="translate(546.91 75.16)"><tspan x="0" y="0">O</tspan></text>
  </g>
  <ellipse class="cls-8" cx="84.72" cy="78.37" rx="3.24" ry="2.52"/>
  <ellipse class="cls-8" cx="558.86" cy="77.2" rx="5.32" ry="2.15"/>
</svg>