<?xml version="1.0" encoding="UTF-8"?>
<svg id="Layer_1" data-name="Layer 1" xmlns="http://www.w3.org/2000/svg" viewBox="0 0 231.84 79.42">
  <path d="M.45,18.17c0-1.38.22-2.49.67-3.33s1.06-1.45,1.84-1.82c.78-.37,1.65-.55,2.6-.55s1.81.18,2.58.55c.77.37,1.38.97,1.84,1.82s.69,1.96.69,3.33-.23,2.45-.69,3.29-1.07,1.46-1.84,1.84-1.63.58-2.58.58-1.82-.19-2.6-.58c-.78-.38-1.4-1-1.84-1.84s-.67-1.94-.67-3.29Z"/>
  <path d="M28.06,2.12c4.29,0,7.42.84,9.38,2.53,1.96,1.69,2.94,4.06,2.94,7.13,0,1.35-.22,2.65-.67,3.89-.45,1.24-1.17,2.35-2.19,3.33-1.01.98-2.36,1.76-4.05,2.32-1.69.57-3.76.85-6.21.85h-3.77v12.79h-4.14V2.12h8.69ZM27.69,5.66h-4.19v12.97h3.31c2.08,0,3.82-.22,5.2-.67s2.41-1.16,3.08-2.14c.67-.98,1.01-2.27,1.01-3.86,0-2.12-.67-3.7-2.02-4.74-1.35-1.04-3.48-1.56-6.39-1.56Z"/>
  <path d="M58.14,9.84c.46,0,.96.02,1.49.07.54.05,1,.11,1.4.21l-.51,3.73c-.4-.09-.84-.17-1.31-.23-.48-.06-.93-.09-1.36-.09-.95,0-1.86.2-2.71.6-.86.4-1.63.96-2.3,1.68-.67.72-1.2,1.59-1.59,2.6-.38,1.01-.58,2.15-.58,3.4v13.16h-4.05V10.3h3.31l.46,4.51h.18c.52-.92,1.15-1.75,1.89-2.51.74-.75,1.58-1.35,2.53-1.79.95-.44,1.99-.67,3.13-.67Z"/>
  <path d="M86.16,22.59c0,2.05-.27,3.87-.81,5.45-.54,1.58-1.3,2.92-2.3,4.02-1,1.1-2.21,1.94-3.63,2.51-1.43.57-3.01.85-4.76.85-1.63,0-3.13-.28-4.51-.85-1.38-.57-2.58-1.4-3.59-2.51-1.01-1.1-1.8-2.45-2.37-4.02s-.85-3.4-.85-5.45c0-2.73.46-5.04,1.38-6.92.92-1.89,2.24-3.33,3.96-4.32,1.72-1,3.76-1.5,6.12-1.5,2.24,0,4.21.5,5.91,1.5,1.7,1,3.04,2.44,4,4.32.97,1.89,1.45,4.19,1.45,6.92ZM67.53,22.59c0,1.93.25,3.61.76,5.04.51,1.43,1.29,2.52,2.37,3.29,1.07.77,2.44,1.15,4.09,1.15s3.02-.38,4.09-1.15c1.07-.77,1.86-1.86,2.37-3.29.51-1.43.76-3.11.76-5.04s-.26-3.63-.78-5.01c-.52-1.38-1.31-2.44-2.37-3.2-1.06-.75-2.43-1.13-4.12-1.13-2.52,0-4.34.83-5.47,2.48-1.13,1.66-1.7,3.94-1.7,6.85Z"/>
  <path d="M101.29,35.42c-3.07,0-5.52-1.07-7.36-3.2-1.84-2.13-2.76-5.31-2.76-9.54s.93-7.43,2.78-9.59,4.32-3.24,7.38-3.24c1.29,0,2.41.16,3.36.48.95.32,1.78.76,2.48,1.31.71.55,1.3,1.17,1.79,1.84h.28c-.03-.4-.08-.99-.16-1.77-.08-.78-.11-1.4-.11-1.86V0h4.05v34.96h-3.27l-.6-3.31h-.18c-.49.71-1.09,1.34-1.79,1.91-.71.57-1.54,1.02-2.51,1.36-.97.34-2.09.51-3.38.51ZM101.94,32.06c2.61,0,4.44-.71,5.5-2.14,1.06-1.43,1.59-3.58,1.59-6.46v-.74c0-3.07-.51-5.42-1.52-7.06-1.01-1.64-2.88-2.46-5.61-2.46-2.18,0-3.81.87-4.9,2.6-1.09,1.73-1.63,4.06-1.63,6.97s.54,5.23,1.63,6.85c1.09,1.63,2.74,2.44,4.95,2.44Z"/>
  <path d="M141.45,10.3v24.66h-3.31l-.6-3.27h-.18c-.52.86-1.2,1.56-2.02,2.12s-1.73.96-2.71,1.22c-.98.26-2.01.39-3.08.39-1.96,0-3.61-.32-4.95-.94s-2.34-1.6-3.01-2.92c-.67-1.32-1.01-3.02-1.01-5.11V10.3h4.09v15.87c0,1.96.44,3.43,1.33,4.42.89.98,2.27,1.47,4.14,1.47s3.29-.34,4.35-1.04c1.06-.69,1.81-1.7,2.25-3.04.44-1.33.67-2.95.67-4.85v-12.83h4.05Z"/>
  <path d="M159.16,35.42c-2.18,0-4.12-.45-5.82-1.33-1.7-.89-3.04-2.27-4-4.14-.97-1.87-1.45-4.26-1.45-7.18s.51-5.5,1.52-7.41c1.01-1.9,2.38-3.3,4.12-4.19,1.73-.89,3.7-1.33,5.91-1.33,1.26,0,2.47.13,3.63.39,1.17.26,2.12.58,2.85.94l-1.24,3.36c-.74-.28-1.59-.54-2.58-.78-.98-.25-1.9-.37-2.76-.37-1.66,0-3.02.35-4.09,1.06-1.07.71-1.87,1.75-2.39,3.13-.52,1.38-.78,3.1-.78,5.15s.26,3.63.78,5.01c.52,1.38,1.3,2.42,2.35,3.13,1.04.71,2.35,1.06,3.91,1.06,1.35,0,2.54-.14,3.57-.41,1.03-.28,1.97-.61,2.83-1.01v3.59c-.83.43-1.74.76-2.74.99-1,.23-2.2.34-3.61.34Z"/>
  <path d="M179.58,32.11c.61,0,1.24-.05,1.89-.16.64-.11,1.17-.22,1.56-.34v3.08c-.43.21-1.04.39-1.84.53s-1.56.21-2.3.21c-1.29,0-2.48-.22-3.56-.67-1.09-.44-1.97-1.22-2.65-2.32-.67-1.1-1.01-2.65-1.01-4.65v-14.35h-3.5v-1.93l3.54-1.61,1.61-5.24h2.39v5.66h7.13v3.13h-7.13v14.26c0,1.5.36,2.62,1.08,3.33.72.72,1.65,1.08,2.78,1.08Z"/>
  <path d="M209.39,22.59c0,2.05-.27,3.87-.81,5.45-.54,1.58-1.3,2.92-2.3,4.02-1,1.1-2.21,1.94-3.63,2.51-1.43.57-3.01.85-4.76.85-1.63,0-3.13-.28-4.51-.85-1.38-.57-2.58-1.4-3.59-2.51-1.01-1.1-1.8-2.45-2.37-4.02s-.85-3.4-.85-5.45c0-2.73.46-5.04,1.38-6.92.92-1.89,2.24-3.33,3.96-4.32,1.72-1,3.76-1.5,6.12-1.5,2.24,0,4.21.5,5.91,1.5,1.7,1,3.04,2.44,4,4.32.97,1.89,1.45,4.19,1.45,6.92ZM190.76,22.59c0,1.93.25,3.61.76,5.04.51,1.43,1.29,2.52,2.37,3.29,1.07.77,2.44,1.15,4.09,1.15s3.02-.38,4.09-1.15c1.07-.77,1.86-1.86,2.37-3.29.51-1.43.76-3.11.76-5.04s-.26-3.63-.78-5.01c-.52-1.38-1.31-2.44-2.37-3.2-1.06-.75-2.43-1.13-4.12-1.13-2.52,0-4.34.83-5.47,2.48-1.13,1.66-1.7,3.94-1.7,6.85Z"/>
  <path d="M231.84,28.15c0,1.6-.4,2.93-1.2,4-.8,1.07-1.93,1.89-3.4,2.44s-3.22.83-5.24.83c-1.72,0-3.2-.14-4.44-.41-1.24-.28-2.34-.66-3.29-1.15v-3.68c.98.49,2.17.94,3.56,1.36,1.4.41,2.81.62,4.25.62,2.05,0,3.54-.33,4.46-.99.92-.66,1.38-1.54,1.38-2.65,0-.61-.17-1.17-.51-1.66-.34-.49-.94-.98-1.82-1.47-.87-.49-2.12-1.04-3.75-1.66-1.59-.61-2.96-1.23-4.09-1.84-1.14-.61-2.01-1.35-2.62-2.21-.61-.86-.92-1.96-.92-3.31,0-2.08.85-3.7,2.55-4.83s3.93-1.7,6.69-1.7c1.5,0,2.91.15,4.21.44,1.3.29,2.52.7,3.66,1.22l-1.38,3.22c-1.04-.43-2.13-.8-3.27-1.1-1.13-.31-2.3-.46-3.5-.46-1.66,0-2.92.27-3.79.81-.87.54-1.31,1.26-1.31,2.18,0,.67.2,1.25.6,1.73.4.48,1.06.94,2,1.38.93.44,2.18.97,3.75,1.59,1.56.58,2.9,1.18,4,1.79,1.1.61,1.95,1.36,2.53,2.23.58.87.87,1.97.87,3.29Z"/>
  <path d="M24.64,53.84c2.94,0,5.17.71,6.67,2.14,1.5,1.43,2.25,3.73,2.25,6.92v16.05h-4v-15.78c0-1.99-.45-3.48-1.33-4.46-.89-.98-2.29-1.47-4.19-1.47-2.73,0-4.62.77-5.66,2.3-1.04,1.53-1.56,3.74-1.56,6.62v12.79h-4.05v-24.66h3.27l.6,3.36h.23c.55-.86,1.23-1.57,2.05-2.14.81-.57,1.71-.99,2.69-1.26s1.99-.41,3.04-.41Z"/>
  <path d="M62.64,66.59c0,2.05-.27,3.87-.81,5.45-.54,1.58-1.3,2.92-2.3,4.02-1,1.1-2.21,1.94-3.63,2.51-1.43.57-3.01.85-4.76.85-1.63,0-3.13-.28-4.51-.85-1.38-.57-2.58-1.4-3.59-2.51-1.01-1.1-1.8-2.45-2.37-4.02s-.85-3.4-.85-5.45c0-2.73.46-5.04,1.38-6.92.92-1.89,2.24-3.33,3.96-4.32,1.72-1,3.76-1.5,6.12-1.5,2.24,0,4.21.5,5.91,1.5,1.7,1,3.04,2.44,4,4.32.97,1.89,1.45,4.19,1.45,6.92ZM44.01,66.59c0,1.93.25,3.61.76,5.04.51,1.43,1.29,2.52,2.37,3.29,1.07.77,2.44,1.15,4.09,1.15s3.02-.38,4.09-1.15c1.07-.77,1.86-1.86,2.37-3.29.51-1.43.76-3.11.76-5.04s-.26-3.63-.78-5.01c-.52-1.38-1.31-2.44-2.37-3.2-1.06-.75-2.43-1.13-4.12-1.13-2.52,0-4.34.83-5.47,2.48-1.13,1.66-1.7,3.94-1.7,6.85Z"/>
  <path d="M77.27,76.11c.61,0,1.24-.05,1.89-.16.64-.11,1.17-.22,1.56-.34v3.08c-.43.21-1.04.39-1.84.53-.8.14-1.56.21-2.3.21-1.29,0-2.48-.22-3.57-.67-1.09-.44-1.97-1.22-2.64-2.32-.67-1.1-1.01-2.65-1.01-4.65v-14.35h-3.5v-1.93l3.54-1.61,1.61-5.24h2.39v5.66h7.13v3.13h-7.13v14.26c0,1.5.36,2.62,1.08,3.33.72.72,1.65,1.08,2.78,1.08Z"/>
  <path d="M94.98,53.89c3,0,5.23.66,6.67,1.98s2.16,3.42,2.16,6.3v16.79h-2.94l-.78-3.5h-.18c-.71.89-1.43,1.63-2.18,2.23-.75.6-1.61,1.04-2.58,1.31-.97.28-2.14.41-3.52.41-1.47,0-2.8-.26-3.98-.78s-2.11-1.33-2.78-2.42c-.67-1.09-1.01-2.46-1.01-4.12,0-2.45.97-4.35,2.9-5.68,1.93-1.33,4.91-2.06,8.92-2.19l4.19-.14v-1.47c0-2.05-.44-3.48-1.33-4.28-.89-.8-2.15-1.2-3.77-1.2-1.29,0-2.52.19-3.68.58-1.17.38-2.25.82-3.27,1.31l-1.24-3.04c1.07-.58,2.35-1.08,3.82-1.5,1.47-.41,3-.62,4.6-.62ZM96.17,67.05c-3.07.12-5.19.61-6.37,1.47-1.18.86-1.77,2.07-1.77,3.63,0,1.38.42,2.39,1.27,3.04.84.64,1.92.97,3.24.97,2.08,0,3.82-.57,5.2-1.72,1.38-1.15,2.07-2.92,2.07-5.31v-2.21l-3.63.14Z"/>
  <path d="M115.49,52.51c0,1.04-.02,2.02-.07,2.92-.05.91-.1,1.62-.16,2.14h.23c.71-1.04,1.67-1.92,2.9-2.62,1.23-.71,2.81-1.06,4.74-1.06,3.07,0,5.53,1.07,7.38,3.2,1.86,2.13,2.78,5.31,2.78,9.54,0,2.82-.42,5.18-1.26,7.08-.84,1.9-2.03,3.33-3.57,4.28-1.53.95-3.31,1.43-5.34,1.43s-3.51-.35-4.74-1.06-2.19-1.55-2.9-2.53h-.32l-.83,3.13h-2.9v-34.96h4.05v8.51ZM122.44,57.25c-1.75,0-3.13.33-4.14.99-1.01.66-1.73,1.67-2.16,3.04-.43,1.37-.64,3.11-.64,5.22v.18c0,3.04.5,5.36,1.5,6.97,1,1.61,2.84,2.42,5.54,2.42,2.21,0,3.86-.81,4.94-2.44,1.09-1.62,1.63-3.97,1.63-7.04s-.54-5.43-1.63-6.99-2.77-2.35-5.04-2.35Z"/>
  <path d="M143.78,78.96h-4.05v-34.96h4.05v34.96Z"/>
  <path d="M161.12,53.84c2.12,0,3.93.46,5.45,1.38,1.52.92,2.68,2.22,3.5,3.89.81,1.67,1.22,3.63,1.22,5.87v2.44h-16.88c.06,2.79.77,4.91,2.14,6.37,1.36,1.46,3.27,2.18,5.73,2.18,1.56,0,2.95-.15,4.16-.44,1.21-.29,2.46-.71,3.75-1.27v3.54c-1.26.55-2.5.96-3.73,1.22-1.23.26-2.68.39-4.37.39-2.33,0-4.39-.48-6.19-1.43s-3.19-2.37-4.19-4.26c-1-1.89-1.5-4.19-1.5-6.92s.45-5.01,1.36-6.95c.9-1.93,2.18-3.42,3.82-4.46,1.64-1.04,3.55-1.56,5.73-1.56ZM161.08,57.16c-1.93,0-3.46.62-4.58,1.86-1.12,1.24-1.79,2.97-2,5.17h12.56c0-1.41-.21-2.64-.64-3.68-.43-1.04-1.08-1.86-1.96-2.46s-2-.9-3.38-.9Z"/>
  <path d="M193.6,72.15c0,1.6-.4,2.93-1.2,4-.8,1.07-1.93,1.89-3.4,2.44s-3.22.83-5.24.83c-1.72,0-3.2-.14-4.44-.41-1.24-.28-2.34-.66-3.29-1.15v-3.68c.98.49,2.17.94,3.56,1.36,1.4.41,2.81.62,4.25.62,2.05,0,3.54-.33,4.46-.99.92-.66,1.38-1.54,1.38-2.65,0-.61-.17-1.17-.51-1.66-.34-.49-.94-.98-1.82-1.47-.87-.49-2.12-1.04-3.75-1.66-1.59-.61-2.96-1.23-4.09-1.84-1.14-.61-2.01-1.35-2.62-2.21-.61-.86-.92-1.96-.92-3.31,0-2.08.85-3.7,2.55-4.83s3.93-1.7,6.69-1.7c1.5,0,2.91.15,4.21.44,1.3.29,2.52.7,3.66,1.22l-1.38,3.22c-1.04-.43-2.13-.8-3.27-1.1-1.13-.31-2.3-.46-3.5-.46-1.66,0-2.92.27-3.79.81-.87.54-1.31,1.26-1.31,2.18,0,.67.2,1.25.6,1.73.4.48,1.06.94,2,1.38.93.44,2.18.97,3.75,1.59,1.56.58,2.9,1.18,4,1.79,1.1.61,1.95,1.36,2.53,2.23.58.87.87,1.97.87,3.29Z"/>
</svg>