<?xml version="1.0" encoding="UTF-8"?>
<svg id="Layer_1" data-name="Layer 1" xmlns="http://www.w3.org/2000/svg" viewBox="0 0 336 82.33">
  <defs>
    <style>
      .cls-1, .cls-2 {
        fill: #372aac;
        font-family: NotoSans-Regular, 'Noto Sans';
        font-size: 60px;
      }

      .cls-3 {
        fill: #fff;
        stroke: #372aac;
        stroke-miterlimit: 10;
        stroke-width: 5px;
      }

      .cls-2 {
        letter-spacing: 0em;
      }
    </style>
  </defs>
  <path class="cls-3" d="M331.3,50.54c0,10.67-10.2,19.32-22.79,19.32-5.51,0-10.57-1.66-14.51-4.42-4.78,6.38-14.71,10.77-26.2,10.77-9.81,0-18.49-3.2-23.78-8.11-4.65,6.58-14.75,11.14-26.47,11.14s-21.42-4.39-26.2-10.77c-3.94,2.76-9,4.42-14.51,4.42-3.52,0-6.85-.68-9.83-1.89-5.35,4.44-13.6,7.29-22.85,7.29-11.49,0-21.43-4.39-26.2-10.77-3.94,2.77-9.01,4.43-14.51,4.43-4.27,0-8.27-1-11.68-2.73-5.31,4.8-13.89,7.93-23.59,7.93-11.49,0-21.42-4.39-26.2-10.77-3.94,2.76-9,4.42-14.51,4.42-12.58,0-22.79-8.65-22.79-19.32,0-9,7.26-16.56,17.07-18.71-1.84-2.79-2.89-6-2.89-9.41,0-10.67,10.2-19.32,22.8-19.32,8.27,0,15.51,3.73,19.5,9.31,4.15-3.82,10.12-6.21,16.73-6.21,8.08,0,15.18,3.57,19.22,8.94,3.69-6.44,11.49-10.89,20.51-10.89,8.28,0,15.52,3.74,19.51,9.32,4.15-3.83,10.11-6.21,16.73-6.21,7.13,0,13.49,2.77,17.67,7.12,4-5.57,11.23-9.29,19.48-9.29s15.51,3.73,19.5,9.31c4.16-3.82,10.12-6.21,16.73-6.21,5.05,0,9.71,1.39,13.49,3.75,4.18-4.15,10.39-6.79,17.33-6.79s12.58,2.39,16.73,6.21c3.99-5.59,11.24-9.32,19.5-9.32,12.59,0,22.8,8.65,22.8,19.32,0,3.42-1.04,6.63-2.88,9.41,9.81,2.15,17.06,9.71,17.06,18.71Z"/>
  <text class="cls-1" transform="translate(22.72 59.77)"><tspan x="0" y="0">a</tspan></text>
  <text class="cls-2" transform="translate(56.38 39.79) scale(.58)"><tspan x="0" y="0">2</tspan></text>
  <text class="cls-1" transform="translate(76.39 59.77)"><tspan x="0" y="0" xml:space="preserve"> + b</tspan></text>
  <text class="cls-1" transform="translate(178.8 39.79) scale(.58)"><tspan x="0" y="0">2</tspan></text>
  <text class="cls-1" transform="translate(198.81 59.77)"><tspan x="0" y="0" xml:space="preserve"> = c</tspan></text>
  <text class="cls-1" transform="translate(293.13 39.79) scale(.58)"><tspan x="0" y="0">2</tspan></text>
</svg>