<?xml version="1.0" encoding="UTF-8"?>
<svg id="Layer_1" data-name="Layer 1" xmlns="http://www.w3.org/2000/svg" viewBox="0 0 275.6 34.36">
  <path d="M.14,17.11c0-1.38.21-2.49.62-3.33.41-.84.98-1.45,1.7-1.82.72-.37,1.52-.55,2.4-.55s1.67.18,2.38.55c.71.37,1.27.97,1.7,1.82.42.84.64,1.96.64,3.33s-.21,2.45-.64,3.29c-.42.84-.99,1.46-1.7,1.84-.71.38-1.5.58-2.38.58s-1.68-.19-2.4-.58c-.72-.38-1.29-1-1.7-1.84-.41-.84-.62-1.94-.62-3.29Z"/>
  <path d="M27.52,33.9h-10.96v-2.39l3.57-.87V4.37l-3.57-.92V1.06h10.96v2.39l-3.57.92v26.27l3.57.87v2.39Z"/>
  <path d="M43.83,8.79c2.72,0,4.77.71,6.16,2.14s2.08,3.73,2.08,6.92v16.05h-3.69v-15.78c0-1.99-.41-3.48-1.23-4.46-.82-.98-2.11-1.47-3.87-1.47-2.52,0-4.26.77-5.22,2.3-.96,1.53-1.44,3.74-1.44,6.62v12.79h-3.74V9.25h3.02l.55,3.36h.21c.51-.86,1.14-1.57,1.89-2.14.75-.57,1.58-.99,2.48-1.27.91-.28,1.84-.41,2.8-.41Z"/>
  <path d="M67.91,8.79c1.95,0,3.63.46,5.03,1.38,1.4.92,2.48,2.22,3.23,3.89.75,1.67,1.12,3.63,1.12,5.87v2.44h-15.59c.06,2.79.71,4.92,1.97,6.37,1.26,1.46,3.02,2.18,5.29,2.18,1.44,0,2.72-.14,3.84-.44,1.12-.29,2.27-.71,3.46-1.26v3.54c-1.16.55-2.31.96-3.44,1.22-1.13.26-2.48.39-4.04.39-2.15,0-4.06-.47-5.71-1.43-1.66-.95-2.94-2.37-3.86-4.25-.92-1.89-1.38-4.19-1.38-6.92s.42-5.01,1.25-6.95,2.01-3.42,3.53-4.46c1.51-1.04,3.28-1.56,5.29-1.56ZM67.87,12.1c-1.78,0-3.19.62-4.23,1.86-1.03,1.24-1.65,2.97-1.85,5.17h11.59c0-1.41-.2-2.64-.59-3.68-.4-1.04-1-1.86-1.8-2.46-.81-.6-1.85-.9-3.12-.9Z"/>
  <path d="M92.21,34.36c-2.01,0-3.8-.44-5.37-1.33-1.57-.89-2.8-2.27-3.69-4.14-.89-1.87-1.34-4.26-1.34-7.18s.47-5.5,1.4-7.41,2.2-3.3,3.8-4.19c1.6-.89,3.42-1.33,5.46-1.33,1.16,0,2.28.13,3.36.39,1.08.26,1.95.58,2.63.94l-1.15,3.36c-.68-.28-1.47-.54-2.38-.78-.91-.25-1.76-.37-2.55-.37-1.53,0-2.79.35-3.78,1.06-.99.71-1.73,1.75-2.21,3.13-.48,1.38-.72,3.1-.72,5.15s.24,3.63.72,5.01c.48,1.38,1.2,2.42,2.17,3.13.96.71,2.17,1.06,3.61,1.06,1.25,0,2.34-.14,3.29-.41.95-.28,1.82-.61,2.61-1.01v3.59c-.76.43-1.61.76-2.53.99s-2.03.34-3.33.34Z"/>
  <path d="M122.49,9.25v24.66h-3.06l-.55-3.27h-.17c-.48.86-1.1,1.56-1.87,2.12-.76.55-1.6.96-2.51,1.22-.91.26-1.86.39-2.85.39-1.81,0-3.33-.31-4.57-.94-1.23-.63-2.16-1.6-2.78-2.92-.62-1.32-.93-3.02-.93-5.11V9.25h3.78v15.87c0,1.96.41,3.44,1.23,4.42.82.98,2.09,1.47,3.82,1.47s3.04-.35,4.01-1.04c.98-.69,1.67-1.7,2.08-3.04s.62-2.95.62-4.85v-12.83h3.74Z"/>
  <path d="M138.33,8.83c2.77,0,4.83.66,6.16,1.98,1.33,1.32,2,3.42,2,6.3v16.79h-2.72l-.72-3.5h-.17c-.65.89-1.32,1.63-2.02,2.23-.69.6-1.49,1.04-2.38,1.31-.89.28-1.97.41-3.25.41-1.36,0-2.58-.26-3.67-.78-1.09-.52-1.95-1.33-2.57-2.42s-.93-2.46-.93-4.12c0-2.45.89-4.35,2.68-5.68,1.78-1.33,4.53-2.06,8.24-2.18l3.86-.14v-1.47c0-2.05-.41-3.48-1.23-4.28s-1.98-1.2-3.48-1.2c-1.19,0-2.32.19-3.4.58s-2.08.82-3.01,1.31l-1.15-3.04c.99-.58,2.17-1.08,3.53-1.5,1.36-.41,2.77-.62,4.25-.62ZM139.44,21.99c-2.83.12-4.79.61-5.88,1.47s-1.63,2.07-1.63,3.63c0,1.38.39,2.39,1.17,3.04.78.64,1.78.97,2.99.97,1.93,0,3.53-.58,4.8-1.72,1.27-1.15,1.91-2.92,1.91-5.31v-2.21l-3.36.14Z"/>
  <path d="M162.67,34.36c-2.01,0-3.8-.44-5.37-1.33-1.57-.89-2.8-2.27-3.69-4.14-.89-1.87-1.34-4.26-1.34-7.18s.47-5.5,1.4-7.41,2.2-3.3,3.8-4.19c1.6-.89,3.42-1.33,5.46-1.33,1.16,0,2.28.13,3.36.39,1.08.26,1.95.58,2.63.94l-1.15,3.36c-.68-.28-1.47-.54-2.38-.78-.91-.25-1.76-.37-2.55-.37-1.53,0-2.79.35-3.78,1.06-.99.71-1.73,1.75-2.21,3.13-.48,1.38-.72,3.1-.72,5.15s.24,3.63.72,5.01c.48,1.38,1.2,2.42,2.17,3.13.96.71,2.17,1.06,3.61,1.06,1.25,0,2.34-.14,3.29-.41.95-.28,1.82-.61,2.61-1.01v3.59c-.76.43-1.61.76-2.53.99s-2.03.34-3.33.34Z"/>
  <path d="M175.83,0c.57,0,1.07.21,1.51.62.44.41.66,1.07.66,1.95s-.22,1.5-.66,1.93c-.44.43-.94.64-1.51.64-.62,0-1.15-.21-1.57-.64s-.64-1.07-.64-1.93.21-1.54.64-1.95c.42-.41.95-.62,1.57-.62ZM177.66,9.25v24.66h-3.74V9.25h3.74Z"/>
  <path d="M204.67,21.53c0,2.05-.25,3.87-.74,5.45-.5,1.58-1.2,2.92-2.12,4.03-.92,1.1-2.04,1.94-3.36,2.51s-2.78.85-4.4.85c-1.5,0-2.89-.28-4.16-.85-1.27-.57-2.38-1.4-3.31-2.51-.93-1.1-1.66-2.45-2.19-4.03-.52-1.58-.79-3.4-.79-5.45,0-2.73.42-5.04,1.27-6.92.85-1.89,2.07-3.33,3.65-4.32,1.58-1,3.47-1.5,5.65-1.5,2.07,0,3.89.5,5.46,1.5,1.57,1,2.8,2.44,3.69,4.32.89,1.89,1.34,4.19,1.34,6.92ZM187.47,21.53c0,1.93.23,3.61.7,5.04s1.2,2.52,2.19,3.29c.99.77,2.25,1.15,3.78,1.15s2.79-.38,3.78-1.15c.99-.77,1.72-1.86,2.19-3.29s.7-3.1.7-5.04-.24-3.63-.72-5.01-1.21-2.45-2.19-3.2c-.98-.75-2.25-1.13-3.8-1.13-2.32,0-4.01.83-5.05,2.48-1.05,1.66-1.57,3.94-1.57,6.85Z"/>
  <path d="M221.53,8.79c2.72,0,4.77.71,6.16,2.14s2.08,3.73,2.08,6.92v16.05h-3.69v-15.78c0-1.99-.41-3.48-1.23-4.46-.82-.98-2.11-1.47-3.87-1.47-2.52,0-4.26.77-5.22,2.3-.96,1.53-1.44,3.74-1.44,6.62v12.79h-3.74V9.25h3.02l.55,3.36h.21c.51-.86,1.14-1.57,1.89-2.14.75-.57,1.58-.99,2.48-1.27.91-.28,1.84-.41,2.8-.41Z"/>
  <path d="M245.61,8.79c1.95,0,3.63.46,5.03,1.38,1.4.92,2.48,2.22,3.23,3.89.75,1.67,1.12,3.63,1.12,5.87v2.44h-15.59c.06,2.79.71,4.92,1.97,6.37,1.26,1.46,3.02,2.18,5.29,2.18,1.44,0,2.72-.14,3.84-.44,1.12-.29,2.27-.71,3.46-1.26v3.54c-1.16.55-2.31.96-3.44,1.22-1.13.26-2.48.39-4.04.39-2.15,0-4.06-.47-5.71-1.43-1.66-.95-2.94-2.37-3.86-4.25-.92-1.89-1.38-4.19-1.38-6.92s.42-5.01,1.25-6.95,2.01-3.42,3.53-4.46c1.51-1.04,3.28-1.56,5.29-1.56ZM245.57,12.1c-1.78,0-3.19.62-4.23,1.86-1.03,1.24-1.65,2.97-1.85,5.17h11.59c0-1.41-.2-2.64-.59-3.68-.4-1.04-1-1.86-1.8-2.46-.81-.6-1.85-.9-3.12-.9Z"/>
  <path d="M275.6,27.09c0,1.59-.37,2.93-1.1,4s-1.78,1.89-3.14,2.44c-1.36.55-2.97.83-4.84.83-1.59,0-2.95-.14-4.1-.41-1.15-.28-2.16-.66-3.04-1.15v-3.68c.91.49,2,.94,3.29,1.36,1.29.41,2.6.62,3.93.62,1.9,0,3.27-.33,4.12-.99.85-.66,1.27-1.54,1.27-2.64,0-.61-.16-1.17-.47-1.66-.31-.49-.87-.98-1.68-1.47s-1.96-1.04-3.46-1.66c-1.47-.61-2.73-1.23-3.78-1.84-1.05-.61-1.86-1.35-2.42-2.21-.57-.86-.85-1.96-.85-3.31,0-2.08.79-3.7,2.36-4.83,1.57-1.13,3.63-1.7,6.18-1.7,1.39,0,2.68.15,3.89.44,1.2.29,2.33.7,3.38,1.22l-1.27,3.22c-.96-.43-1.97-.8-3.02-1.1-1.05-.31-2.12-.46-3.23-.46-1.53,0-2.7.27-3.5.8-.81.54-1.21,1.27-1.21,2.19,0,.67.18,1.25.55,1.72.37.48.98.94,1.85,1.38.86.45,2.02.97,3.46,1.59,1.44.58,2.68,1.18,3.7,1.79,1.02.61,1.8,1.36,2.34,2.23.54.87.81,1.97.81,3.29Z"/>
</svg>