<?xml version="1.0" encoding="UTF-8"?>
<svg id="Layer_1" data-name="Layer 1" xmlns="http://www.w3.org/2000/svg" viewBox="0 0 189.22 83.63">
  <path d="M.27,25.06c0-1.3.22-2.34.65-3.14.43-.79,1.04-1.36,1.8-1.71.76-.35,1.61-.52,2.54-.52s1.77.17,2.52.52c.75.35,1.35.92,1.8,1.71.45.79.67,1.84.67,3.14s-.22,2.3-.67,3.1-1.05,1.37-1.8,1.73c-.75.36-1.59.54-2.52.54s-1.78-.18-2.54-.54c-.77-.36-1.37-.94-1.8-1.73s-.65-1.83-.65-3.1Z"/>
  <path d="M39.33,40.87l-3.87-9.57h-12.74l-3.83,9.57h-4.09l12.55-31.04h3.65l12.51,31.04h-4.18ZM30.64,18.48c-.09-.23-.24-.65-.45-1.25-.21-.61-.41-1.23-.61-1.88s-.35-1.15-.47-1.49c-.15.58-.31,1.16-.47,1.75-.17.59-.33,1.13-.5,1.62-.17.49-.31.91-.43,1.25l-3.65,9.35h10.17l-3.6-9.35ZM35.77.43c-.27.4-.66.89-1.17,1.47-.51.58-1.07,1.18-1.69,1.8-.62.62-1.23,1.21-1.84,1.77-.62.56-1.19,1.05-1.73,1.45h-2.61v-.52c.45-.55.94-1.2,1.46-1.95.52-.75,1.04-1.52,1.55-2.32.51-.79.93-1.51,1.26-2.14h4.77v.43Z"/>
  <path d="M58.99,17.23c2.88,0,5.06.67,6.53,2.01s2.21,3.51,2.21,6.51v15.11h-3.92v-14.85c0-1.88-.44-3.27-1.3-4.2-.87-.92-2.24-1.38-4.1-1.38-2.67,0-4.51.72-5.53,2.16-1.02,1.44-1.53,3.52-1.53,6.23v12.03h-3.96v-23.2h3.19l.59,3.16h.22c.54-.81,1.21-1.48,2-2.01s1.67-.93,2.63-1.19,1.95-.39,2.97-.39Z"/>
  <path d="M83.74,17.23c1.59,0,3.02.29,4.3.87,1.27.58,2.36,1.46,3.26,2.64h.23l.54-3.07h3.15v23.59c0,2.19-.39,4.03-1.17,5.52s-1.96,2.6-3.55,3.36c-1.59.75-3.62,1.12-6.08,1.12-1.74,0-3.34-.12-4.79-.37-1.46-.25-2.75-.61-3.89-1.1v-3.51c1.14.58,2.47,1.02,4,1.34,1.53.32,3.17.48,4.91.48,2.07,0,3.7-.58,4.88-1.75,1.18-1.17,1.78-2.76,1.78-4.78v-.91c0-.35.02-.84.05-1.49.03-.65.06-1.1.09-1.36h-.18c-.84,1.18-1.88,2.06-3.13,2.64-1.25.58-2.69.87-4.34.87-3.12,0-5.56-1.05-7.31-3.16s-2.63-5.05-2.63-8.83.88-6.63,2.63-8.81c1.75-2.18,4.18-3.27,7.27-3.27ZM84.28,20.43c-1.35,0-2.5.35-3.44,1.04s-1.67,1.7-2.16,3.03c-.5,1.33-.74,2.94-.74,4.85,0,2.86.55,5.04,1.64,6.56,1.09,1.51,2.69,2.27,4.79,2.27,1.23,0,2.28-.15,3.15-.46.87-.3,1.59-.78,2.16-1.43.57-.65.99-1.48,1.26-2.49.27-1.01.41-2.21.41-3.59v-.91c0-2.11-.25-3.81-.74-5.11-.5-1.3-1.27-2.25-2.32-2.86-1.05-.61-2.38-.91-4-.91Z"/>
  <path d="M123.03,17.66v23.2h-3.24l-.58-3.07h-.18c-.51.81-1.17,1.47-1.98,1.99s-1.7.9-2.66,1.15c-.96.24-1.96.37-3.01.37-1.92,0-3.53-.3-4.84-.89-1.3-.59-2.29-1.51-2.95-2.75-.66-1.24-.99-2.84-.99-4.81v-15.19h4v14.93c0,1.85.43,3.23,1.31,4.16.87.92,2.22,1.39,4.05,1.39s3.22-.33,4.25-.97c1.03-.65,1.77-1.6,2.2-2.86.43-1.25.65-2.78.65-4.57v-12.08h3.96Z"/>
  <path d="M134.64,40.87h-3.96V7.96h3.96v32.9Z"/>
  <path d="M163.25,29.22c0,1.93-.26,3.64-.79,5.13-.53,1.49-1.28,2.75-2.25,3.79-.98,1.04-2.16,1.83-3.56,2.36-1.39.53-2.95.8-4.66.8-1.59,0-3.06-.27-4.41-.8-1.35-.53-2.52-1.32-3.51-2.36-.99-1.04-1.76-2.3-2.32-3.79-.56-1.49-.83-3.2-.83-5.13,0-2.57.45-4.74,1.35-6.52.9-1.77,2.19-3.13,3.87-4.07,1.68-.94,3.67-1.41,5.98-1.41,2.19,0,4.12.47,5.78,1.41,1.67.94,2.97,2.29,3.92,4.07.94,1.78,1.42,3.95,1.42,6.52ZM145.03,29.22c0,1.82.25,3.4.74,4.74s1.27,2.37,2.32,3.09c1.05.72,2.38,1.08,4,1.08s2.96-.36,4-1.08c1.05-.72,1.82-1.75,2.32-3.09.5-1.34.74-2.92.74-4.74s-.26-3.42-.77-4.72-1.28-2.3-2.32-3.01c-1.04-.71-2.38-1.06-4.03-1.06-2.46,0-4.25.78-5.35,2.34-1.11,1.56-1.67,3.71-1.67,6.45Z"/>
  <path d="M185.22,34.46c0,1.5-.39,2.76-1.17,3.77-.78,1.01-1.89,1.78-3.33,2.29-1.44.52-3.15.78-5.13.78-1.68,0-3.13-.13-4.34-.39s-2.29-.62-3.22-1.08v-3.46c.96.46,2.12.89,3.49,1.28s2.75.58,4.16.58c2.01,0,3.46-.31,4.37-.93.9-.62,1.35-1.45,1.35-2.49,0-.58-.17-1.1-.5-1.56-.33-.46-.92-.92-1.78-1.38-.86-.46-2.08-.98-3.67-1.56-1.56-.58-2.9-1.15-4-1.73-1.11-.58-1.96-1.27-2.56-2.08-.6-.81-.9-1.85-.9-3.12,0-1.96.83-3.48,2.5-4.54,1.66-1.07,3.85-1.6,6.55-1.6,1.47,0,2.84.14,4.12.41s2.47.66,3.58,1.15l-1.35,3.03c-1.02-.4-2.08-.75-3.19-1.04-1.11-.29-2.25-.43-3.42-.43-1.62,0-2.86.25-3.71.76-.85.5-1.28,1.19-1.28,2.06,0,.63.19,1.18.58,1.62.39.45,1.04.88,1.96,1.3.92.42,2.14.92,3.67,1.49,1.53.55,2.83,1.11,3.92,1.69,1.08.58,1.9,1.28,2.47,2.1.57.82.86,1.85.86,3.1Z"/>
  <path d="M23.94,59.56c2.88,0,5.06.67,6.53,2.01s2.21,3.51,2.21,6.51v15.11h-3.92v-14.85c0-1.88-.44-3.27-1.3-4.2-.87-.92-2.24-1.38-4.1-1.38-2.67,0-4.51.72-5.53,2.16-1.02,1.44-1.53,3.52-1.53,6.23v12.03h-3.96v-23.2h3.19l.59,3.16h.22c.54-.81,1.21-1.48,2-2.01s1.67-.93,2.63-1.19,1.95-.39,2.97-.39Z"/>
  <path d="M61.11,71.55c0,1.93-.26,3.64-.79,5.13-.53,1.49-1.28,2.75-2.25,3.79-.98,1.04-2.16,1.83-3.56,2.36-1.39.53-2.95.8-4.66.8-1.59,0-3.06-.27-4.41-.8-1.35-.53-2.52-1.32-3.51-2.36-.99-1.04-1.76-2.3-2.32-3.79-.56-1.49-.83-3.2-.83-5.13,0-2.57.45-4.74,1.35-6.52.9-1.77,2.19-3.13,3.87-4.07,1.68-.94,3.67-1.41,5.98-1.41,2.19,0,4.12.47,5.78,1.41,1.67.94,2.97,2.29,3.92,4.07.94,1.78,1.42,3.95,1.42,6.52ZM42.88,71.55c0,1.82.25,3.4.74,4.74s1.27,2.37,2.32,3.09c1.05.72,2.38,1.08,4,1.08s2.96-.36,4-1.08c1.05-.72,1.82-1.75,2.32-3.09.5-1.34.74-2.92.74-4.74s-.26-3.42-.77-4.72-1.28-2.3-2.32-3.01c-1.04-.71-2.38-1.06-4.03-1.06-2.46,0-4.25.78-5.35,2.34-1.11,1.56-1.67,3.71-1.67,6.45Z"/>
  <path d="M75.42,80.51c.6,0,1.21-.05,1.84-.15.63-.1,1.14-.21,1.53-.33v2.9c-.42.2-1.02.37-1.8.5-.78.13-1.53.2-2.25.2-1.26,0-2.42-.21-3.49-.63-1.07-.42-1.93-1.15-2.59-2.19-.66-1.04-.99-2.5-.99-4.37v-13.51h-3.42v-1.82l3.46-1.51,1.58-4.94h2.34v5.33h6.98v2.94h-6.98v13.42c0,1.42.35,2.46,1.06,3.14.71.68,1.61,1.02,2.72,1.02Z"/>
  <path d="M92.74,59.6c2.94,0,5.11.62,6.53,1.86,1.41,1.24,2.11,3.22,2.11,5.93v15.8h-2.88l-.76-3.29h-.18c-.69.84-1.4,1.54-2.14,2.1-.74.56-1.58.97-2.52,1.23-.94.26-2.09.39-3.44.39-1.44,0-2.74-.25-3.89-.74s-2.06-1.25-2.72-2.27-.99-2.32-.99-3.88c0-2.31.94-4.09,2.83-5.35,1.89-1.26,4.8-1.94,8.73-2.06l4.1-.13v-1.39c0-1.93-.44-3.27-1.31-4.03-.87-.75-2.1-1.13-3.69-1.13-1.26,0-2.46.18-3.6.54-1.14.36-2.21.77-3.19,1.23l-1.22-2.86c1.05-.55,2.29-1.02,3.74-1.41s2.94-.58,4.5-.58ZM93.91,71.98c-3,.12-5.08.58-6.23,1.39-1.16.81-1.73,1.95-1.73,3.42,0,1.3.41,2.25,1.24,2.86.83.61,1.88.91,3.17.91,2.04,0,3.73-.54,5.08-1.62,1.35-1.08,2.02-2.75,2.02-5v-2.08l-3.55.13Z"/>
  <path d="M112.81,58.3c0,.98-.02,1.9-.07,2.75-.04.85-.1,1.52-.16,2.01h.23c.69-.98,1.63-1.8,2.83-2.47,1.2-.66,2.75-1,4.63-1,3,0,5.41,1,7.22,3.01,1.81,2.01,2.72,5,2.72,8.98,0,2.66-.41,4.88-1.24,6.67-.83,1.79-1.99,3.13-3.49,4.03-1.5.9-3.24,1.34-5.22,1.34s-3.44-.33-4.63-1c-1.2-.66-2.15-1.46-2.83-2.38h-.32l-.81,2.94h-2.83v-32.9h3.96v8.01ZM119.61,62.76c-1.71,0-3.06.31-4.05.93-.99.62-1.7,1.57-2.12,2.86-.42,1.28-.63,2.92-.63,4.91v.17c0,2.86.49,5.04,1.46,6.56.97,1.52,2.78,2.27,5.42,2.27,2.16,0,3.77-.76,4.84-2.29,1.06-1.53,1.6-3.74,1.6-6.62s-.53-5.11-1.6-6.58c-1.07-1.47-2.71-2.21-4.93-2.21Z"/>
  <path d="M140.49,83.19h-3.96v-32.9h3.96v32.9Z"/>
  <path d="M157.45,59.56c2.07,0,3.85.43,5.33,1.3,1.48.87,2.62,2.09,3.42,3.66.79,1.57,1.19,3.41,1.19,5.52v2.29h-16.51c.06,2.63.76,4.62,2.09,6,1.33,1.37,3.2,2.06,5.6,2.06,1.53,0,2.89-.14,4.07-.41,1.18-.27,2.41-.67,3.67-1.19v3.33c-1.23.52-2.45.9-3.64,1.15-1.2.24-2.63.37-4.28.37-2.28,0-4.3-.45-6.05-1.34-1.75-.89-3.12-2.23-4.09-4-.98-1.78-1.46-3.95-1.46-6.52s.44-4.72,1.33-6.54c.88-1.82,2.13-3.22,3.73-4.2s3.47-1.47,5.6-1.47ZM157.4,62.67c-1.89,0-3.38.58-4.48,1.75s-1.75,2.79-1.96,4.87h12.29c0-1.33-.21-2.48-.63-3.46-.42-.98-1.06-1.75-1.91-2.32-.85-.56-1.96-.84-3.31-.84Z"/>
  <path d="M189.22,76.79c0,1.5-.39,2.76-1.17,3.77-.78,1.01-1.89,1.78-3.33,2.29-1.44.52-3.15.78-5.13.78-1.68,0-3.13-.13-4.34-.39s-2.29-.62-3.22-1.08v-3.46c.96.46,2.12.89,3.49,1.28s2.75.58,4.16.58c2.01,0,3.46-.31,4.37-.93.9-.62,1.35-1.45,1.35-2.49,0-.58-.17-1.1-.5-1.56-.33-.46-.92-.92-1.78-1.38-.86-.46-2.08-.98-3.67-1.56-1.56-.58-2.9-1.15-4-1.73-1.11-.58-1.96-1.27-2.56-2.08-.6-.81-.9-1.85-.9-3.12,0-1.96.83-3.48,2.5-4.54,1.66-1.07,3.85-1.6,6.55-1.6,1.47,0,2.84.14,4.12.41s2.47.66,3.58,1.15l-1.35,3.03c-1.02-.4-2.08-.75-3.19-1.04-1.11-.29-2.25-.43-3.42-.43-1.62,0-2.86.25-3.71.76-.85.5-1.28,1.19-1.28,2.06,0,.63.19,1.18.58,1.62.39.45,1.04.88,1.96,1.3.92.42,2.14.92,3.67,1.49,1.53.55,2.83,1.11,3.92,1.69,1.08.58,1.9,1.28,2.47,2.1.57.82.86,1.85.86,3.1Z"/>
</svg>