<?xml version="1.0" encoding="UTF-8"?>
<svg id="Layer_1" data-name="Layer 1" xmlns="http://www.w3.org/2000/svg" viewBox="0 0 279.7 85.62">
  <path d="M1.18,17.1c0-1.3.21-2.34.64-3.14.43-.79,1.02-1.36,1.77-1.71.75-.35,1.58-.52,2.5-.52s1.74.17,2.47.52c.74.35,1.32.92,1.77,1.71.44.79.66,1.84.66,3.14s-.22,2.3-.66,3.1c-.44.79-1.03,1.37-1.77,1.73-.74.36-1.56.54-2.47.54s-1.74-.18-2.5-.54c-.75-.36-1.34-.94-1.77-1.73s-.64-1.83-.64-3.1Z"/>
  <path d="M20.06,32.9V1.99h3.97v27.45h13.78v3.46h-17.75Z"/>
  <path d="M51.81,9.26c2.03,0,3.78.43,5.23,1.3,1.46.87,2.58,2.09,3.36,3.66.78,1.57,1.17,3.41,1.17,5.52v2.29h-16.21c.06,2.63.74,4.62,2.05,6,1.31,1.37,3.14,2.06,5.5,2.06,1.5,0,2.83-.14,4-.41,1.16-.27,2.36-.67,3.6-1.19v3.33c-1.21.52-2.4.9-3.58,1.15-1.18.24-2.58.37-4.19.37-2.24,0-4.22-.45-5.94-1.34-1.72-.89-3.06-2.23-4.02-4-.96-1.78-1.43-3.95-1.43-6.52s.43-4.72,1.3-6.54c.87-1.82,2.09-3.22,3.67-4.2,1.57-.98,3.41-1.47,5.5-1.47ZM51.77,12.38c-1.85,0-3.32.58-4.39,1.75-1.08,1.17-1.71,2.79-1.92,4.87h12.05c0-1.33-.21-2.48-.62-3.46-.41-.98-1.04-1.75-1.88-2.32-.84-.56-1.92-.84-3.25-.84Z"/>
  <path d="M62.98,9.7h4.15l5.12,13.2c.29.78.57,1.53.82,2.25.25.72.48,1.42.68,2.1.21.68.37,1.34.49,1.97h.18c.18-.72.46-1.67.84-2.83s.78-2.34,1.19-3.53l4.81-13.16h4.19l-10.2,26.41c-.56,1.44-1.21,2.71-1.96,3.79-.75,1.08-1.66,1.92-2.74,2.51-1.08.59-2.38.89-3.91.89-.71,0-1.32-.04-1.85-.11s-.99-.15-1.37-.24v-3.03c.32.06.71.11,1.17.17.46.06.93.09,1.43.09.91,0,1.7-.17,2.36-.5.66-.33,1.23-.81,1.7-1.43.47-.62.87-1.35,1.19-2.19l1.24-3.07-9.54-23.29Z"/>
  <path d="M109.08,33.33c-2.94,0-5.3-1-7.06-3.01-1.77-2.01-2.65-5-2.65-8.98s.89-6.99,2.67-9.03c1.78-2.04,4.14-3.05,7.09-3.05,1.24,0,2.31.15,3.22.45s1.71.71,2.38,1.23c.68.52,1.25,1.1,1.72,1.73h.27c-.03-.38-.08-.93-.15-1.67-.07-.74-.11-1.32-.11-1.75V0h3.89v32.9h-3.13l-.57-3.12h-.18c-.47.66-1.04,1.26-1.72,1.8-.68.53-1.48.96-2.41,1.28-.93.32-2.01.48-3.25.48ZM109.7,30.17c2.5,0,4.26-.67,5.28-2.01s1.52-3.37,1.52-6.08v-.69c0-2.89-.49-5.1-1.46-6.65-.97-1.54-2.77-2.32-5.39-2.32-2.09,0-3.66.82-4.7,2.45-1.05,1.63-1.57,3.82-1.57,6.56s.52,4.92,1.57,6.45c1.04,1.53,2.63,2.29,4.75,2.29Z"/>
  <path d="M136.99,9.26c2.03,0,3.78.43,5.23,1.3,1.46.87,2.58,2.09,3.36,3.66.78,1.57,1.17,3.41,1.17,5.52v2.29h-16.21c.06,2.63.74,4.62,2.05,6,1.31,1.37,3.14,2.06,5.5,2.06,1.5,0,2.83-.14,4-.41,1.16-.27,2.36-.67,3.6-1.19v3.33c-1.21.52-2.4.9-3.58,1.15-1.18.24-2.58.37-4.19.37-2.24,0-4.22-.45-5.94-1.34-1.72-.89-3.06-2.23-4.02-4-.96-1.78-1.43-3.95-1.43-6.52s.43-4.72,1.3-6.54c.87-1.82,2.09-3.22,3.67-4.2,1.57-.98,3.41-1.47,5.5-1.47ZM136.94,12.38c-1.85,0-3.32.58-4.39,1.75-1.08,1.17-1.71,2.79-1.92,4.87h12.05c0-1.33-.21-2.48-.62-3.46-.41-.98-1.04-1.75-1.88-2.32-.84-.56-1.92-.84-3.25-.84Z"/>
  <path d="M179.64,26.49c0,1.5-.38,2.76-1.15,3.77-.77,1.01-1.85,1.78-3.27,2.29s-3.09.78-5.03.78c-1.65,0-3.07-.13-4.26-.39s-2.25-.62-3.16-1.08v-3.46c.94.46,2.08.89,3.42,1.28s2.7.58,4.08.58c1.97,0,3.4-.31,4.28-.93.88-.62,1.32-1.45,1.32-2.49,0-.58-.16-1.1-.49-1.56-.32-.46-.91-.92-1.74-1.38s-2.04-.98-3.6-1.56c-1.53-.58-2.84-1.15-3.93-1.73-1.09-.58-1.93-1.27-2.52-2.08-.59-.81-.88-1.85-.88-3.12,0-1.96.82-3.48,2.45-4.54,1.63-1.07,3.77-1.6,6.42-1.6,1.44,0,2.79.14,4.04.41,1.25.27,2.42.66,3.51,1.15l-1.32,3.03c-1-.4-2.05-.75-3.13-1.04-1.09-.29-2.21-.43-3.36-.43-1.59,0-2.8.25-3.64.76s-1.26,1.19-1.26,2.06c0,.63.19,1.18.57,1.62.38.45,1.02.88,1.92,1.3.9.42,2.1.92,3.6,1.49,1.5.55,2.78,1.11,3.84,1.69,1.06.58,1.87,1.28,2.43,2.1.56.82.84,1.85.84,3.1Z"/>
  <path d="M194.52,9.26c2.03,0,3.78.43,5.23,1.3,1.46.87,2.58,2.09,3.36,3.66.78,1.57,1.17,3.41,1.17,5.52v2.29h-16.21c.06,2.63.74,4.62,2.05,6,1.31,1.37,3.14,2.06,5.5,2.06,1.5,0,2.83-.14,4-.41,1.16-.27,2.36-.67,3.6-1.19v3.33c-1.21.52-2.4.9-3.58,1.15-1.18.24-2.58.37-4.19.37-2.24,0-4.22-.45-5.94-1.34-1.72-.89-3.06-2.23-4.02-4-.96-1.78-1.43-3.95-1.43-6.52s.43-4.72,1.3-6.54c.87-1.82,2.09-3.22,3.67-4.2,1.57-.98,3.41-1.47,5.5-1.47ZM194.48,12.38c-1.85,0-3.32.58-4.39,1.75-1.08,1.17-1.71,2.79-1.92,4.87h12.05c0-1.33-.21-2.48-.62-3.46-.41-.98-1.04-1.75-1.88-2.32-.84-.56-1.92-.84-3.25-.84Z"/>
  <path d="M221.68,9.26c2.83,0,4.96.67,6.4,2.01s2.16,3.51,2.16,6.51v15.11h-3.84v-14.85c0-1.88-.43-3.27-1.28-4.2-.85-.92-2.19-1.38-4.02-1.38-2.62,0-4.43.72-5.43,2.16-1,1.44-1.5,3.52-1.5,6.23v12.03h-3.89V9.7h3.14l.57,3.16h.22c.53-.81,1.18-1.48,1.96-2.01.78-.53,1.64-.93,2.58-1.19.94-.26,1.91-.39,2.91-.39Z"/>
  <path d="M258.15,21.26c0,1.93-.26,3.64-.77,5.13-.52,1.49-1.25,2.75-2.21,3.79-.96,1.04-2.12,1.83-3.49,2.36-1.37.53-2.89.8-4.57.8-1.56,0-3-.27-4.33-.8-1.33-.53-2.47-1.32-3.44-2.36-.97-1.04-1.73-2.3-2.27-3.79s-.82-3.2-.82-5.13c0-2.57.44-4.74,1.32-6.52.88-1.77,2.15-3.13,3.8-4.07,1.65-.94,3.61-1.41,5.87-1.41,2.15,0,4.04.47,5.67,1.41,1.63.94,2.91,2.29,3.84,4.07.93,1.78,1.39,3.95,1.39,6.52ZM240.27,21.26c0,1.82.24,3.4.73,4.74.49,1.34,1.24,2.37,2.27,3.09,1.03.72,2.34,1.08,3.93,1.08s2.9-.36,3.93-1.08c1.03-.72,1.79-1.75,2.27-3.09.49-1.34.73-2.92.73-4.74s-.25-3.42-.75-4.72c-.5-1.3-1.26-2.3-2.27-3.01-1.02-.71-2.33-1.06-3.95-1.06-2.41,0-4.17.78-5.25,2.34-1.09,1.56-1.63,3.71-1.63,6.45Z"/>
  <path d="M279.7,26.49c0,1.5-.38,2.76-1.15,3.77-.77,1.01-1.85,1.78-3.27,2.29s-3.09.78-5.03.78c-1.65,0-3.07-.13-4.26-.39s-2.25-.62-3.16-1.08v-3.46c.94.46,2.08.89,3.42,1.28s2.7.58,4.08.58c1.97,0,3.4-.31,4.28-.93.88-.62,1.32-1.45,1.32-2.49,0-.58-.16-1.1-.49-1.56-.32-.46-.91-.92-1.74-1.38s-2.04-.98-3.6-1.56c-1.53-.58-2.84-1.15-3.93-1.73-1.09-.58-1.93-1.27-2.52-2.08-.59-.81-.88-1.85-.88-3.12,0-1.96.82-3.48,2.45-4.54,1.63-1.07,3.77-1.6,6.42-1.6,1.44,0,2.79.14,4.04.41,1.25.27,2.42.66,3.51,1.15l-1.32,3.03c-1-.4-2.05-.75-3.13-1.04-1.09-.29-2.21-.43-3.36-.43-1.59,0-2.8.25-3.64.76s-1.26,1.19-1.26,2.06c0,.63.19,1.18.57,1.62.38.45,1.02.88,1.92,1.3.9.42,2.1.92,3.6,1.49,1.5.55,2.78,1.11,3.84,1.69,1.06.58,1.87,1.28,2.43,2.1.56.82.84,1.85.84,3.1Z"/>
  <path d="M9.3,52.03h4.15l5.12,13.2c.29.78.57,1.53.82,2.25.25.72.48,1.42.68,2.1.21.68.37,1.34.49,1.97h.18c.18-.72.46-1.67.84-2.83s.78-2.34,1.19-3.53l4.81-13.16h4.19l-10.2,26.41c-.56,1.44-1.21,2.71-1.96,3.79-.75,1.08-1.66,1.92-2.74,2.51-1.08.59-2.38.89-3.91.89-.71,0-1.32-.04-1.85-.11s-.99-.15-1.37-.24v-3.03c.32.06.71.11,1.17.17.46.06.93.09,1.43.09.91,0,1.7-.17,2.36-.5.66-.33,1.23-.81,1.7-1.43.47-.62.87-1.35,1.19-2.19l1.24-3.07-9.54-23.29Z"/>
  <path d="M56.51,75.66c-2.09,0-3.95-.42-5.59-1.26s-2.91-2.14-3.84-3.9c-.93-1.76-1.39-4.01-1.39-6.75s.49-5.18,1.46-6.97c.97-1.79,2.29-3.1,3.95-3.94,1.66-.84,3.55-1.25,5.67-1.25,1.21,0,2.37.12,3.49.37,1.12.25,2.03.54,2.74.89l-1.19,3.16c-.71-.26-1.53-.5-2.47-.74-.94-.23-1.83-.35-2.65-.35-1.59,0-2.9.33-3.93,1s-1.8,1.64-2.3,2.94c-.5,1.3-.75,2.92-.75,4.85s.25,3.42.75,4.72c.5,1.3,1.25,2.28,2.25,2.94s2.25,1,3.75,1c1.29,0,2.44-.13,3.42-.39.99-.26,1.89-.58,2.72-.95v3.38c-.79.4-1.67.71-2.63.93-.96.22-2.11.33-3.47.33Z"/>
  <path d="M88.79,63.58c0,1.93-.26,3.64-.77,5.13-.52,1.49-1.25,2.75-2.21,3.79-.96,1.04-2.12,1.83-3.49,2.36-1.37.53-2.89.8-4.57.8-1.56,0-3-.27-4.33-.8-1.33-.53-2.47-1.32-3.44-2.36-.97-1.04-1.73-2.3-2.27-3.79s-.82-3.2-.82-5.13c0-2.57.44-4.74,1.32-6.52.88-1.77,2.15-3.13,3.8-4.07,1.65-.94,3.61-1.41,5.87-1.41,2.15,0,4.04.47,5.67,1.41,1.63.94,2.91,2.29,3.84,4.07.93,1.78,1.39,3.95,1.39,6.52ZM70.9,63.58c0,1.82.24,3.4.73,4.74.49,1.34,1.24,2.37,2.27,3.09,1.03.72,2.34,1.08,3.93,1.08s2.9-.36,3.93-1.08c1.03-.72,1.79-1.75,2.27-3.09.49-1.34.73-2.92.73-4.74s-.25-3.42-.75-4.72c-.5-1.3-1.26-2.3-2.27-3.01-1.02-.71-2.33-1.06-3.95-1.06-2.41,0-4.17.78-5.25,2.34-1.09,1.56-1.63,3.71-1.63,6.45Z"/>
  <path d="M110.33,68.82c0,1.5-.38,2.76-1.15,3.77-.77,1.01-1.85,1.78-3.27,2.29s-3.09.78-5.03.78c-1.65,0-3.07-.13-4.26-.39s-2.25-.62-3.16-1.08v-3.46c.94.46,2.08.89,3.42,1.28s2.7.58,4.08.58c1.97,0,3.4-.31,4.28-.93.88-.62,1.32-1.45,1.32-2.49,0-.58-.16-1.1-.49-1.56-.32-.46-.91-.92-1.74-1.38s-2.04-.98-3.6-1.56c-1.53-.58-2.84-1.15-3.93-1.73-1.09-.58-1.93-1.27-2.52-2.08-.59-.81-.88-1.85-.88-3.12,0-1.96.82-3.48,2.45-4.54,1.63-1.07,3.77-1.6,6.42-1.6,1.44,0,2.79.14,4.04.41,1.25.27,2.42.66,3.51,1.15l-1.32,3.03c-1-.4-2.05-.75-3.13-1.04-1.09-.29-2.21-.43-3.36-.43-1.59,0-2.8.25-3.64.76s-1.26,1.19-1.26,2.06c0,.63.19,1.18.57,1.62.38.45,1.02.88,1.92,1.3.9.42,2.1.92,3.6,1.49,1.5.55,2.78,1.11,3.84,1.69,1.06.58,1.87,1.28,2.43,2.1.56.82.84,1.85.84,3.1Z"/>
  <path d="M125.21,51.59c2.03,0,3.78.43,5.23,1.3,1.46.87,2.58,2.09,3.36,3.66.78,1.57,1.17,3.41,1.17,5.52v2.29h-16.21c.06,2.63.74,4.62,2.05,6,1.31,1.37,3.14,2.06,5.5,2.06,1.5,0,2.83-.14,4-.41,1.16-.27,2.36-.67,3.6-1.19v3.33c-1.21.52-2.4.9-3.58,1.15-1.18.24-2.58.37-4.19.37-2.24,0-4.22-.45-5.94-1.34-1.72-.89-3.06-2.23-4.02-4-.96-1.78-1.43-3.95-1.43-6.52s.43-4.72,1.3-6.54c.87-1.82,2.09-3.22,3.67-4.2,1.57-.98,3.41-1.47,5.5-1.47ZM125.17,54.71c-1.85,0-3.32.58-4.39,1.75-1.08,1.17-1.71,2.79-1.92,4.87h12.05c0-1.33-.21-2.48-.62-3.46-.41-.98-1.04-1.75-1.88-2.32-.84-.56-1.92-.84-3.25-.84Z"/>
  <path d="M152.37,51.59c2.83,0,4.96.67,6.4,2.01s2.16,3.51,2.16,6.51v15.11h-3.84v-14.85c0-1.88-.43-3.27-1.28-4.2-.85-.92-2.19-1.38-4.02-1.38-2.62,0-4.43.72-5.43,2.16-1,1.44-1.5,3.52-1.5,6.23v12.03h-3.89v-23.2h3.14l.57,3.16h.22c.53-.81,1.18-1.48,1.96-2.01.78-.53,1.64-.93,2.58-1.19.94-.26,1.91-.39,2.91-.39Z"/>
  <path d="M188.84,63.58c0,1.93-.26,3.64-.77,5.13-.52,1.49-1.25,2.75-2.21,3.79-.96,1.04-2.12,1.83-3.49,2.36-1.37.53-2.89.8-4.57.8-1.56,0-3-.27-4.33-.8-1.33-.53-2.47-1.32-3.44-2.36-.97-1.04-1.73-2.3-2.27-3.79s-.82-3.2-.82-5.13c0-2.57.44-4.74,1.32-6.52.88-1.77,2.15-3.13,3.8-4.07,1.65-.94,3.61-1.41,5.87-1.41,2.15,0,4.04.47,5.67,1.41,1.63.94,2.91,2.29,3.84,4.07.93,1.78,1.39,3.95,1.39,6.52ZM170.96,63.58c0,1.82.24,3.4.73,4.74.49,1.34,1.24,2.37,2.27,3.09,1.03.72,2.34,1.08,3.93,1.08s2.9-.36,3.93-1.08c1.03-.72,1.79-1.75,2.27-3.09.49-1.34.73-2.92.73-4.74s-.25-3.42-.75-4.72c-.5-1.3-1.26-2.3-2.27-3.01-1.02-.71-2.33-1.06-3.95-1.06-2.41,0-4.17.78-5.25,2.34-1.09,1.56-1.63,3.71-1.63,6.45Z"/>
  <path d="M210.39,68.82c0,1.5-.38,2.76-1.15,3.77-.77,1.01-1.85,1.78-3.27,2.29s-3.09.78-5.03.78c-1.65,0-3.07-.13-4.26-.39s-2.25-.62-3.16-1.08v-3.46c.94.46,2.08.89,3.42,1.28s2.7.58,4.08.58c1.97,0,3.4-.31,4.28-.93.88-.62,1.32-1.45,1.32-2.49,0-.58-.16-1.1-.49-1.56-.32-.46-.91-.92-1.74-1.38s-2.04-.98-3.6-1.56c-1.53-.58-2.84-1.15-3.93-1.73-1.09-.58-1.93-1.27-2.52-2.08-.59-.81-.88-1.85-.88-3.12,0-1.96.82-3.48,2.45-4.54,1.63-1.07,3.77-1.6,6.42-1.6,1.44,0,2.79.14,4.04.41,1.25.27,2.42.66,3.51,1.15l-1.32,3.03c-1-.4-2.05-.75-3.13-1.04-1.09-.29-2.21-.43-3.36-.43-1.59,0-2.8.25-3.64.76s-1.26,1.19-1.26,2.06c0,.63.19,1.18.57,1.62.38.45,1.02.88,1.92,1.3.9.42,2.1.92,3.6,1.49,1.5.55,2.78,1.11,3.84,1.69,1.06.58,1.87,1.28,2.43,2.1.56.82.84,1.85.84,3.1Z"/>
</svg>