<?xml version="1.0" encoding="UTF-8"?>
<svg id="Layer_1" data-name="Layer 1" xmlns="http://www.w3.org/2000/svg" viewBox="0 0 231.58 34.36">
  <path d="M.28,17.11c0-1.38.22-2.49.67-3.33.44-.84,1.06-1.45,1.84-1.82.78-.37,1.65-.55,2.6-.55s1.81.18,2.58.55c.77.37,1.38.97,1.84,1.82.46.84.69,1.96.69,3.33s-.23,2.45-.69,3.29c-.46.84-1.07,1.46-1.84,1.84-.77.38-1.63.58-2.58.58s-1.82-.19-2.6-.58c-.78-.38-1.4-1-1.84-1.84-.45-.84-.67-1.94-.67-3.29Z"/>
  <path d="M23.34,33.9h-4.14V1.06h18.35v3.63h-14.21v11.64h13.34v3.63h-13.34v13.94Z"/>
  <path d="M63.13,9.25v24.66h-3.31l-.6-3.27h-.18c-.52.86-1.2,1.56-2.02,2.12-.83.55-1.73.96-2.71,1.22-.98.26-2.01.39-3.08.39-1.96,0-3.61-.31-4.94-.94-1.33-.63-2.34-1.6-3.01-2.92s-1.01-3.02-1.01-5.11V9.25h4.09v15.87c0,1.96.44,3.44,1.33,4.42.89.98,2.27,1.47,4.14,1.47s3.29-.35,4.35-1.04c1.06-.69,1.81-1.7,2.25-3.04.44-1.33.67-2.95.67-4.85v-12.83h4.05Z"/>
  <path d="M82.82,8.79c2.94,0,5.17.71,6.67,2.14,1.5,1.43,2.25,3.73,2.25,6.92v16.05h-4v-15.78c0-1.99-.45-3.48-1.33-4.46-.89-.98-2.29-1.47-4.19-1.47-2.73,0-4.62.77-5.66,2.3-1.04,1.53-1.56,3.74-1.56,6.62v12.79h-4.05V9.25h3.27l.6,3.36h.23c.55-.86,1.23-1.57,2.05-2.14s1.71-.99,2.69-1.27c.98-.28,1.99-.41,3.04-.41Z"/>
  <path d="M109.27,34.36c-2.18,0-4.12-.44-5.82-1.33-1.7-.89-3.04-2.27-4-4.14-.97-1.87-1.45-4.26-1.45-7.18s.51-5.5,1.52-7.41,2.38-3.3,4.12-4.19c1.73-.89,3.7-1.33,5.91-1.33,1.26,0,2.47.13,3.63.39,1.17.26,2.12.58,2.85.94l-1.24,3.36c-.74-.28-1.59-.54-2.58-.78-.98-.25-1.9-.37-2.76-.37-1.66,0-3.02.35-4.09,1.06-1.07.71-1.87,1.75-2.39,3.13-.52,1.38-.78,3.1-.78,5.15s.26,3.63.78,5.01c.52,1.38,1.3,2.42,2.35,3.13,1.04.71,2.35,1.06,3.91,1.06,1.35,0,2.54-.14,3.56-.41,1.03-.28,1.97-.61,2.83-1.01v3.59c-.83.43-1.74.76-2.74.99-1,.23-2.2.34-3.61.34Z"/>
  <path d="M123.53,0c.61,0,1.16.21,1.63.62.48.41.71,1.07.71,1.95s-.24,1.5-.71,1.93-1.02.64-1.63.64c-.67,0-1.24-.21-1.7-.64s-.69-1.07-.69-1.93.23-1.54.69-1.95C122.28.21,122.85,0,123.53,0ZM125.5,9.25v24.66h-4.05V9.25h4.05Z"/>
  <path d="M154.76,21.53c0,2.05-.27,3.87-.81,5.45-.54,1.58-1.3,2.92-2.3,4.03-1,1.1-2.21,1.94-3.63,2.51s-3.01.85-4.76.85c-1.63,0-3.13-.28-4.51-.85s-2.58-1.4-3.59-2.51c-1.01-1.1-1.8-2.45-2.37-4.03-.57-1.58-.85-3.4-.85-5.45,0-2.73.46-5.04,1.38-6.92s2.24-3.33,3.96-4.32c1.72-1,3.76-1.5,6.12-1.5,2.24,0,4.21.5,5.91,1.5,1.7,1,3.04,2.44,4,4.32s1.45,4.19,1.45,6.92ZM136.13,21.53c0,1.93.25,3.61.76,5.04s1.29,2.52,2.37,3.29c1.07.77,2.44,1.15,4.09,1.15s3.02-.38,4.09-1.15c1.07-.77,1.86-1.86,2.37-3.29s.76-3.1.76-5.04-.26-3.63-.78-5.01-1.31-2.45-2.37-3.2c-1.06-.75-2.43-1.13-4.12-1.13-2.52,0-4.34.83-5.47,2.48s-1.7,3.94-1.7,6.85Z"/>
  <path d="M173.02,8.79c2.94,0,5.17.71,6.67,2.14,1.5,1.43,2.25,3.73,2.25,6.92v16.05h-4v-15.78c0-1.99-.45-3.48-1.33-4.46-.89-.98-2.29-1.47-4.19-1.47-2.73,0-4.62.77-5.66,2.3-1.04,1.53-1.56,3.74-1.56,6.62v12.79h-4.05V9.25h3.27l.6,3.36h.23c.55-.86,1.23-1.57,2.05-2.14s1.71-.99,2.69-1.27c.98-.28,1.99-.41,3.04-.41Z"/>
  <path d="M199.1,8.79c2.12,0,3.93.46,5.45,1.38s2.68,2.22,3.5,3.89c.81,1.67,1.22,3.63,1.22,5.87v2.44h-16.88c.06,2.79.77,4.92,2.14,6.37,1.36,1.46,3.27,2.18,5.73,2.18,1.56,0,2.95-.14,4.16-.44,1.21-.29,2.46-.71,3.75-1.26v3.54c-1.26.55-2.5.96-3.73,1.22-1.23.26-2.68.39-4.37.39-2.33,0-4.39-.47-6.19-1.43-1.79-.95-3.19-2.37-4.19-4.25s-1.5-4.19-1.5-6.92.45-5.01,1.36-6.95c.9-1.93,2.18-3.42,3.82-4.46,1.64-1.04,3.55-1.56,5.73-1.56ZM199.06,12.1c-1.93,0-3.46.62-4.58,1.86-1.12,1.24-1.79,2.97-2,5.17h12.56c0-1.41-.22-2.64-.64-3.68-.43-1.04-1.08-1.86-1.96-2.46-.87-.6-2-.9-3.38-.9Z"/>
  <path d="M231.58,27.09c0,1.59-.4,2.93-1.2,4-.8,1.07-1.93,1.89-3.4,2.44-1.47.55-3.22.83-5.24.83-1.72,0-3.2-.14-4.44-.41-1.24-.28-2.34-.66-3.29-1.15v-3.68c.98.49,2.17.94,3.56,1.36s2.81.62,4.25.62c2.05,0,3.54-.33,4.46-.99.92-.66,1.38-1.54,1.38-2.64,0-.61-.17-1.17-.51-1.66-.34-.49-.94-.98-1.82-1.47s-2.12-1.04-3.75-1.66c-1.59-.61-2.96-1.23-4.09-1.84-1.14-.61-2.01-1.35-2.62-2.21-.61-.86-.92-1.96-.92-3.31,0-2.08.85-3.7,2.55-4.83,1.7-1.13,3.93-1.7,6.69-1.7,1.5,0,2.91.15,4.21.44,1.3.29,2.52.7,3.66,1.22l-1.38,3.22c-1.04-.43-2.13-.8-3.27-1.1-1.13-.31-2.3-.46-3.5-.46-1.66,0-2.92.27-3.79.8-.87.54-1.31,1.27-1.31,2.19,0,.67.2,1.25.6,1.72.4.48,1.06.94,2,1.38.93.45,2.18.97,3.75,1.59,1.56.58,2.9,1.18,4,1.79,1.1.61,1.95,1.36,2.53,2.23.58.87.87,1.97.87,3.29Z"/>
</svg>